<svg width="100" height="100" viewBox="0 0 100 100" fill="none" xmlns="http://www.w3.org/2000/svg">
<circle cx="50" cy="50" r="50" fill="#0C121C" fill-opacity="0.85"/>
<path d="M48.2769 49.5325C48.0037 49.5325 47.7546 49.4797 47.5296 49.3742C47.3046 49.2687 47.1037 49.1266 46.9269 48.9481L41.9849 43.9075L43.3349 42.5195C43.5599 42.2922 43.8171 42.1299 44.1064 42.0325C44.3956 41.9351 44.693 41.9188 44.9983 41.9838L46.8064 42.3734V34.4351C46.8064 33.7532 47.0394 33.1769 47.5055 32.7062C47.9715 32.2354 48.5421 32 49.2171 32C49.8921 32 50.4626 32.2354 50.9287 32.7062C51.3947 33.1769 51.6278 33.7532 51.6278 34.4351V38.8182H52.2546C52.3349 38.8182 52.4072 38.8263 52.4715 38.8425C52.5358 38.8588 52.6081 38.8831 52.6885 38.9156L56.3528 40.5471C56.7385 40.7256 57.0278 41.0097 57.2206 41.3994C57.4135 41.789 57.4697 42.1948 57.3894 42.6169L56.4974 47.901C56.4171 48.3718 56.1961 48.7614 55.8345 49.0698C55.4729 49.3782 55.059 49.5325 54.593 49.5325H48.2769ZM48.301 47.5844H54.593L55.4849 42.276L51.3867 40.4497H49.6992V34.4351C49.6992 34.289 49.655 34.1713 49.5666 34.082C49.4782 33.9927 49.3617 33.9481 49.2171 33.9481C49.0724 33.9481 48.9559 33.9927 48.8675 34.082C48.7791 34.1713 48.7349 34.289 48.7349 34.4351V44.7597L44.709 43.9075L48.301 47.5844Z" fill="white"/>
<path d="M8 65.9609V58.8027H8.94727V61.7422H12.668V58.8027H13.6152V65.9609H12.668V62.5869H8.94727V65.9609H8Z" fill="white"/>
<path d="M18.4688 65.3213C18.1432 65.598 17.8291 65.7933 17.5264 65.9072C17.2269 66.0212 16.9046 66.0781 16.5596 66.0781C15.9899 66.0781 15.5521 65.9398 15.2461 65.6631C14.9401 65.3831 14.7871 65.0267 14.7871 64.5938C14.7871 64.3398 14.8441 64.1087 14.958 63.9004C15.0752 63.6888 15.2266 63.5195 15.4121 63.3926C15.6009 63.2656 15.8125 63.1696 16.0469 63.1045C16.2194 63.0589 16.4798 63.015 16.8281 62.9727C17.5378 62.888 18.0602 62.7871 18.3955 62.6699C18.3988 62.5495 18.4004 62.473 18.4004 62.4404C18.4004 62.0824 18.3174 61.8301 18.1514 61.6836C17.9268 61.485 17.5931 61.3857 17.1504 61.3857C16.737 61.3857 16.431 61.459 16.2324 61.6055C16.0371 61.7487 15.8923 62.0042 15.7979 62.3721L14.9385 62.2549C15.0166 61.887 15.1452 61.5908 15.3242 61.3662C15.5033 61.1383 15.762 60.9642 16.1006 60.8438C16.4391 60.7201 16.8314 60.6582 17.2773 60.6582C17.7201 60.6582 18.0798 60.7103 18.3564 60.8145C18.6331 60.9186 18.8366 61.0505 18.9668 61.21C19.097 61.3662 19.1882 61.5648 19.2402 61.8057C19.2695 61.9554 19.2842 62.2256 19.2842 62.6162V63.7881C19.2842 64.6051 19.3021 65.1227 19.3379 65.3408C19.377 65.5557 19.4518 65.7624 19.5625 65.9609H18.6445C18.5534 65.7786 18.4948 65.5654 18.4688 65.3213ZM18.3955 63.3584C18.0765 63.4886 17.598 63.5993 16.96 63.6904C16.5986 63.7425 16.3431 63.8011 16.1934 63.8662C16.0436 63.9313 15.9281 64.0273 15.8467 64.1543C15.7653 64.278 15.7246 64.4163 15.7246 64.5693C15.7246 64.8037 15.8125 64.999 15.9883 65.1553C16.1673 65.3115 16.4277 65.3896 16.7695 65.3896C17.1081 65.3896 17.4092 65.3164 17.6729 65.1699C17.9365 65.0202 18.1302 64.8167 18.2539 64.5596C18.3483 64.361 18.3955 64.068 18.3955 63.6807V63.3584Z" fill="white"/>
<path d="M23.7861 60.7754V63.0166C24.0661 63.0166 24.263 62.9629 24.377 62.8555C24.4909 62.748 24.6569 62.4355 24.875 61.918C25.0801 61.4264 25.264 61.1123 25.4268 60.9756C25.5863 60.8421 25.8402 60.7754 26.1885 60.7754H26.5107V61.5029L26.2715 61.498C26.0371 61.498 25.8874 61.5322 25.8223 61.6006C25.7539 61.6722 25.6497 61.8854 25.5098 62.2402C25.3796 62.5788 25.2591 62.8132 25.1484 62.9434C25.0378 63.0736 24.8652 63.1924 24.6309 63.2998C25.0117 63.4007 25.3828 63.7523 25.7441 64.3545L26.7109 65.9609H25.7441L24.8018 64.3545C24.6097 64.029 24.4421 63.8158 24.2988 63.7148C24.1556 63.6139 23.9847 63.5635 23.7861 63.5635V65.9609H22.8877V63.5635C22.6924 63.5635 22.5231 63.6139 22.3799 63.7148C22.2367 63.8125 22.069 64.0257 21.877 64.3545L20.9346 65.9609H19.9678L20.9297 64.3545C21.2943 63.7523 21.667 63.4007 22.0479 63.2998C21.7874 63.1794 21.6051 63.0492 21.501 62.9092C21.3968 62.766 21.2406 62.4274 21.0322 61.8936C20.9606 61.7145 20.8841 61.6038 20.8027 61.5615C20.7181 61.5192 20.5928 61.498 20.4268 61.498C20.3844 61.498 20.2982 61.4997 20.168 61.5029V60.7754H20.29C20.6286 60.7754 20.8662 60.7965 21.0029 60.8389C21.1429 60.8779 21.2666 60.9642 21.374 61.0977C21.4847 61.2279 21.6279 61.5013 21.8037 61.918C22.0186 62.429 22.1813 62.7399 22.292 62.8506C22.4059 62.9613 22.6045 63.0166 22.8877 63.0166V60.7754H23.7861Z" fill="white"/>
<path d="M27.3652 60.7754H28.7324L30.0947 64.9258L31.6084 60.7754H32.873V65.9609H31.9941V61.7861L30.4609 65.9609H29.6748L28.2246 61.5859V65.9609H27.3652V60.7754Z" fill="white"/>
<path d="M34.2158 60.7754H35.0947V64.7305L37.5312 60.7754H38.4785V65.9609H37.5996V62.0303L35.1631 65.9609H34.2158V60.7754Z" fill="white"/>
<path d="M43.2783 60.7754H46.8916V65.2383H47.4531V67.4307H46.7305V65.9609H42.6484V67.4307H41.9258V65.2383H42.3896C43.0081 64.3984 43.3044 62.9108 43.2783 60.7754ZM44.0107 61.5029C43.9456 63.1859 43.6852 64.431 43.2295 65.2383H46.0176V61.5029H44.0107Z" fill="white"/>
<path d="M48.8545 60.7754H52.9365V65.9609H52.0625V61.5029H49.7334V64.0859C49.7334 64.6882 49.7139 65.0853 49.6748 65.2773C49.6357 65.4694 49.5283 65.637 49.3525 65.7803C49.1768 65.9235 48.9229 65.9951 48.5908 65.9951C48.3857 65.9951 48.1497 65.9821 47.8828 65.9561V65.2236H48.2686C48.4508 65.2236 48.5811 65.2057 48.6592 65.1699C48.7373 65.1309 48.7894 65.0706 48.8154 64.9893C48.8415 64.9079 48.8545 64.6426 48.8545 64.1934V60.7754Z" fill="white"/>
<path d="M58.3467 60.7754V65.9609H57.4727V63.9395H56.9648C56.6556 63.9395 56.4245 63.9801 56.2715 64.0615C56.1217 64.1396 55.902 64.3952 55.6123 64.8281L54.8457 65.9609H53.7568L54.7041 64.5645C54.9938 64.138 55.2819 63.8971 55.5684 63.8418C55.0671 63.7734 54.6943 63.5928 54.4502 63.2998C54.2093 63.0068 54.0889 62.6699 54.0889 62.2891C54.0889 61.8398 54.2467 61.4753 54.5625 61.1953C54.8815 60.9154 55.3421 60.7754 55.9443 60.7754H58.3467ZM57.4727 61.5029H56.2227C55.6986 61.5029 55.36 61.5843 55.207 61.7471C55.0573 61.9098 54.9824 62.1003 54.9824 62.3184C54.9824 62.6276 55.0931 62.8555 55.3145 63.002C55.5391 63.1452 55.9346 63.2168 56.501 63.2168H57.4727V61.5029Z" fill="white"/>
<path d="M65.8516 64.0615L66.7158 64.1738C66.6214 64.7695 66.3789 65.2367 65.9883 65.5752C65.6009 65.9105 65.124 66.0781 64.5576 66.0781C63.848 66.0781 63.2767 65.847 62.8438 65.3848C62.4141 64.9193 62.1992 64.2536 62.1992 63.3877C62.1992 62.8278 62.292 62.3379 62.4775 61.918C62.6631 61.498 62.9447 61.1839 63.3223 60.9756C63.7031 60.764 64.1165 60.6582 64.5625 60.6582C65.1257 60.6582 65.5863 60.8014 65.9443 61.0879C66.3024 61.3711 66.5319 61.7747 66.6328 62.2988L65.7783 62.4307C65.6969 62.0824 65.5521 61.8203 65.3438 61.6445C65.1387 61.4688 64.8896 61.3809 64.5967 61.3809C64.154 61.3809 63.7943 61.5404 63.5176 61.8594C63.2409 62.1751 63.1025 62.6764 63.1025 63.3633C63.1025 64.0599 63.236 64.5661 63.5029 64.8818C63.7699 65.1976 64.1182 65.3555 64.5479 65.3555C64.8929 65.3555 65.181 65.2497 65.4121 65.0381C65.6432 64.8265 65.7897 64.501 65.8516 64.0615Z" fill="white"/>
<path d="M66.9941 60.7754H71.208V61.5029H69.5381V65.9609H68.6641V61.5029H66.9941V60.7754Z" fill="white"/>
<path d="M75.3145 65.3213C74.9889 65.598 74.6748 65.7933 74.3721 65.9072C74.0726 66.0212 73.7503 66.0781 73.4053 66.0781C72.8356 66.0781 72.3978 65.9398 72.0918 65.6631C71.7858 65.3831 71.6328 65.0267 71.6328 64.5938C71.6328 64.3398 71.6898 64.1087 71.8037 63.9004C71.9209 63.6888 72.0723 63.5195 72.2578 63.3926C72.4466 63.2656 72.6582 63.1696 72.8926 63.1045C73.0651 63.0589 73.3255 63.015 73.6738 62.9727C74.3835 62.888 74.9059 62.7871 75.2412 62.6699C75.2445 62.5495 75.2461 62.473 75.2461 62.4404C75.2461 62.0824 75.1631 61.8301 74.9971 61.6836C74.7725 61.485 74.4388 61.3857 73.9961 61.3857C73.5827 61.3857 73.2767 61.459 73.0781 61.6055C72.8828 61.7487 72.738 62.0042 72.6436 62.3721L71.7842 62.2549C71.8623 61.887 71.9909 61.5908 72.1699 61.3662C72.349 61.1383 72.6077 60.9642 72.9463 60.8438C73.2848 60.7201 73.6771 60.6582 74.123 60.6582C74.5658 60.6582 74.9255 60.7103 75.2021 60.8145C75.4788 60.9186 75.6823 61.0505 75.8125 61.21C75.9427 61.3662 76.0339 61.5648 76.0859 61.8057C76.1152 61.9554 76.1299 62.2256 76.1299 62.6162V63.7881C76.1299 64.6051 76.1478 65.1227 76.1836 65.3408C76.2227 65.5557 76.2975 65.7624 76.4082 65.9609H75.4902C75.3991 65.7786 75.3405 65.5654 75.3145 65.3213ZM75.2412 63.3584C74.9222 63.4886 74.4437 63.5993 73.8057 63.6904C73.4443 63.7425 73.1888 63.8011 73.0391 63.8662C72.8893 63.9313 72.7738 64.0273 72.6924 64.1543C72.611 64.278 72.5703 64.4163 72.5703 64.5693C72.5703 64.8037 72.6582 64.999 72.834 65.1553C73.013 65.3115 73.2734 65.3896 73.6152 65.3896C73.9538 65.3896 74.2549 65.3164 74.5186 65.1699C74.7822 65.0202 74.9759 64.8167 75.0996 64.5596C75.194 64.361 75.2412 64.068 75.2412 63.6807V63.3584Z" fill="white"/>
<path d="M77.4971 67.9482V60.7754H78.2979V61.4492C78.4867 61.1855 78.6999 60.9886 78.9375 60.8584C79.1751 60.7249 79.4632 60.6582 79.8018 60.6582C80.2445 60.6582 80.6351 60.7721 80.9736 61C81.3122 61.2279 81.5677 61.5501 81.7402 61.9668C81.9128 62.3802 81.999 62.8343 81.999 63.3291C81.999 63.8597 81.903 64.3382 81.7109 64.7646C81.5221 65.1878 81.2454 65.5133 80.8809 65.7412C80.5195 65.9658 80.1387 66.0781 79.7383 66.0781C79.4453 66.0781 79.1816 66.0163 78.9473 65.8926C78.7161 65.7689 78.5257 65.6126 78.376 65.4238V67.9482H77.4971ZM78.293 63.3975C78.293 64.0648 78.4281 64.5579 78.6982 64.877C78.9684 65.196 79.2956 65.3555 79.6797 65.3555C80.0703 65.3555 80.404 65.1911 80.6807 64.8623C80.9606 64.5303 81.1006 64.0176 81.1006 63.3242C81.1006 62.6634 80.9639 62.1686 80.6904 61.8398C80.4202 61.5111 80.0964 61.3467 79.7188 61.3467C79.3444 61.3467 79.0124 61.5225 78.7227 61.874C78.4362 62.2223 78.293 62.7301 78.293 63.3975Z" fill="white"/>
<path d="M82.3652 60.7754H86.5791V61.5029H84.9092V65.9609H84.0352V61.5029H82.3652V60.7754Z" fill="white"/>
<path d="M90.6855 65.3213C90.36 65.598 90.0459 65.7933 89.7432 65.9072C89.4437 66.0212 89.1214 66.0781 88.7764 66.0781C88.2067 66.0781 87.7689 65.9398 87.4629 65.6631C87.1569 65.3831 87.0039 65.0267 87.0039 64.5938C87.0039 64.3398 87.0609 64.1087 87.1748 63.9004C87.292 63.6888 87.4434 63.5195 87.6289 63.3926C87.8177 63.2656 88.0293 63.1696 88.2637 63.1045C88.4362 63.0589 88.6966 63.015 89.0449 62.9727C89.7546 62.888 90.277 62.7871 90.6123 62.6699C90.6156 62.5495 90.6172 62.473 90.6172 62.4404C90.6172 62.0824 90.5342 61.8301 90.3682 61.6836C90.1436 61.485 89.8099 61.3857 89.3672 61.3857C88.9538 61.3857 88.6478 61.459 88.4492 61.6055C88.2539 61.7487 88.1091 62.0042 88.0146 62.3721L87.1553 62.2549C87.2334 61.887 87.362 61.5908 87.541 61.3662C87.7201 61.1383 87.9788 60.9642 88.3174 60.8438C88.6559 60.7201 89.0482 60.6582 89.4941 60.6582C89.9369 60.6582 90.2966 60.7103 90.5732 60.8145C90.8499 60.9186 91.0534 61.0505 91.1836 61.21C91.3138 61.3662 91.405 61.5648 91.457 61.8057C91.4863 61.9554 91.501 62.2256 91.501 62.6162V63.7881C91.501 64.6051 91.5189 65.1227 91.5547 65.3408C91.5938 65.5557 91.6686 65.7624 91.7793 65.9609H90.8613C90.7702 65.7786 90.7116 65.5654 90.6855 65.3213ZM90.6123 63.3584C90.2933 63.4886 89.8148 63.5993 89.1768 63.6904C88.8154 63.7425 88.5599 63.8011 88.4102 63.8662C88.2604 63.9313 88.1449 64.0273 88.0635 64.1543C87.9821 64.278 87.9414 64.4163 87.9414 64.5693C87.9414 64.8037 88.0293 64.999 88.2051 65.1553C88.3841 65.3115 88.6445 65.3896 88.9863 65.3896C89.3249 65.3896 89.626 65.3164 89.8896 65.1699C90.1533 65.0202 90.347 64.8167 90.4707 64.5596C90.5651 64.361 90.6123 64.068 90.6123 63.6807V63.3584Z" fill="white"/>
</svg>
