<svg width="200" height="55" viewBox="0 0 200 55" fill="none" xmlns="http://www.w3.org/2000/svg">
<path fill-rule="evenodd" clip-rule="evenodd" d="M25.5385 14.9893H45.5413V11.5069H29.8259V9.10924H43.4249V5.90194H29.8165V3.48083H45.5366V3.07833e-06H25.5416V14.9893H25.5385ZM74.2472 14.9893H94.2516V11.5069H78.5347V9.10924H92.1306V5.90194H78.5222V3.48083H94.2516V3.07833e-06H74.2504V14.9893H74.2472ZM152.125 14.9893H172.128V11.5069H156.419V9.10924H170.018V5.90194H156.409V3.48083H172.129V3.07833e-06H152.127V14.9893H152.125ZM49.8975 14.9893H54.185V9.10924H67.784V5.90194H54.1756V3.48083H69.8957V3.07833e-06H49.8975V14.9893ZM176.479 14.9893H180.787V9.7407H189.892V9.76883L194.294 14.9893H200L195.417 9.53438C196.539 9.19994 197.503 8.47301 198.132 7.48661C198.762 6.50021 199.015 5.3203 198.845 4.16277C198.675 3.00524 198.094 1.9475 197.208 1.18308C196.321 0.418662 195.189 -0.00131183 194.019 3.07833e-06H176.476V14.9893H176.479ZM192.88 3.51209C192.916 3.51209 192.953 3.51209 192.991 3.51209C193.351 3.51209 193.695 3.65486 193.95 3.909C194.204 4.16314 194.347 4.50782 194.347 4.86722C194.347 5.22663 194.204 5.57131 193.95 5.82545C193.695 6.07958 193.351 6.22236 192.991 6.22236H192.93H192.886H180.787V3.50584H192.856H192.88V3.51209ZM4.33436 7.48058V11.485H13.3097C14.4359 11.485 15.2597 11.2766 15.7811 10.8598C16.302 10.4456 16.5632 9.79384 16.5632 8.90761C16.5757 8.44079 16.583 7.97189 16.5851 7.5009V7.47277C16.5851 7.00595 16.5778 6.53704 16.5632 6.06605C16.5632 5.17983 16.3051 4.52961 15.7811 4.11385C15.2571 3.69809 14.4359 3.48865 13.3097 3.48865H4.33436V7.48058ZM21.1165 10.1768C21.0258 11.8429 20.6707 13.0637 19.7791 13.8327C18.8876 14.6017 17.4704 14.9893 15.5292 14.9893H0V3.07833e-06H15.5261C17.4667 3.07833e-06 18.8834 0.385546 19.776 1.15663C20.6676 1.92563 21.0195 3.14635 21.1134 4.81408C21.2135 6.60025 21.2135 8.39061 21.1134 10.1768H21.1165ZM130.922 7.48058V11.485H139.898C141.024 11.485 141.847 11.2766 142.368 10.8598C142.89 10.4456 143.15 9.79384 143.15 8.90761C143.162 8.44079 143.169 7.97189 143.172 7.5009V7.47277C143.172 7.00595 143.164 6.53704 143.15 6.06605C143.15 5.17983 142.892 4.52961 142.368 4.11385C141.844 3.69809 141.024 3.48865 139.898 3.48865H130.922V7.48058ZM147.701 10.1768C147.611 11.8429 147.254 13.0637 146.364 13.8327C145.474 14.6017 144.062 14.9893 142.114 14.9893H126.588V3.07833e-06H142.114C144.056 3.07833e-06 145.472 0.385546 146.364 1.15663C147.254 1.92563 147.608 3.14635 147.701 4.81408C147.802 6.60025 147.802 8.39061 147.701 10.1768ZM116.867 14.9893L102.992 3.81532V14.9893H98.6016V3.07833e-06H105.345L117.843 10.0533V3.07833e-06H122.233V14.9893H116.867Z" fill="#0C121C"/>
<path d="M26.0521 37.994L19.7701 50H17.6821L19.7701 46.04L15.5401 37.994H17.6641L20.8141 44.078L23.9821 37.994H26.0521ZM41.906 50H39.386L34.976 44.942V50H33.122V44.942L28.658 50H26.174L31.7 43.934L26.174 37.994H28.568L33.122 42.962V37.994H34.976V42.962L39.53 37.994H41.852L36.344 43.898L41.906 50ZM51.4966 50H43.4146V37.994H51.4966V39.65H45.2686V43.016H51.3166V44.672H45.2686V48.326H51.4966V50ZM66.2036 43.808C66.6236 44.06 66.9176 44.39 67.0856 44.798C67.2656 45.206 67.3556 45.77 67.3556 46.49C67.3436 47.99 66.8996 48.992 66.0236 49.496C65.7116 49.688 65.3036 49.82 64.7996 49.892C64.3076 49.964 63.5996 50 62.6756 50H58.3736V37.994H62.5676C63.4556 37.994 64.0736 38.006 64.4216 38.03C64.7816 38.054 65.0996 38.102 65.3756 38.174C66.0716 38.354 66.5636 38.708 66.8516 39.236C67.1156 39.68 67.2536 40.292 67.2656 41.072C67.2776 42.44 66.9236 43.352 66.2036 43.808ZM60.1556 43.016H62.5676C63.4436 43.016 63.9896 43.01 64.2056 42.998C64.4216 42.986 64.6076 42.944 64.7636 42.872C65.0156 42.752 65.1956 42.572 65.3036 42.332C65.4236 42.092 65.4836 41.756 65.4836 41.324C65.4836 40.592 65.2976 40.118 64.9256 39.902C64.7576 39.806 64.4996 39.74 64.1516 39.704C63.8036 39.668 63.2336 39.65 62.4416 39.65H60.1556V43.016ZM60.1556 48.344H62.5316C63.3836 48.344 63.9296 48.338 64.1696 48.326C64.4216 48.302 64.6376 48.254 64.8176 48.182C65.0816 48.062 65.2736 47.876 65.3936 47.624C65.5136 47.36 65.5736 46.994 65.5736 46.526C65.5736 45.686 65.3756 45.152 64.9796 44.924C64.8116 44.828 64.5536 44.762 64.2056 44.726C63.8576 44.69 63.2996 44.672 62.5316 44.672H60.1556V48.344ZM83.7381 50H81.0021L75.8901 45.014V50H74.0181V37.994H75.8721V43.016L81.1821 37.994H83.7021L77.2581 43.952L83.7381 50ZM95.3615 50H93.3275L92.1575 46.814H87.2975L86.1455 50H84.2015L88.8455 37.994H90.7355L95.3615 50ZM91.5815 45.194L89.7455 40.136L87.8915 45.194H91.5815ZM104.248 43.754C104.92 43.946 105.382 44.252 105.634 44.672C105.898 45.092 106.03 45.752 106.03 46.652C106.03 47.984 105.574 48.92 104.662 49.46C103.894 49.916 102.754 50.144 101.242 50.144C99.6096 50.144 98.4396 49.88 97.7316 49.352C96.9996 48.812 96.6336 47.93 96.6336 46.706H98.4516C98.4516 47.174 98.5356 47.534 98.7036 47.786C98.8716 48.014 99.1476 48.182 99.5316 48.29C99.9276 48.386 100.504 48.434 101.26 48.434C102.448 48.434 103.252 48.29 103.672 48.002C104.056 47.726 104.248 47.24 104.248 46.544C104.248 45.98 104.182 45.572 104.05 45.32C103.906 45.056 103.636 44.876 103.24 44.78C102.856 44.684 102.214 44.636 101.314 44.636H99.8916V43.052H101.314C102.418 43.052 103.162 42.914 103.546 42.638C103.906 42.374 104.086 41.906 104.086 41.234C104.086 40.766 104.026 40.43 103.906 40.226C103.774 39.974 103.51 39.8 103.114 39.704C102.718 39.608 102.094 39.56 101.242 39.56C100.102 39.56 99.3396 39.698 98.9556 39.974C98.6076 40.214 98.4336 40.652 98.4336 41.288H96.6156C96.6156 39.908 97.1016 38.96 98.0736 38.444C98.7816 38.06 99.8376 37.868 101.242 37.868C103.018 37.868 104.26 38.138 104.968 38.678C105.592 39.17 105.904 39.95 105.904 41.018C105.904 41.726 105.784 42.284 105.544 42.692C105.28 43.172 104.848 43.526 104.248 43.754ZM118.67 50H116.636L115.466 46.814H110.606L109.454 50H107.51L112.154 37.994H114.044L118.67 50ZM114.89 45.194L113.054 40.136L111.2 45.194H114.89ZM129.691 50H127.567L124.597 45.266L121.645 50H119.539L123.535 43.88L119.647 37.994H121.771L124.633 42.53L127.477 37.994H129.601L125.713 43.88L129.691 50ZM140.731 46.706C140.731 48.05 140.287 48.986 139.399 49.514C138.703 49.934 137.671 50.144 136.303 50.144C134.743 50.144 133.579 49.874 132.811 49.334C132.151 48.866 131.725 48.134 131.533 47.138C131.401 46.526 131.335 45.476 131.335 43.988C131.335 42.5 131.401 41.45 131.533 40.838C131.737 39.854 132.169 39.134 132.829 38.678C133.597 38.138 134.761 37.868 136.321 37.868C137.893 37.868 139.021 38.144 139.705 38.696C140.389 39.248 140.731 40.112 140.731 41.288H138.913C138.913 40.832 138.841 40.49 138.697 40.262C138.529 40.01 138.253 39.83 137.869 39.722C137.485 39.614 136.915 39.56 136.159 39.56C135.259 39.56 134.605 39.692 134.197 39.956C133.777 40.208 133.501 40.664 133.369 41.324C133.261 41.852 133.207 42.746 133.207 44.006C133.207 45.266 133.261 46.16 133.369 46.688C133.501 47.336 133.771 47.792 134.179 48.056C134.587 48.308 135.247 48.434 136.159 48.434C137.311 48.434 138.067 48.296 138.427 48.02C138.751 47.78 138.913 47.342 138.913 46.706H140.731ZM151.324 39.65H147.616V50H145.762V39.65H142.054V37.994H151.324V39.65ZM161.895 50H159.861L158.691 46.814H153.831L152.679 50H150.735L155.379 37.994H157.269L161.895 50ZM158.115 45.194L156.279 40.136L154.425 45.194H158.115ZM172.473 50H170.619V44.69H165.363V50H163.491V37.994H165.363V43.016H170.619V37.994H172.473V50ZM183.42 50H175.338V37.994H183.42V39.65H177.192V43.016H183.24V44.672H177.192V48.326H183.42V50Z" fill="#0C121C"/>
</svg>
