<svg width="144" height="35" viewBox="0 0 144 35" fill="none" xmlns="http://www.w3.org/2000/svg">
<path d="M63 5.45455V0.909091H64.35V2.72727C65.43 1.83333 66.6225 1.1553 67.9275 0.693182C69.2325 0.231061 70.59 0 72 0C73.41 0 74.7675 0.231061 76.0725 0.693182C77.3775 1.1553 78.57 1.83333 79.65 2.72727V0.909091H81V5.45455H76.5V4.09091H79.11C78.12 3.21212 77.0175 2.53788 75.8025 2.06818C74.5875 1.59849 73.32 1.36364 72 1.36364C70.68 1.36364 69.4125 1.59849 68.1975 2.06818C66.9825 2.53788 65.88 3.21212 64.89 4.09091H67.5V5.45455H63ZM70.6725 20C70.4175 20 70.185 19.9508 69.975 19.8523C69.765 19.7538 69.5775 19.6212 69.4125 19.4545L64.8 14.75L66.06 13.4545C66.27 13.2424 66.51 13.0909 66.78 13C67.05 12.9091 67.3275 12.8939 67.6125 12.9545L69.3 13.3182V5.90909C69.3 5.27273 69.5175 4.73485 69.9525 4.29545C70.3875 3.85606 70.92 3.63636 71.55 3.63636C72.18 3.63636 72.7125 3.85606 73.1475 4.29545C73.5825 4.73485 73.8 5.27273 73.8 5.90909V10H74.385C74.46 10 74.5275 10.0076 74.5875 10.0227C74.6475 10.0379 74.715 10.0606 74.79 10.0909L78.21 11.6136C78.57 11.7803 78.84 12.0455 79.02 12.4091C79.2 12.7727 79.2525 13.1515 79.1775 13.5455L78.345 18.4773C78.27 18.9167 78.0638 19.2803 77.7263 19.5682C77.3888 19.8561 77.0025 20 76.5675 20H70.6725ZM70.695 18.1818H76.5675L77.4 13.2273L73.575 11.5227H72V5.90909C72 5.77273 71.9588 5.66288 71.8763 5.57955C71.7938 5.49621 71.685 5.45455 71.55 5.45455C71.415 5.45455 71.3062 5.49621 71.2238 5.57955C71.1412 5.66288 71.1 5.77273 71.1 5.90909V15.5455L67.3425 14.75L70.695 18.1818Z" fill="#0C121C"/>
<path d="M2.30371 25.8418H7.25V31.7988H7.87988V34.5625H6.67871V33H2.17188V34.5625H0.970703V31.7988H1.57617C1.8724 31.1868 2.06771 30.4772 2.16211 29.6699C2.25651 28.8594 2.30371 27.8356 2.30371 26.5986V25.8418ZM3.68066 27.043C3.68066 29.2174 3.48372 30.8027 3.08984 31.7988H5.80957V27.043H3.68066Z" fill="#0C121C"/>
<path d="M9.21777 27.8145H13.8125V33H12.4453V28.9277H10.5752V31.2568C10.5752 31.8493 10.5068 32.266 10.3701 32.5068C10.2334 32.7445 10.082 32.9007 9.91602 32.9756C9.75 33.0505 9.48307 33.0879 9.11523 33.0879C8.89714 33.0879 8.60905 33.0586 8.25098 33V31.9893C8.28027 31.9893 8.35677 31.9925 8.48047 31.999C8.6237 32.0088 8.73438 32.0137 8.8125 32.0137C8.99805 32.0137 9.11198 31.9535 9.1543 31.833C9.19661 31.7093 9.21777 31.3691 9.21777 30.8125V27.8145Z" fill="#0C121C"/>
<path d="M19.6475 27.8145V33H18.2852V30.8467H18.1582C17.862 30.8467 17.6439 30.8857 17.5039 30.9639C17.3672 31.0387 17.2142 31.1999 17.0449 31.4473L16.9619 31.5498L16.0586 33H14.4619L15.4434 31.4961C15.7233 31.0664 15.9772 30.819 16.2051 30.7539C15.821 30.7311 15.5085 30.5863 15.2676 30.3193C15.0299 30.0492 14.9111 29.7057 14.9111 29.2891C14.9111 28.9538 14.9893 28.6673 15.1455 28.4297C15.305 28.1921 15.515 28.0309 15.7754 27.9463C16.0391 27.8584 16.4297 27.8145 16.9473 27.8145H19.6475ZM18.2852 28.6982H17.3037C16.9424 28.6982 16.6885 28.7503 16.542 28.8545C16.3955 28.9554 16.3223 29.1247 16.3223 29.3623C16.3223 29.5999 16.4053 29.7708 16.5713 29.875C16.7373 29.9792 17.0091 30.0312 17.3867 30.0312H18.2852V28.6982Z" fill="#0C121C"/>
<path d="M23.7734 27.8145H28.3779V33H27.0059V28.9229H25.1455V33H23.7734V27.8145Z" fill="#0C121C"/>
<path d="M29.5547 30.334C29.5547 29.8783 29.667 29.4372 29.8916 29.0107C30.1162 28.5843 30.4336 28.2588 30.8438 28.0342C31.2572 27.8096 31.7178 27.6973 32.2256 27.6973C33.0101 27.6973 33.653 27.9528 34.1543 28.4639C34.6556 28.9717 34.9062 29.6146 34.9062 30.3926C34.9062 31.1771 34.6523 31.8281 34.1445 32.3457C33.64 32.86 33.0036 33.1172 32.2354 33.1172C31.7601 33.1172 31.306 33.0098 30.873 32.7949C30.4434 32.5801 30.1162 32.266 29.8916 31.8525C29.667 31.4359 29.5547 30.9297 29.5547 30.334ZM30.9609 30.4072C30.9609 30.9215 31.083 31.3154 31.3271 31.5889C31.5713 31.8623 31.8724 31.999 32.2305 31.999C32.5885 31.999 32.888 31.8623 33.1289 31.5889C33.373 31.3154 33.4951 30.9183 33.4951 30.3975C33.4951 29.8896 33.373 29.499 33.1289 29.2256C32.888 28.9521 32.5885 28.8154 32.2305 28.8154C31.8724 28.8154 31.5713 28.9521 31.3271 29.2256C31.083 29.499 30.9609 29.8929 30.9609 30.4072Z" fill="#0C121C"/>
<path d="M36 27.8145H39.0029C39.6182 27.8145 40.0788 27.9268 40.3848 28.1514C40.6908 28.376 40.8438 28.7145 40.8438 29.167C40.8438 29.4567 40.7591 29.709 40.5898 29.9238C40.4238 30.1387 40.2139 30.2819 39.96 30.3535C40.318 30.4414 40.585 30.6058 40.7607 30.8467C40.9365 31.0876 41.0244 31.3512 41.0244 31.6377C41.0244 32.0413 40.8763 32.3701 40.5801 32.624C40.2839 32.8747 39.846 33 39.2666 33H36V27.8145ZM37.3818 29.9678H38.2656C38.6921 29.9678 38.9997 29.9141 39.1885 29.8066C39.3805 29.6992 39.4766 29.5299 39.4766 29.2988C39.4766 29.0807 39.387 28.9261 39.208 28.835C39.0322 28.7406 38.7181 28.6934 38.2656 28.6934H37.3818V29.9678ZM37.3818 32.1211H38.4658C38.8564 32.1211 39.1413 32.0739 39.3203 31.9795C39.4993 31.8851 39.5889 31.7158 39.5889 31.4717C39.5889 31.2178 39.4863 31.0436 39.2812 30.9492C39.0762 30.8516 38.6774 30.8027 38.085 30.8027H37.3818V32.1211Z" fill="#0C121C"/>
<path d="M41.6836 30.334C41.6836 29.8783 41.7959 29.4372 42.0205 29.0107C42.2451 28.5843 42.5625 28.2588 42.9727 28.0342C43.3861 27.8096 43.8467 27.6973 44.3545 27.6973C45.139 27.6973 45.7819 27.9528 46.2832 28.4639C46.7845 28.9717 47.0352 29.6146 47.0352 30.3926C47.0352 31.1771 46.7812 31.8281 46.2734 32.3457C45.7689 32.86 45.1325 33.1172 44.3643 33.1172C43.889 33.1172 43.4349 33.0098 43.002 32.7949C42.5723 32.5801 42.2451 32.266 42.0205 31.8525C41.7959 31.4359 41.6836 30.9297 41.6836 30.334ZM43.0898 30.4072C43.0898 30.9215 43.2119 31.3154 43.4561 31.5889C43.7002 31.8623 44.0013 31.999 44.3594 31.999C44.7174 31.999 45.0169 31.8623 45.2578 31.5889C45.502 31.3154 45.624 30.9183 45.624 30.3975C45.624 29.8896 45.502 29.499 45.2578 29.2256C45.0169 28.9521 44.7174 28.8154 44.3594 28.8154C44.0013 28.8154 43.7002 28.9521 43.4561 29.2256C43.2119 29.499 43.0898 29.8929 43.0898 30.4072Z" fill="#0C121C"/>
<path d="M48.0752 27.8145H49.3545V28.5762C49.5205 28.3158 49.7451 28.1042 50.0283 27.9414C50.3115 27.7786 50.6257 27.6973 50.9707 27.6973C51.5729 27.6973 52.084 27.9333 52.5039 28.4053C52.9238 28.8773 53.1338 29.5348 53.1338 30.3779C53.1338 31.2438 52.9222 31.9176 52.499 32.3994C52.0758 32.8779 51.5632 33.1172 50.9609 33.1172C50.6745 33.1172 50.4141 33.0602 50.1797 32.9463C49.9486 32.8324 49.7044 32.637 49.4473 32.3604V34.9727H48.0752V27.8145ZM49.4326 30.3193C49.4326 30.902 49.5482 31.3333 49.7793 31.6133C50.0104 31.89 50.292 32.0283 50.624 32.0283C50.943 32.0283 51.2083 31.9014 51.4199 31.6475C51.6315 31.3903 51.7373 30.9704 51.7373 30.3877C51.7373 29.8441 51.6283 29.4404 51.4102 29.1768C51.1921 28.9131 50.9219 28.7812 50.5996 28.7812C50.2643 28.7812 49.986 28.9115 49.7646 29.1719C49.5433 29.429 49.4326 29.8115 49.4326 30.3193Z" fill="#0C121C"/>
<path d="M53.9102 30.334C53.9102 29.8783 54.0225 29.4372 54.2471 29.0107C54.4717 28.5843 54.7891 28.2588 55.1992 28.0342C55.6126 27.8096 56.0732 27.6973 56.5811 27.6973C57.3656 27.6973 58.0085 27.9528 58.5098 28.4639C59.0111 28.9717 59.2617 29.6146 59.2617 30.3926C59.2617 31.1771 59.0078 31.8281 58.5 32.3457C57.9954 32.86 57.3591 33.1172 56.5908 33.1172C56.1156 33.1172 55.6615 33.0098 55.2285 32.7949C54.7988 32.5801 54.4717 32.266 54.2471 31.8525C54.0225 31.4359 53.9102 30.9297 53.9102 30.334ZM55.3164 30.4072C55.3164 30.9215 55.4385 31.3154 55.6826 31.5889C55.9268 31.8623 56.2279 31.999 56.5859 31.999C56.944 31.999 57.2435 31.8623 57.4844 31.5889C57.7285 31.3154 57.8506 30.9183 57.8506 30.3975C57.8506 29.8896 57.7285 29.499 57.4844 29.2256C57.2435 28.9521 56.944 28.8154 56.5859 28.8154C56.2279 28.8154 55.9268 28.9521 55.6826 29.2256C55.4385 29.499 55.3164 29.8929 55.3164 30.4072Z" fill="#0C121C"/>
<path d="M59.4717 27.8145H64.1641V28.9229H62.5039V33H61.1318V28.9229H59.4717V27.8145Z" fill="#0C121C"/>
<path d="M66.0146 29.3965L64.7695 29.1719C64.9095 28.6706 65.1504 28.2995 65.4922 28.0586C65.834 27.8177 66.3418 27.6973 67.0156 27.6973C67.6276 27.6973 68.0833 27.7705 68.3828 27.917C68.6823 28.0602 68.8923 28.2441 69.0127 28.4688C69.1364 28.6901 69.1982 29.0986 69.1982 29.6943L69.1836 31.2959C69.1836 31.7516 69.2048 32.0885 69.2471 32.3066C69.2926 32.5215 69.3756 32.7526 69.4961 33H68.1387C68.1029 32.9089 68.0589 32.7738 68.0068 32.5947C67.984 32.5133 67.9678 32.4596 67.958 32.4336C67.7236 32.6615 67.473 32.8324 67.2061 32.9463C66.9391 33.0602 66.6543 33.1172 66.3516 33.1172C65.8177 33.1172 65.3962 32.9723 65.0869 32.6826C64.7809 32.3929 64.6279 32.0267 64.6279 31.584C64.6279 31.291 64.6979 31.0306 64.8379 30.8027C64.9779 30.5716 65.1732 30.3958 65.4238 30.2754C65.6777 30.1517 66.0423 30.0443 66.5176 29.9531C67.1589 29.8327 67.6032 29.7204 67.8506 29.6162V29.4795C67.8506 29.2158 67.7855 29.0286 67.6553 28.918C67.5251 28.804 67.2793 28.7471 66.918 28.7471C66.6738 28.7471 66.4834 28.7959 66.3467 28.8936C66.21 28.988 66.0993 29.1556 66.0146 29.3965ZM67.8506 30.5098C67.6748 30.5684 67.3965 30.6383 67.0156 30.7197C66.6348 30.8011 66.3857 30.8809 66.2686 30.959C66.0895 31.0859 66 31.2471 66 31.4424C66 31.6344 66.0716 31.8005 66.2148 31.9404C66.3581 32.0804 66.5404 32.1504 66.7617 32.1504C67.0091 32.1504 67.2451 32.069 67.4697 31.9062C67.6357 31.7826 67.7448 31.6312 67.7969 31.4521C67.8327 31.335 67.8506 31.112 67.8506 30.7832V30.5098Z" fill="#0C121C"/>
<path d="M73.2852 27.8145H77.8896V33H76.5176V28.9229H74.6572V33H73.2852V27.8145Z" fill="#0C121C"/>
<path d="M79.3447 27.8145H80.624V28.5762C80.79 28.3158 81.0146 28.1042 81.2979 27.9414C81.5811 27.7786 81.8952 27.6973 82.2402 27.6973C82.8424 27.6973 83.3535 27.9333 83.7734 28.4053C84.1934 28.8773 84.4033 29.5348 84.4033 30.3779C84.4033 31.2438 84.1917 31.9176 83.7686 32.3994C83.3454 32.8779 82.8327 33.1172 82.2305 33.1172C81.944 33.1172 81.6836 33.0602 81.4492 32.9463C81.2181 32.8324 80.974 32.637 80.7168 32.3604V34.9727H79.3447V27.8145ZM80.7021 30.3193C80.7021 30.902 80.8177 31.3333 81.0488 31.6133C81.2799 31.89 81.5615 32.0283 81.8936 32.0283C82.2126 32.0283 82.4779 31.9014 82.6895 31.6475C82.901 31.3903 83.0068 30.9704 83.0068 30.3877C83.0068 29.8441 82.8978 29.4404 82.6797 29.1768C82.4616 28.9131 82.1914 28.7812 81.8691 28.7812C81.5339 28.7812 81.2555 28.9115 81.0342 29.1719C80.8128 29.429 80.7021 29.8115 80.7021 30.3193Z" fill="#0C121C"/>
<path d="M85.1797 30.334C85.1797 29.8783 85.292 29.4372 85.5166 29.0107C85.7412 28.5843 86.0586 28.2588 86.4688 28.0342C86.8822 27.8096 87.3428 27.6973 87.8506 27.6973C88.6351 27.6973 89.278 27.9528 89.7793 28.4639C90.2806 28.9717 90.5312 29.6146 90.5312 30.3926C90.5312 31.1771 90.2773 31.8281 89.7695 32.3457C89.265 32.86 88.6286 33.1172 87.8604 33.1172C87.3851 33.1172 86.931 33.0098 86.498 32.7949C86.0684 32.5801 85.7412 32.266 85.5166 31.8525C85.292 31.4359 85.1797 30.9297 85.1797 30.334ZM86.5859 30.4072C86.5859 30.9215 86.708 31.3154 86.9521 31.5889C87.1963 31.8623 87.4974 31.999 87.8555 31.999C88.2135 31.999 88.513 31.8623 88.7539 31.5889C88.998 31.3154 89.1201 30.9183 89.1201 30.3975C89.1201 29.8896 88.998 29.499 88.7539 29.2256C88.513 28.9521 88.2135 28.8154 87.8555 28.8154C87.4974 28.8154 87.1963 28.9521 86.9521 29.2256C86.708 29.499 86.5859 29.8929 86.5859 30.4072Z" fill="#0C121C"/>
<path d="M91.625 27.8145H94.6279C95.2432 27.8145 95.7038 27.9268 96.0098 28.1514C96.3158 28.376 96.4688 28.7145 96.4688 29.167C96.4688 29.4567 96.3841 29.709 96.2148 29.9238C96.0488 30.1387 95.8389 30.2819 95.585 30.3535C95.943 30.4414 96.21 30.6058 96.3857 30.8467C96.5615 31.0876 96.6494 31.3512 96.6494 31.6377C96.6494 32.0413 96.5013 32.3701 96.2051 32.624C95.9089 32.8747 95.471 33 94.8916 33H91.625V27.8145ZM93.0068 29.9678H93.8906C94.3171 29.9678 94.6247 29.9141 94.8135 29.8066C95.0055 29.6992 95.1016 29.5299 95.1016 29.2988C95.1016 29.0807 95.012 28.9261 94.833 28.835C94.6572 28.7406 94.3431 28.6934 93.8906 28.6934H93.0068V29.9678ZM93.0068 32.1211H94.0908C94.4814 32.1211 94.7663 32.0739 94.9453 31.9795C95.1244 31.8851 95.2139 31.7158 95.2139 31.4717C95.2139 31.2178 95.1113 31.0436 94.9062 30.9492C94.7012 30.8516 94.3024 30.8027 93.71 30.8027H93.0068V32.1211Z" fill="#0C121C"/>
<path d="M100.629 31.3496L101.996 31.5791C101.82 32.0804 101.542 32.4629 101.161 32.7266C100.784 32.987 100.31 33.1172 99.7402 33.1172C98.8385 33.1172 98.1712 32.8226 97.7383 32.2334C97.3965 31.7614 97.2256 31.1657 97.2256 30.4463C97.2256 29.5869 97.4502 28.9147 97.8994 28.4297C98.3486 27.9414 98.9167 27.6973 99.6035 27.6973C100.375 27.6973 100.984 27.9528 101.43 28.4639C101.876 28.9717 102.089 29.7513 102.069 30.8027H98.6318C98.6416 31.2096 98.7523 31.527 98.9639 31.7549C99.1755 31.9795 99.4391 32.0918 99.7549 32.0918C99.9697 32.0918 100.15 32.0332 100.297 31.916C100.443 31.7988 100.554 31.61 100.629 31.3496ZM100.707 29.9629C100.697 29.5658 100.595 29.2646 100.399 29.0596C100.204 28.8512 99.9665 28.7471 99.6865 28.7471C99.387 28.7471 99.1396 28.8561 98.9443 29.0742C98.749 29.2923 98.653 29.5885 98.6562 29.9629H100.707Z" fill="#0C121C"/>
<path d="M107.479 33H103.554V34.3672H102.44V31.877H103.002C103.236 31.6165 103.43 31.2096 103.583 30.6562C103.736 30.1029 103.827 29.1556 103.856 27.8145H108.041V31.877H108.598V34.3672H107.479V33ZM106.684 31.877L106.688 28.9424H105.028C104.973 30.3747 104.745 31.3529 104.345 31.877H106.684Z" fill="#0C121C"/>
<path d="M109.506 27.8145H110.824V31.0713L112.934 27.8145H114.281V33H112.963V29.6846L110.824 33H109.506V27.8145Z" fill="#0C121C"/>
<path d="M118.49 27.8145H121.493C122.108 27.8145 122.569 27.9268 122.875 28.1514C123.181 28.376 123.334 28.7145 123.334 29.167C123.334 29.4567 123.249 29.709 123.08 29.9238C122.914 30.1387 122.704 30.2819 122.45 30.3535C122.808 30.4414 123.075 30.6058 123.251 30.8467C123.427 31.0876 123.515 31.3512 123.515 31.6377C123.515 32.0413 123.367 32.3701 123.07 32.624C122.774 32.8747 122.336 33 121.757 33H118.49V27.8145ZM119.872 29.9678H120.756C121.182 29.9678 121.49 29.9141 121.679 29.8066C121.871 29.6992 121.967 29.5299 121.967 29.2988C121.967 29.0807 121.877 28.9261 121.698 28.835C121.522 28.7406 121.208 28.6934 120.756 28.6934H119.872V29.9678ZM119.872 32.1211H120.956C121.347 32.1211 121.632 32.0739 121.811 31.9795C121.99 31.8851 122.079 31.7158 122.079 31.4717C122.079 31.2178 121.977 31.0436 121.771 30.9492C121.566 30.8516 121.168 30.8027 120.575 30.8027H119.872V32.1211Z" fill="#0C121C"/>
<path d="M131.303 25.6758H132.235C132.206 26.0892 132.097 26.4033 131.908 26.6182C131.723 26.8298 131.262 26.9355 130.526 26.9355C130.438 26.9355 130.351 26.9339 130.263 26.9307H130.087C129.651 26.9307 129.296 26.9795 129.022 27.0771C128.749 27.1715 128.524 27.3571 128.349 27.6338C128.176 27.9105 128.087 28.3564 128.08 28.9717C128.282 28.5908 128.542 28.306 128.861 28.1172C129.184 27.9284 129.566 27.834 130.009 27.834C130.689 27.834 131.265 28.0993 131.737 28.6299C132.209 29.1572 132.445 29.7692 132.445 30.4658C132.445 31.1917 132.196 31.8151 131.698 32.3359C131.203 32.8568 130.556 33.1172 129.755 33.1172C129.205 33.1172 128.721 32.9854 128.305 32.7217C127.888 32.458 127.59 32.0983 127.411 31.6426C127.232 31.1836 127.143 30.4251 127.143 29.3672C127.143 28.1237 127.37 27.2301 127.826 26.6865C128.285 26.1429 129.084 25.8711 130.224 25.8711H130.917C131.109 25.8711 131.238 25.806 131.303 25.6758ZM128.539 30.4463C128.539 30.9183 128.656 31.2926 128.891 31.5693C129.128 31.8428 129.418 31.9795 129.76 31.9795C130.128 31.9795 130.429 31.8379 130.663 31.5547C130.901 31.2682 131.02 30.9004 131.02 30.4512C131.02 29.9922 130.899 29.6227 130.658 29.3428C130.421 29.0596 130.126 28.918 129.774 28.918C129.433 28.918 129.141 29.0563 128.9 29.333C128.66 29.6097 128.539 29.9808 128.539 30.4463Z" fill="#0C121C"/>
<path d="M133.275 30.334C133.275 29.8783 133.388 29.4372 133.612 29.0107C133.837 28.5843 134.154 28.2588 134.564 28.0342C134.978 27.8096 135.438 27.6973 135.946 27.6973C136.731 27.6973 137.374 27.9528 137.875 28.4639C138.376 28.9717 138.627 29.6146 138.627 30.3926C138.627 31.1771 138.373 31.8281 137.865 32.3457C137.361 32.86 136.724 33.1172 135.956 33.1172C135.481 33.1172 135.027 33.0098 134.594 32.7949C134.164 32.5801 133.837 32.266 133.612 31.8525C133.388 31.4359 133.275 30.9297 133.275 30.334ZM134.682 30.4072C134.682 30.9215 134.804 31.3154 135.048 31.5889C135.292 31.8623 135.593 31.999 135.951 31.999C136.309 31.999 136.609 31.8623 136.85 31.5889C137.094 31.3154 137.216 30.9183 137.216 30.3975C137.216 29.8896 137.094 29.499 136.85 29.2256C136.609 28.9521 136.309 28.8154 135.951 28.8154C135.593 28.8154 135.292 28.9521 135.048 29.2256C134.804 29.499 134.682 29.8929 134.682 30.4072Z" fill="#0C121C"/>
<path d="M139.652 27.8145H141.02V29.9336C141.247 29.9076 141.409 29.8376 141.503 29.7236C141.597 29.6097 141.711 29.3607 141.845 28.9766C142.021 28.4655 142.213 28.1383 142.421 27.9951C142.629 27.8519 142.903 27.7803 143.241 27.7803C143.345 27.7803 143.526 27.7884 143.783 27.8047L143.788 28.7129C143.427 28.7129 143.196 28.7471 143.095 28.8154C142.994 28.887 142.885 29.1003 142.768 29.4551C142.608 29.9336 142.379 30.2282 142.079 30.3389C142.512 30.4593 142.878 30.8353 143.178 31.4668C143.194 31.4993 143.212 31.5335 143.231 31.5693L143.998 33H142.523L141.84 31.501C141.7 31.1982 141.578 31.0046 141.474 30.9199C141.373 30.832 141.221 30.7881 141.02 30.7881V33H139.652V27.8145Z" fill="#0C121C"/>
</svg>
