<svg width="306" height="236" viewBox="0 0 306 236" fill="none" xmlns="http://www.w3.org/2000/svg">
<path d="M28.76 155.195H30.935C31.805 155.195 32.45 155.24 32.87 155.33C33.47 155.47 33.92 155.73 34.22 156.11C34.55 156.56 34.715 157.215 34.715 158.075C34.715 158.975 34.535 159.65 34.175 160.1C33.865 160.49 33.385 160.75 32.735 160.88C32.315 160.96 31.63 161 30.68 161H27.2V150.995H33.815V152.375H28.76V155.195ZM32.51 159.44C32.95 159.23 33.17 158.775 33.17 158.075C33.17 157.395 32.95 156.95 32.51 156.74C32.27 156.63 31.825 156.575 31.175 156.575H30.65H28.76V159.605H30.65H31.235C31.835 159.605 32.26 159.55 32.51 159.44ZM39.6043 153.59C40.8143 153.59 41.6943 153.86 42.2443 154.4C42.5543 154.71 42.7693 155.13 42.8893 155.66C42.9693 156.07 43.0093 156.635 43.0093 157.355C43.0093 158.175 42.9543 158.805 42.8443 159.245C42.7243 159.685 42.5243 160.035 42.2443 160.295C41.6943 160.845 40.8143 161.12 39.6043 161.12C38.9443 161.12 38.3993 161.05 37.9693 160.91C37.5593 160.78 37.2193 160.575 36.9493 160.295C36.6393 159.995 36.4243 159.58 36.3043 159.05C36.2243 158.64 36.1843 158.075 36.1843 157.355C36.1843 156.535 36.2393 155.905 36.3493 155.465C36.4693 155.025 36.6693 154.67 36.9493 154.4C37.2293 154.12 37.5793 153.915 37.9993 153.785C38.4293 153.655 38.9643 153.59 39.6043 153.59ZM39.6043 154.91C39.0243 154.91 38.5943 154.995 38.3143 155.165C38.0543 155.325 37.8793 155.59 37.7893 155.96C37.7193 156.24 37.6843 156.705 37.6843 157.355C37.6843 157.995 37.7193 158.455 37.7893 158.735C37.8793 159.105 38.0543 159.37 38.3143 159.53C38.5943 159.7 39.0243 159.785 39.6043 159.785C40.1843 159.785 40.6143 159.7 40.8943 159.53C41.1543 159.37 41.3243 159.105 41.4043 158.735C41.4743 158.455 41.5093 157.995 41.5093 157.355C41.5093 156.705 41.4743 156.235 41.4043 155.945C41.3143 155.575 41.1393 155.315 40.8793 155.165C40.5993 154.995 40.1743 154.91 39.6043 154.91ZM51.4636 161H49.4836L46.2586 157.625V161H44.7586V153.71H46.2586V156.665L49.4986 153.71H51.4336L47.6536 157.115L51.4636 161ZM55.5271 153.59C56.7371 153.59 57.6171 153.86 58.1671 154.4C58.4771 154.71 58.6921 155.13 58.8121 155.66C58.8921 156.07 58.9321 156.635 58.9321 157.355C58.9321 158.175 58.8771 158.805 58.7671 159.245C58.6471 159.685 58.4471 160.035 58.1671 160.295C57.6171 160.845 56.7371 161.12 55.5271 161.12C54.8671 161.12 54.3221 161.05 53.8921 160.91C53.4821 160.78 53.1421 160.575 52.8721 160.295C52.5621 159.995 52.3471 159.58 52.2271 159.05C52.1471 158.64 52.1071 158.075 52.1071 157.355C52.1071 156.535 52.1621 155.905 52.2721 155.465C52.3921 155.025 52.5921 154.67 52.8721 154.4C53.1521 154.12 53.5021 153.915 53.9221 153.785C54.3521 153.655 54.8871 153.59 55.5271 153.59ZM55.5271 154.91C54.9471 154.91 54.5171 154.995 54.2371 155.165C53.9771 155.325 53.8021 155.59 53.7121 155.96C53.6421 156.24 53.6071 156.705 53.6071 157.355C53.6071 157.995 53.6421 158.455 53.7121 158.735C53.8021 159.105 53.9771 159.37 54.2371 159.53C54.5171 159.7 54.9471 159.785 55.5271 159.785C56.1071 159.785 56.5371 159.7 56.8171 159.53C57.0771 159.37 57.2471 159.105 57.3271 158.735C57.3971 158.455 57.4321 157.995 57.4321 157.355C57.4321 156.705 57.3971 156.235 57.3271 155.945C57.2371 155.575 57.0621 155.315 56.8021 155.165C56.5221 154.995 56.0971 154.91 55.5271 154.91ZM66.1864 157.205C66.4464 157.345 66.6314 157.545 66.7414 157.805C66.8614 158.055 66.9214 158.395 66.9214 158.825C66.9214 159.585 66.7364 160.13 66.3664 160.46C66.1064 160.7 65.7964 160.85 65.4364 160.91C65.1164 160.97 64.5714 161 63.8014 161H60.6664V153.68H63.7264C64.4064 153.68 64.8764 153.695 65.1364 153.725C65.4064 153.745 65.6464 153.79 65.8564 153.86C66.5164 154.11 66.8464 154.685 66.8464 155.585C66.8464 156.405 66.6264 156.945 66.1864 157.205ZM65.2564 156.455C65.3964 156.315 65.4664 156.09 65.4664 155.78C65.4664 155.41 65.3664 155.165 65.1664 155.045C64.9864 154.945 64.6614 154.895 64.1914 154.895H62.0614V156.635H63.8914H64.0414C64.4314 156.635 64.7064 156.625 64.8664 156.605C65.0264 156.585 65.1564 156.535 65.2564 156.455ZM62.0614 159.785H63.8764C64.5064 159.785 64.9164 159.745 65.1064 159.665C65.3664 159.565 65.4964 159.28 65.4964 158.81C65.4964 158.45 65.4264 158.205 65.2864 158.075C65.1764 157.975 65.0214 157.91 64.8214 157.88C64.6314 157.85 64.2664 157.835 63.7264 157.835H62.0614V159.785ZM70.1927 156.65H72.3977C72.9577 156.65 73.3877 156.69 73.6877 156.77C73.9877 156.85 74.2327 156.99 74.4227 157.19C74.7527 157.52 74.9177 158.06 74.9177 158.81C74.9177 159.58 74.7477 160.13 74.4077 160.46C74.2477 160.62 74.0677 160.74 73.8677 160.82C73.6677 160.89 73.3927 160.94 73.0427 160.97C72.8227 160.99 72.6477 161 72.5177 161H68.8127V153.74H70.1927V156.65ZM70.1927 159.785H72.0077C72.6577 159.785 73.0677 159.715 73.2377 159.575C73.3877 159.455 73.4627 159.205 73.4627 158.825C73.4627 158.575 73.4377 158.39 73.3877 158.27C73.3477 158.15 73.2677 158.06 73.1477 158C72.9577 157.91 72.5327 157.865 71.8727 157.865H70.1927V159.785ZM77.5877 153.71V161H76.1027V153.71H77.5877ZM85.8354 157.895H80.7654C80.7654 158.385 80.8104 158.76 80.9004 159.02C81.0004 159.31 81.1854 159.525 81.4554 159.665C81.7254 159.795 82.1254 159.86 82.6554 159.86C83.1654 159.86 83.5554 159.795 83.8254 159.665C84.1654 159.505 84.3404 159.23 84.3504 158.84H85.7454C85.7454 159.75 85.3554 160.39 84.5754 160.76C84.0754 161 83.4204 161.12 82.6104 161.12C81.1904 161.12 80.2404 160.735 79.7604 159.965C79.4304 159.435 79.2654 158.59 79.2654 157.43C79.2654 156.59 79.3354 155.925 79.4754 155.435C79.6554 154.835 79.9704 154.385 80.4204 154.085C80.9304 153.755 81.6454 153.59 82.5654 153.59C83.5454 153.59 84.2854 153.775 84.7854 154.145C85.2254 154.475 85.5204 154.98 85.6704 155.66C85.7804 156.14 85.8354 156.885 85.8354 157.895ZM84.3654 156.65C84.3654 156.26 84.3354 155.96 84.2754 155.75C84.2254 155.53 84.1354 155.355 84.0054 155.225C83.7554 154.965 83.2754 154.835 82.5654 154.835C81.8954 154.835 81.4304 154.97 81.1704 155.24C80.9104 155.5 80.7804 155.97 80.7804 156.65H84.3654ZM96.6552 157.205C96.9152 157.345 97.1002 157.545 97.2102 157.805C97.3302 158.055 97.3902 158.395 97.3902 158.825C97.3902 159.585 97.2052 160.13 96.8352 160.46C96.5752 160.7 96.2652 160.85 95.9052 160.91C95.5852 160.97 95.0402 161 94.2702 161H91.1352V153.68H94.1952C94.8752 153.68 95.3452 153.695 95.6052 153.725C95.8752 153.745 96.1152 153.79 96.3252 153.86C96.9852 154.11 97.3152 154.685 97.3152 155.585C97.3152 156.405 97.0952 156.945 96.6552 157.205ZM95.7252 156.455C95.8652 156.315 95.9352 156.09 95.9352 155.78C95.9352 155.41 95.8352 155.165 95.6352 155.045C95.4552 154.945 95.1302 154.895 94.6602 154.895H92.5302V156.635H94.3602H94.5102C94.9002 156.635 95.1752 156.625 95.3352 156.605C95.4952 156.585 95.6252 156.535 95.7252 156.455ZM92.5302 159.785H94.3452C94.9752 159.785 95.3852 159.745 95.5752 159.665C95.8352 159.565 95.9652 159.28 95.9652 158.81C95.9652 158.45 95.8952 158.205 95.7552 158.075C95.6452 157.975 95.4902 157.91 95.2902 157.88C95.1002 157.85 94.7352 157.835 94.1952 157.835H92.5302V159.785ZM102.431 153.59C103.641 153.59 104.521 153.86 105.071 154.4C105.381 154.71 105.596 155.13 105.716 155.66C105.796 156.07 105.836 156.635 105.836 157.355C105.836 158.175 105.781 158.805 105.671 159.245C105.551 159.685 105.351 160.035 105.071 160.295C104.521 160.845 103.641 161.12 102.431 161.12C101.771 161.12 101.226 161.05 100.796 160.91C100.386 160.78 100.046 160.575 99.7764 160.295C99.4664 159.995 99.2514 159.58 99.1314 159.05C99.0514 158.64 99.0114 158.075 99.0114 157.355C99.0114 156.535 99.0664 155.905 99.1764 155.465C99.2964 155.025 99.4964 154.67 99.7764 154.4C100.056 154.12 100.406 153.915 100.826 153.785C101.256 153.655 101.791 153.59 102.431 153.59ZM102.431 154.91C101.851 154.91 101.421 154.995 101.141 155.165C100.881 155.325 100.706 155.59 100.616 155.96C100.546 156.24 100.511 156.705 100.511 157.355C100.511 157.995 100.546 158.455 100.616 158.735C100.706 159.105 100.881 159.37 101.141 159.53C101.421 159.7 101.851 159.785 102.431 159.785C103.011 159.785 103.441 159.7 103.721 159.53C103.981 159.37 104.151 159.105 104.231 158.735C104.301 158.455 104.336 157.995 104.336 157.355C104.336 156.705 104.301 156.235 104.231 155.945C104.141 155.575 103.966 155.315 103.706 155.165C103.426 154.995 103.001 154.91 102.431 154.91ZM112.926 157.19C113.256 157.32 113.491 157.515 113.631 157.775C113.771 158.025 113.841 158.395 113.841 158.885C113.841 159.735 113.501 160.34 112.821 160.7C112.281 160.98 111.491 161.12 110.451 161.12C109.441 161.12 108.681 160.95 108.171 160.61C107.601 160.24 107.316 159.65 107.316 158.84H108.726C108.726 159.27 108.946 159.55 109.386 159.68C109.626 159.76 110.001 159.8 110.511 159.8C111.251 159.8 111.756 159.725 112.026 159.575C112.286 159.435 112.416 159.185 112.416 158.825C112.416 158.545 112.371 158.34 112.281 158.21C112.181 158.08 112.011 157.99 111.771 157.94C111.531 157.89 111.131 157.865 110.571 157.865H109.761V156.605H110.571C111.261 156.605 111.721 156.545 111.951 156.425C112.201 156.295 112.326 156.07 112.326 155.75C112.326 155.41 112.186 155.185 111.906 155.075C111.646 154.975 111.176 154.925 110.496 154.925C109.916 154.925 109.501 154.975 109.251 155.075C108.901 155.225 108.726 155.485 108.726 155.855H107.316C107.316 154.955 107.676 154.325 108.396 153.965C108.896 153.715 109.581 153.59 110.451 153.59C111.671 153.59 112.531 153.76 113.031 154.1C113.511 154.42 113.751 154.925 113.751 155.615C113.751 155.995 113.691 156.305 113.571 156.545C113.441 156.815 113.226 157.03 112.926 157.19ZM122.588 162.755H121.193V160.955H116.108V162.755H114.698V159.68C115.088 159.68 115.393 159.57 115.613 159.35C115.793 159.16 115.928 158.88 116.018 158.51L117.158 153.71H121.718V159.68H122.588V162.755ZM120.233 159.68V155H118.343L117.518 158.465C117.368 159.135 117.153 159.54 116.873 159.68H120.233ZM130.202 153.71L126.317 163.85H124.772L125.957 160.865L123.212 153.71H124.787L126.737 159.185L128.627 153.71H130.202ZM137.944 161H136.174L134.284 158.27L132.349 161H130.654L133.414 157.28L130.759 153.71H132.529L134.314 156.29L136.159 153.71H137.869L135.184 157.265L137.944 161ZM142.261 153.59C143.471 153.59 144.351 153.86 144.901 154.4C145.211 154.71 145.426 155.13 145.546 155.66C145.626 156.07 145.666 156.635 145.666 157.355C145.666 158.175 145.611 158.805 145.501 159.245C145.381 159.685 145.181 160.035 144.901 160.295C144.351 160.845 143.471 161.12 142.261 161.12C141.601 161.12 141.056 161.05 140.626 160.91C140.216 160.78 139.876 160.575 139.606 160.295C139.296 159.995 139.081 159.58 138.961 159.05C138.881 158.64 138.841 158.075 138.841 157.355C138.841 156.535 138.896 155.905 139.006 155.465C139.126 155.025 139.326 154.67 139.606 154.4C139.886 154.12 140.236 153.915 140.656 153.785C141.086 153.655 141.621 153.59 142.261 153.59ZM142.261 154.91C141.681 154.91 141.251 154.995 140.971 155.165C140.711 155.325 140.536 155.59 140.446 155.96C140.376 156.24 140.341 156.705 140.341 157.355C140.341 157.995 140.376 158.455 140.446 158.735C140.536 159.105 140.711 159.37 140.971 159.53C141.251 159.7 141.681 159.785 142.261 159.785C142.841 159.785 143.271 159.7 143.551 159.53C143.811 159.37 143.981 159.105 144.061 158.735C144.131 158.455 144.166 157.995 144.166 157.355C144.166 156.705 144.131 156.235 144.061 155.945C143.971 155.575 143.796 155.315 143.536 155.165C143.256 154.995 142.831 154.91 142.261 154.91ZM152.755 157.19C153.085 157.32 153.32 157.515 153.46 157.775C153.6 158.025 153.67 158.395 153.67 158.885C153.67 159.735 153.33 160.34 152.65 160.7C152.11 160.98 151.32 161.12 150.28 161.12C149.27 161.12 148.51 160.95 148 160.61C147.43 160.24 147.145 159.65 147.145 158.84H148.555C148.555 159.27 148.775 159.55 149.215 159.68C149.455 159.76 149.83 159.8 150.34 159.8C151.08 159.8 151.585 159.725 151.855 159.575C152.115 159.435 152.245 159.185 152.245 158.825C152.245 158.545 152.2 158.34 152.11 158.21C152.01 158.08 151.84 157.99 151.6 157.94C151.36 157.89 150.96 157.865 150.4 157.865H149.59V156.605H150.4C151.09 156.605 151.55 156.545 151.78 156.425C152.03 156.295 152.155 156.07 152.155 155.75C152.155 155.41 152.015 155.185 151.735 155.075C151.475 154.975 151.005 154.925 150.325 154.925C149.745 154.925 149.33 154.975 149.08 155.075C148.73 155.225 148.555 155.485 148.555 155.855H147.145C147.145 154.955 147.505 154.325 148.225 153.965C148.725 153.715 149.41 153.59 150.28 153.59C151.5 153.59 152.36 153.76 152.86 154.1C153.34 154.42 153.58 154.925 153.58 155.615C153.58 155.995 153.52 156.305 153.4 156.545C153.27 156.815 153.055 157.03 152.755 157.19ZM161.623 161H160.288V160.34C160.048 160.59 159.723 160.785 159.313 160.925C158.903 161.055 158.443 161.12 157.933 161.12C156.933 161.12 156.208 160.925 155.758 160.535C155.318 160.165 155.098 159.59 155.098 158.81C155.098 157.81 155.453 157.14 156.163 156.8C156.603 156.58 157.268 156.47 158.158 156.47H160.168C160.168 156.07 160.153 155.785 160.123 155.615C160.093 155.445 160.023 155.31 159.913 155.21C159.693 154.98 159.218 154.865 158.488 154.865C157.928 154.865 157.523 154.92 157.273 155.03C156.923 155.17 156.748 155.43 156.748 155.81H155.308C155.308 154.92 155.678 154.3 156.417 153.95C156.928 153.71 157.648 153.59 158.578 153.59C159.808 153.59 160.658 153.895 161.128 154.505C161.458 154.935 161.623 155.56 161.623 156.38V161ZM160.198 157.7H158.098C157.498 157.7 157.098 157.78 156.898 157.94C156.698 158.1 156.598 158.385 156.598 158.795C156.598 159.195 156.718 159.475 156.958 159.635C157.198 159.795 157.588 159.875 158.128 159.875C159.068 159.875 159.668 159.67 159.928 159.26C160.108 158.98 160.198 158.46 160.198 157.7ZM164.893 154.235C165.373 153.775 166.103 153.55 167.083 153.56C167.843 153.57 168.428 153.69 168.838 153.92C169.268 154.16 169.578 154.555 169.768 155.105C169.948 155.635 170.038 156.375 170.038 157.325C170.038 158.145 169.983 158.775 169.873 159.215C169.763 159.655 169.573 160.015 169.303 160.295C168.783 160.845 167.938 161.12 166.768 161.12C165.598 161.12 164.753 160.855 164.233 160.325C163.943 160.035 163.743 159.68 163.633 159.26C163.533 158.84 163.483 158.21 163.483 157.37V154.505C163.483 153.895 163.538 153.405 163.648 153.035C163.758 152.655 163.938 152.335 164.188 152.075C164.428 151.835 164.718 151.65 165.058 151.52C165.408 151.39 165.848 151.3 166.378 151.25L166.663 151.22C167.223 151.17 167.593 151.1 167.773 151.01C167.953 150.91 168.048 150.74 168.058 150.5H169.438C169.438 150.88 169.403 151.175 169.333 151.385C169.263 151.595 169.138 151.78 168.958 151.94C168.788 152.1 168.568 152.22 168.298 152.3C168.028 152.38 167.623 152.445 167.083 152.495C166.533 152.545 166.148 152.605 165.928 152.675C165.708 152.735 165.488 152.86 165.268 153.05C165.158 153.18 165.083 153.3 165.043 153.41C165.003 153.51 164.963 153.685 164.923 153.935C164.913 154.045 164.903 154.145 164.893 154.235ZM168.628 157.34C168.628 156.67 168.583 156.17 168.493 155.84C168.393 155.49 168.228 155.245 167.998 155.105C167.768 154.965 167.413 154.89 166.933 154.88C166.383 154.87 165.973 154.93 165.703 155.06C165.413 155.2 165.203 155.445 165.073 155.795C164.953 156.145 164.888 156.67 164.878 157.37C164.878 157.47 164.878 157.54 164.878 157.58C164.878 158.2 164.928 158.665 165.028 158.975C165.138 159.295 165.318 159.52 165.568 159.65C165.828 159.77 166.223 159.83 166.753 159.83C167.293 159.83 167.683 159.77 167.923 159.65C168.193 159.51 168.378 159.275 168.478 158.945C168.578 158.615 168.628 158.08 168.628 157.34ZM175.058 153.59C176.268 153.59 177.148 153.86 177.698 154.4C178.008 154.71 178.223 155.13 178.343 155.66C178.423 156.07 178.463 156.635 178.463 157.355C178.463 158.175 178.408 158.805 178.298 159.245C178.178 159.685 177.978 160.035 177.698 160.295C177.148 160.845 176.268 161.12 175.058 161.12C174.398 161.12 173.853 161.05 173.423 160.91C173.013 160.78 172.673 160.575 172.403 160.295C172.093 159.995 171.878 159.58 171.758 159.05C171.678 158.64 171.638 158.075 171.638 157.355C171.638 156.535 171.693 155.905 171.803 155.465C171.923 155.025 172.123 154.67 172.403 154.4C172.683 154.12 173.033 153.915 173.453 153.785C173.883 153.655 174.418 153.59 175.058 153.59ZM175.058 154.91C174.478 154.91 174.048 154.995 173.768 155.165C173.508 155.325 173.333 155.59 173.243 155.96C173.173 156.24 173.138 156.705 173.138 157.355C173.138 157.995 173.173 158.455 173.243 158.735C173.333 159.105 173.508 159.37 173.768 159.53C174.048 159.7 174.478 159.785 175.058 159.785C175.638 159.785 176.068 159.7 176.348 159.53C176.608 159.37 176.778 159.105 176.858 158.735C176.928 158.455 176.963 157.995 176.963 157.355C176.963 156.705 176.928 156.235 176.858 155.945C176.768 155.575 176.593 155.315 176.333 155.165C176.053 154.995 175.628 154.91 175.058 154.91ZM181.578 154.355C182.118 153.835 182.888 153.58 183.888 153.59C184.728 153.6 185.373 153.76 185.823 154.07C186.233 154.35 186.513 154.785 186.663 155.375C186.783 155.835 186.843 156.5 186.843 157.37C186.843 158.11 186.783 158.705 186.663 159.155C186.503 159.765 186.218 160.23 185.808 160.55C185.318 160.93 184.628 161.12 183.738 161.12C183.258 161.12 182.853 161.065 182.523 160.955C182.203 160.835 181.928 160.645 181.698 160.385V163.865H180.213V153.71H181.578V154.355ZM183.708 154.94C183.168 154.94 182.763 155.005 182.493 155.135C182.203 155.275 181.998 155.515 181.878 155.855C181.758 156.195 181.698 156.695 181.698 157.355C181.698 158.015 181.758 158.515 181.878 158.855C181.998 159.195 182.193 159.435 182.463 159.575C182.743 159.715 183.158 159.785 183.708 159.785C184.168 159.785 184.518 159.705 184.758 159.545C184.978 159.395 185.133 159.16 185.223 158.84C185.313 158.51 185.358 158.015 185.358 157.355C185.358 156.385 185.238 155.74 184.998 155.42C184.768 155.1 184.338 154.94 183.708 154.94ZM194.876 161H193.391V157.895H190.091V161H188.606V153.71H190.091V156.59H193.391V153.71H194.876V161ZM203.153 161H201.773V155.795L198.428 161H196.883V153.71H198.278V158.9L201.623 153.71H203.153V161ZM211.849 161H209.869L206.644 157.625V161H205.144V153.71H206.644V156.665L209.884 153.71H211.819L208.039 157.115L211.849 161ZM219.164 161H217.784V155.795L214.439 161H212.894V153.71H214.289V158.9L217.634 153.71H219.164V161ZM230.985 161H229.5V155H226.2V161H224.715V153.71H230.985V161ZM236.186 153.59C237.396 153.59 238.276 153.86 238.826 154.4C239.136 154.71 239.351 155.13 239.471 155.66C239.551 156.07 239.591 156.635 239.591 157.355C239.591 158.175 239.536 158.805 239.426 159.245C239.306 159.685 239.106 160.035 238.826 160.295C238.276 160.845 237.396 161.12 236.186 161.12C235.526 161.12 234.981 161.05 234.551 160.91C234.141 160.78 233.801 160.575 233.531 160.295C233.221 159.995 233.006 159.58 232.886 159.05C232.806 158.64 232.766 158.075 232.766 157.355C232.766 156.535 232.821 155.905 232.931 155.465C233.051 155.025 233.251 154.67 233.531 154.4C233.811 154.12 234.161 153.915 234.581 153.785C235.011 153.655 235.546 153.59 236.186 153.59ZM236.186 154.91C235.606 154.91 235.176 154.995 234.896 155.165C234.636 155.325 234.461 155.59 234.371 155.96C234.301 156.24 234.266 156.705 234.266 157.355C234.266 157.995 234.301 158.455 234.371 158.735C234.461 159.105 234.636 159.37 234.896 159.53C235.176 159.7 235.606 159.785 236.186 159.785C236.766 159.785 237.196 159.7 237.476 159.53C237.736 159.37 237.906 159.105 237.986 158.735C238.056 158.455 238.091 157.995 238.091 157.355C238.091 156.705 238.056 156.235 237.986 155.945C237.896 155.575 237.721 155.315 237.461 155.165C237.181 154.995 236.756 154.91 236.186 154.91ZM246.681 157.19C247.011 157.32 247.246 157.515 247.386 157.775C247.526 158.025 247.596 158.395 247.596 158.885C247.596 159.735 247.256 160.34 246.576 160.7C246.036 160.98 245.246 161.12 244.206 161.12C243.196 161.12 242.436 160.95 241.926 160.61C241.356 160.24 241.071 159.65 241.071 158.84H242.481C242.481 159.27 242.701 159.55 243.141 159.68C243.381 159.76 243.756 159.8 244.266 159.8C245.006 159.8 245.511 159.725 245.781 159.575C246.041 159.435 246.171 159.185 246.171 158.825C246.171 158.545 246.126 158.34 246.036 158.21C245.936 158.08 245.766 157.99 245.526 157.94C245.286 157.89 244.886 157.865 244.326 157.865H243.516V156.605H244.326C245.016 156.605 245.476 156.545 245.706 156.425C245.956 156.295 246.081 156.07 246.081 155.75C246.081 155.41 245.941 155.185 245.661 155.075C245.401 154.975 244.931 154.925 244.251 154.925C243.671 154.925 243.256 154.975 243.006 155.075C242.656 155.225 242.481 155.485 242.481 155.855H241.071C241.071 154.955 241.431 154.325 242.151 153.965C242.651 153.715 243.336 153.59 244.206 153.59C245.426 153.59 246.286 153.76 246.786 154.1C247.266 154.42 247.506 154.925 247.506 155.615C247.506 155.995 247.446 156.305 247.326 156.545C247.196 156.815 246.981 157.03 246.681 157.19ZM254.858 157.205C255.118 157.345 255.303 157.545 255.413 157.805C255.533 158.055 255.593 158.395 255.593 158.825C255.593 159.585 255.408 160.13 255.038 160.46C254.778 160.7 254.468 160.85 254.108 160.91C253.788 160.97 253.243 161 252.473 161H249.338V153.68H252.398C253.078 153.68 253.548 153.695 253.808 153.725C254.078 153.745 254.318 153.79 254.528 153.86C255.188 154.11 255.518 154.685 255.518 155.585C255.518 156.405 255.298 156.945 254.858 157.205ZM253.928 156.455C254.068 156.315 254.138 156.09 254.138 155.78C254.138 155.41 254.038 155.165 253.838 155.045C253.658 154.945 253.333 154.895 252.863 154.895H250.733V156.635H252.563H252.713C253.103 156.635 253.378 156.625 253.538 156.605C253.698 156.585 253.828 156.535 253.928 156.455ZM250.733 159.785H252.548C253.178 159.785 253.588 159.745 253.778 159.665C254.038 159.565 254.168 159.28 254.168 158.81C254.168 158.45 254.098 158.205 253.958 158.075C253.848 157.975 253.693 157.91 253.493 157.88C253.303 157.85 252.938 157.835 252.398 157.835H250.733V159.785ZM260.635 153.59C261.845 153.59 262.725 153.86 263.275 154.4C263.585 154.71 263.8 155.13 263.92 155.66C264 156.07 264.04 156.635 264.04 157.355C264.04 158.175 263.985 158.805 263.875 159.245C263.755 159.685 263.555 160.035 263.275 160.295C262.725 160.845 261.845 161.12 260.635 161.12C259.975 161.12 259.43 161.05 259 160.91C258.59 160.78 258.25 160.575 257.98 160.295C257.67 159.995 257.455 159.58 257.335 159.05C257.255 158.64 257.215 158.075 257.215 157.355C257.215 156.535 257.27 155.905 257.38 155.465C257.5 155.025 257.7 154.67 257.98 154.4C258.26 154.12 258.61 153.915 259.03 153.785C259.46 153.655 259.995 153.59 260.635 153.59ZM260.635 154.91C260.055 154.91 259.625 154.995 259.345 155.165C259.085 155.325 258.91 155.59 258.82 155.96C258.75 156.24 258.715 156.705 258.715 157.355C258.715 157.995 258.75 158.455 258.82 158.735C258.91 159.105 259.085 159.37 259.345 159.53C259.625 159.7 260.055 159.785 260.635 159.785C261.215 159.785 261.645 159.7 261.925 159.53C262.185 159.37 262.355 159.105 262.435 158.735C262.505 158.455 262.54 157.995 262.54 157.355C262.54 156.705 262.505 156.235 262.435 155.945C262.345 155.575 262.17 155.315 261.91 155.165C261.63 154.995 261.205 154.91 260.635 154.91ZM271.909 161H270.424V155H268.519L267.589 158.975C267.479 159.425 267.364 159.77 267.244 160.01C267.124 160.25 266.974 160.45 266.794 160.61C266.394 160.95 265.759 161.12 264.889 161.12V159.755C265.269 159.755 265.549 159.675 265.729 159.515C265.919 159.345 266.069 159.04 266.179 158.6L267.334 153.71H271.909V161ZM280.039 161H278.554V158.075H278.104C277.784 158.075 277.559 158.09 277.429 158.12C277.309 158.14 277.199 158.185 277.099 158.255C276.949 158.355 276.714 158.645 276.394 159.125L275.134 161H273.409L275.509 157.97C274.919 157.92 274.489 157.72 274.219 157.37C273.949 157.04 273.814 156.545 273.814 155.885C273.814 154.915 274.109 154.285 274.699 153.995C275.069 153.805 275.714 153.71 276.634 153.71H280.039V161ZM278.554 156.83V154.985H276.994C276.524 154.985 276.194 154.995 276.004 155.015C275.824 155.035 275.679 155.075 275.569 155.135C275.369 155.255 275.269 155.52 275.269 155.93C275.269 156.24 275.334 156.46 275.464 156.59C275.604 156.71 275.849 156.775 276.199 156.785L276.859 156.83H278.554ZM285.094 156.59C285.114 156.05 285.179 155.61 285.289 155.27C285.409 154.93 285.589 154.64 285.829 154.4C286.119 154.12 286.474 153.915 286.894 153.785C287.324 153.655 287.854 153.59 288.484 153.59C289.694 153.59 290.579 153.86 291.139 154.4C291.449 154.71 291.659 155.13 291.769 155.66C291.849 156.07 291.889 156.635 291.889 157.355C291.889 158.175 291.834 158.8 291.724 159.23C291.604 159.68 291.409 160.035 291.139 160.295C290.579 160.845 289.694 161.12 288.484 161.12C287.834 161.12 287.289 161.05 286.849 160.91C286.449 160.78 286.109 160.575 285.829 160.295C285.589 160.055 285.409 159.75 285.289 159.38C285.169 159 285.104 158.505 285.094 157.895H283.504V161H282.019V153.71H283.504V156.59H285.094ZM288.484 154.91C287.904 154.91 287.474 154.995 287.194 155.165C286.934 155.325 286.759 155.59 286.669 155.96C286.599 156.24 286.564 156.7 286.564 157.34C286.564 157.99 286.599 158.455 286.669 158.735C286.759 159.105 286.934 159.37 287.194 159.53C287.474 159.7 287.904 159.785 288.484 159.785C289.064 159.785 289.494 159.7 289.774 159.53C290.044 159.37 290.219 159.105 290.299 158.735C290.369 158.455 290.404 157.99 290.404 157.34C290.404 156.7 290.369 156.235 290.299 155.945C290.209 155.575 290.034 155.315 289.774 155.165C289.494 154.995 289.064 154.91 288.484 154.91ZM299.247 155H296.727V161H295.242V155H292.722V153.71H299.247V155ZM27.2 168.995H30.86C31.87 168.995 32.645 169.1 33.185 169.31C33.705 169.52 34.12 169.86 34.43 170.33C34.7 170.73 34.875 171.225 34.955 171.815C35.035 172.315 35.075 173.045 35.075 174.005C35.075 175.055 35.03 175.835 34.94 176.345C34.85 176.855 34.685 177.295 34.445 177.665C34.085 178.205 33.595 178.57 32.975 178.76C32.465 178.92 31.76 179 30.86 179H27.2V168.995ZM28.73 177.59H30.77C31.62 177.59 32.235 177.485 32.615 177.275C32.995 177.065 33.25 176.695 33.38 176.165C33.48 175.745 33.53 175.025 33.53 174.005C33.53 172.965 33.475 172.225 33.365 171.785C33.225 171.255 32.96 170.89 32.57 170.69C32.19 170.49 31.59 170.39 30.77 170.39H28.73V177.59ZM43.4428 175.895H38.3728C38.3728 176.385 38.4178 176.76 38.5078 177.02C38.6078 177.31 38.7928 177.525 39.0628 177.665C39.3328 177.795 39.7328 177.86 40.2628 177.86C40.7728 177.86 41.1628 177.795 41.4328 177.665C41.7728 177.505 41.9478 177.23 41.9578 176.84H43.3528C43.3528 177.75 42.9628 178.39 42.1828 178.76C41.6828 179 41.0278 179.12 40.2178 179.12C38.7978 179.12 37.8478 178.735 37.3678 177.965C37.0378 177.435 36.8728 176.59 36.8728 175.43C36.8728 174.59 36.9428 173.925 37.0828 173.435C37.2628 172.835 37.5778 172.385 38.0278 172.085C38.5378 171.755 39.2528 171.59 40.1728 171.59C41.1528 171.59 41.8928 171.775 42.3928 172.145C42.8328 172.475 43.1278 172.98 43.2778 173.66C43.3878 174.14 43.4428 174.885 43.4428 175.895ZM41.9728 174.65C41.9728 174.26 41.9428 173.96 41.8828 173.75C41.8328 173.53 41.7428 173.355 41.6128 173.225C41.3628 172.965 40.8828 172.835 40.1728 172.835C39.5028 172.835 39.0378 172.97 38.7778 173.24C38.5178 173.5 38.3878 173.97 38.3878 174.65H41.9728ZM48.963 168.425V169.685H48.333C47.833 169.685 47.503 169.78 47.343 169.97C47.193 170.16 47.118 170.555 47.118 171.155V171.71H48.963V172.955H47.118V179H45.633V172.955H44.463V171.71H45.633V170.735C45.633 169.715 45.963 169.04 46.623 168.71C47.003 168.52 47.558 168.425 48.288 168.425H48.963ZM55.9672 175.895H50.8972C50.8972 176.385 50.9422 176.76 51.0322 177.02C51.1322 177.31 51.3172 177.525 51.5872 177.665C51.8572 177.795 52.2572 177.86 52.7872 177.86C53.2972 177.86 53.6872 177.795 53.9572 177.665C54.2972 177.505 54.4722 177.23 54.4822 176.84H55.8772C55.8772 177.75 55.4872 178.39 54.7072 178.76C54.2072 179 53.5522 179.12 52.7422 179.12C51.3222 179.12 50.3722 178.735 49.8922 177.965C49.5622 177.435 49.3972 176.59 49.3972 175.43C49.3972 174.59 49.4672 173.925 49.6072 173.435C49.7872 172.835 50.1022 172.385 50.5522 172.085C51.0622 171.755 51.7772 171.59 52.6972 171.59C53.6772 171.59 54.4172 171.775 54.9172 172.145C55.3572 172.475 55.6522 172.98 55.8022 173.66C55.9122 174.14 55.9672 174.885 55.9672 175.895ZM54.4972 174.65C54.4972 174.26 54.4672 173.96 54.4072 173.75C54.3572 173.53 54.2672 173.355 54.1372 173.225C53.8872 172.965 53.4072 172.835 52.6972 172.835C52.0272 172.835 51.5622 172.97 51.3022 173.24C51.0422 173.5 50.9122 173.97 50.9122 174.65H54.4972ZM63.9924 179H62.5074V175.16V174.53C62.5074 174.17 62.4874 173.9 62.4474 173.72C62.4074 173.54 62.3374 173.39 62.2374 173.27C62.0374 173.04 61.6374 172.925 61.0374 172.925C60.1374 172.925 59.5774 173.235 59.3574 173.855C59.2874 174.045 59.2424 174.24 59.2224 174.44C59.2124 174.64 59.2074 175.035 59.2074 175.625V179H57.7224V171.71H59.0424V172.355C59.5524 171.845 60.2724 171.59 61.2024 171.59C62.4524 171.59 63.2724 171.935 63.6624 172.625C63.7824 172.845 63.8674 173.1 63.9174 173.39C63.9674 173.67 63.9924 174.05 63.9924 174.53V175.01V179ZM72.3163 179H70.9513V178.34C70.7113 178.59 70.3913 178.785 69.9913 178.925C69.6013 179.055 69.1663 179.12 68.6863 179.12C67.3363 179.12 66.4513 178.68 66.0313 177.8C65.9013 177.53 65.8113 177.215 65.7613 176.855C65.7113 176.485 65.6863 175.985 65.6863 175.355C65.6863 174.545 65.7463 173.905 65.8663 173.435C66.0263 172.835 66.3063 172.385 66.7063 172.085C67.1463 171.755 67.7663 171.59 68.5663 171.59C69.6263 171.59 70.3813 171.83 70.8313 172.31V168.545H72.3163V179ZM68.8363 172.97C68.3763 172.97 68.0263 173.05 67.7863 173.21C67.5663 173.35 67.4113 173.585 67.3213 173.915C67.2313 174.235 67.1863 174.72 67.1863 175.37C67.1863 176.34 67.3063 176.985 67.5463 177.305C67.7763 177.615 68.2063 177.77 68.8363 177.77C69.3663 177.77 69.7663 177.705 70.0363 177.575C70.3363 177.445 70.5463 177.21 70.6663 176.87C70.7863 176.53 70.8463 176.03 70.8463 175.37C70.8463 174.71 70.7863 174.215 70.6663 173.885C70.5463 173.545 70.3463 173.31 70.0663 173.18C69.7963 173.04 69.3863 172.97 68.8363 172.97ZM80.6498 175.895H75.5798C75.5798 176.385 75.6248 176.76 75.7148 177.02C75.8148 177.31 75.9998 177.525 76.2698 177.665C76.5398 177.795 76.9398 177.86 77.4698 177.86C77.9798 177.86 78.3698 177.795 78.6398 177.665C78.9798 177.505 79.1548 177.23 79.1648 176.84H80.5598C80.5598 177.75 80.1698 178.39 79.3898 178.76C78.8898 179 78.2348 179.12 77.4248 179.12C76.0048 179.12 75.0548 178.735 74.5748 177.965C74.2448 177.435 74.0798 176.59 74.0798 175.43C74.0798 174.59 74.1498 173.925 74.2898 173.435C74.4698 172.835 74.7848 172.385 75.2348 172.085C75.7448 171.755 76.4598 171.59 77.3798 171.59C78.3598 171.59 79.0998 171.775 79.5998 172.145C80.0398 172.475 80.3348 172.98 80.4848 173.66C80.5948 174.14 80.6498 174.885 80.6498 175.895ZM79.1798 174.65C79.1798 174.26 79.1498 173.96 79.0898 173.75C79.0398 173.53 78.9498 173.355 78.8198 173.225C78.5698 172.965 78.0898 172.835 77.3798 172.835C76.7098 172.835 76.2448 172.97 75.9848 173.24C75.7248 173.5 75.5948 173.97 75.5948 174.65H79.1798ZM88.105 173.84H86.68C86.68 173.46 86.575 173.205 86.365 173.075C86.195 172.965 85.91 172.91 85.51 172.91C85.02 172.91 84.655 173.025 84.415 173.255C84.215 173.445 84.075 173.725 83.995 174.095C83.925 174.465 83.89 175.045 83.89 175.835V179H82.405V171.71H83.74V172.385C84.22 171.855 84.9 171.59 85.78 171.59C86.61 171.59 87.215 171.795 87.595 172.205C87.935 172.575 88.105 173.12 88.105 173.84ZM99.0901 179H97.6051V173H94.3051V179H92.8201V171.71H99.0901V179ZM102.447 172.355C102.987 171.835 103.757 171.58 104.757 171.59C105.597 171.6 106.242 171.76 106.692 172.07C107.102 172.35 107.382 172.785 107.532 173.375C107.652 173.835 107.712 174.5 107.712 175.37C107.712 176.11 107.652 176.705 107.532 177.155C107.372 177.765 107.087 178.23 106.677 178.55C106.187 178.93 105.497 179.12 104.607 179.12C104.127 179.12 103.722 179.065 103.392 178.955C103.072 178.835 102.797 178.645 102.567 178.385V181.865H101.082V171.71H102.447V172.355ZM104.577 172.94C104.037 172.94 103.632 173.005 103.362 173.135C103.072 173.275 102.867 173.515 102.747 173.855C102.627 174.195 102.567 174.695 102.567 175.355C102.567 176.015 102.627 176.515 102.747 176.855C102.867 177.195 103.062 177.435 103.332 177.575C103.612 177.715 104.027 177.785 104.577 177.785C105.037 177.785 105.387 177.705 105.627 177.545C105.847 177.395 106.002 177.16 106.092 176.84C106.182 176.51 106.227 176.015 106.227 175.355C106.227 174.385 106.107 173.74 105.867 173.42C105.637 173.1 105.207 172.94 104.577 172.94ZM115.835 175.895H110.765C110.765 176.385 110.81 176.76 110.9 177.02C111 177.31 111.185 177.525 111.455 177.665C111.725 177.795 112.125 177.86 112.655 177.86C113.165 177.86 113.555 177.795 113.825 177.665C114.165 177.505 114.34 177.23 114.35 176.84H115.745C115.745 177.75 115.355 178.39 114.575 178.76C114.075 179 113.42 179.12 112.61 179.12C111.19 179.12 110.24 178.735 109.76 177.965C109.43 177.435 109.265 176.59 109.265 175.43C109.265 174.59 109.335 173.925 109.475 173.435C109.655 172.835 109.97 172.385 110.42 172.085C110.93 171.755 111.645 171.59 112.565 171.59C113.545 171.59 114.285 171.775 114.785 172.145C115.225 172.475 115.52 172.98 115.67 173.66C115.78 174.14 115.835 174.885 115.835 175.895ZM114.365 174.65C114.365 174.26 114.335 173.96 114.275 173.75C114.225 173.53 114.135 173.355 114.005 173.225C113.755 172.965 113.275 172.835 112.565 172.835C111.895 172.835 111.43 172.97 111.17 173.24C110.91 173.5 110.78 173.97 110.78 174.65H114.365ZM120.801 171.59C122.011 171.59 122.891 171.86 123.441 172.4C123.751 172.71 123.966 173.13 124.086 173.66C124.166 174.07 124.206 174.635 124.206 175.355C124.206 176.175 124.151 176.805 124.041 177.245C123.921 177.685 123.721 178.035 123.441 178.295C122.891 178.845 122.011 179.12 120.801 179.12C120.141 179.12 119.596 179.05 119.166 178.91C118.756 178.78 118.416 178.575 118.146 178.295C117.836 177.995 117.621 177.58 117.501 177.05C117.421 176.64 117.381 176.075 117.381 175.355C117.381 174.535 117.436 173.905 117.546 173.465C117.666 173.025 117.866 172.67 118.146 172.4C118.426 172.12 118.776 171.915 119.196 171.785C119.626 171.655 120.161 171.59 120.801 171.59ZM120.801 172.91C120.221 172.91 119.791 172.995 119.511 173.165C119.251 173.325 119.076 173.59 118.986 173.96C118.916 174.24 118.881 174.705 118.881 175.355C118.881 175.995 118.916 176.455 118.986 176.735C119.076 177.105 119.251 177.37 119.511 177.53C119.791 177.7 120.221 177.785 120.801 177.785C121.381 177.785 121.811 177.7 122.091 177.53C122.351 177.37 122.521 177.105 122.601 176.735C122.671 176.455 122.706 175.995 122.706 175.355C122.706 174.705 122.671 174.235 122.601 173.945C122.511 173.575 122.336 173.315 122.076 173.165C121.796 172.995 121.371 172.91 120.801 172.91ZM132.945 180.755H131.55V178.955H126.465V180.755H125.055V177.68C125.445 177.68 125.75 177.57 125.97 177.35C126.15 177.16 126.285 176.88 126.375 176.51L127.515 171.71H132.075V177.68H132.945V180.755ZM130.59 177.68V173H128.7L127.875 176.465C127.725 177.135 127.51 177.54 127.23 177.68H130.59ZM137.544 171.59C138.754 171.59 139.634 171.86 140.184 172.4C140.494 172.71 140.709 173.13 140.829 173.66C140.909 174.07 140.949 174.635 140.949 175.355C140.949 176.175 140.894 176.805 140.784 177.245C140.664 177.685 140.464 178.035 140.184 178.295C139.634 178.845 138.754 179.12 137.544 179.12C136.884 179.12 136.339 179.05 135.909 178.91C135.499 178.78 135.159 178.575 134.889 178.295C134.579 177.995 134.364 177.58 134.244 177.05C134.164 176.64 134.124 176.075 134.124 175.355C134.124 174.535 134.179 173.905 134.289 173.465C134.409 173.025 134.609 172.67 134.889 172.4C135.169 172.12 135.519 171.915 135.939 171.785C136.369 171.655 136.904 171.59 137.544 171.59ZM137.544 172.91C136.964 172.91 136.534 172.995 136.254 173.165C135.994 173.325 135.819 173.59 135.729 173.96C135.659 174.24 135.624 174.705 135.624 175.355C135.624 175.995 135.659 176.455 135.729 176.735C135.819 177.105 135.994 177.37 136.254 177.53C136.534 177.7 136.964 177.785 137.544 177.785C138.124 177.785 138.554 177.7 138.834 177.53C139.094 177.37 139.264 177.105 139.344 176.735C139.414 176.455 139.449 175.995 139.449 175.355C139.449 174.705 139.414 174.235 139.344 173.945C139.254 173.575 139.079 173.315 138.819 173.165C138.539 172.995 138.114 172.91 137.544 172.91ZM148.818 179H147.333V173H145.428L144.498 176.975C144.388 177.425 144.273 177.77 144.153 178.01C144.033 178.25 143.883 178.45 143.703 178.61C143.303 178.95 142.668 179.12 141.798 179.12V177.755C142.178 177.755 142.458 177.675 142.638 177.515C142.828 177.345 142.978 177.04 143.088 176.6L144.243 171.71H148.818V179ZM157.173 175.895H152.103C152.103 176.385 152.148 176.76 152.238 177.02C152.338 177.31 152.523 177.525 152.793 177.665C153.063 177.795 153.463 177.86 153.993 177.86C154.503 177.86 154.893 177.795 155.163 177.665C155.503 177.505 155.678 177.23 155.688 176.84H157.083C157.083 177.75 156.693 178.39 155.913 178.76C155.413 179 154.758 179.12 153.948 179.12C152.528 179.12 151.578 178.735 151.098 177.965C150.768 177.435 150.603 176.59 150.603 175.43C150.603 174.59 150.673 173.925 150.813 173.435C150.993 172.835 151.308 172.385 151.758 172.085C152.268 171.755 152.983 171.59 153.903 171.59C154.883 171.59 155.623 171.775 156.123 172.145C156.563 172.475 156.858 172.98 157.008 173.66C157.118 174.14 157.173 174.885 157.173 175.895ZM155.703 174.65C155.703 174.26 155.673 173.96 155.613 173.75C155.563 173.53 155.473 173.355 155.343 173.225C155.093 172.965 154.613 172.835 153.903 172.835C153.233 172.835 152.768 172.97 152.508 173.24C152.248 173.5 152.118 173.97 152.118 174.65H155.703ZM164.433 175.205C164.693 175.345 164.878 175.545 164.988 175.805C165.108 176.055 165.168 176.395 165.168 176.825C165.168 177.585 164.983 178.13 164.613 178.46C164.353 178.7 164.043 178.85 163.683 178.91C163.363 178.97 162.818 179 162.048 179H158.913V171.68H161.973C162.653 171.68 163.123 171.695 163.383 171.725C163.653 171.745 163.893 171.79 164.103 171.86C164.763 172.11 165.093 172.685 165.093 173.585C165.093 174.405 164.873 174.945 164.433 175.205ZM163.503 174.455C163.643 174.315 163.713 174.09 163.713 173.78C163.713 173.41 163.613 173.165 163.413 173.045C163.233 172.945 162.908 172.895 162.438 172.895H160.308V174.635H162.138H162.288C162.678 174.635 162.953 174.625 163.113 174.605C163.273 174.585 163.403 174.535 163.503 174.455ZM160.308 177.785H162.123C162.753 177.785 163.163 177.745 163.353 177.665C163.613 177.565 163.743 177.28 163.743 176.81C163.743 176.45 163.673 176.205 163.533 176.075C163.423 175.975 163.268 175.91 163.068 175.88C162.878 175.85 162.513 175.835 161.973 175.835H160.308V177.785ZM173.195 179H171.86V178.34C171.62 178.59 171.295 178.785 170.885 178.925C170.475 179.055 170.015 179.12 169.505 179.12C168.505 179.12 167.78 178.925 167.33 178.535C166.89 178.165 166.67 177.59 166.67 176.81C166.67 175.81 167.025 175.14 167.735 174.8C168.175 174.58 168.84 174.47 169.73 174.47H171.74C171.74 174.07 171.725 173.785 171.695 173.615C171.665 173.445 171.595 173.31 171.485 173.21C171.265 172.98 170.79 172.865 170.06 172.865C169.5 172.865 169.095 172.92 168.845 173.03C168.495 173.17 168.32 173.43 168.32 173.81H166.88C166.88 172.92 167.25 172.3 167.99 171.95C168.5 171.71 169.22 171.59 170.15 171.59C171.38 171.59 172.23 171.895 172.7 172.505C173.03 172.935 173.195 173.56 173.195 174.38V179ZM171.77 175.7H169.67C169.07 175.7 168.67 175.78 168.47 175.94C168.27 176.1 168.17 176.385 168.17 176.795C168.17 177.195 168.29 177.475 168.53 177.635C168.77 177.795 169.16 177.875 169.7 177.875C170.64 177.875 171.24 177.67 171.5 177.26C171.68 176.98 171.77 176.46 171.77 175.7ZM180.77 173H178.25V179H176.765V173H174.245V171.71H180.77V173ZM183.352 174.65H185.557C186.117 174.65 186.547 174.69 186.847 174.77C187.147 174.85 187.392 174.99 187.582 175.19C187.912 175.52 188.077 176.06 188.077 176.81C188.077 177.58 187.907 178.13 187.567 178.46C187.407 178.62 187.227 178.74 187.027 178.82C186.827 178.89 186.552 178.94 186.202 178.97C185.982 178.99 185.807 179 185.677 179H181.972V171.74H183.352V174.65ZM183.352 177.785H185.167C185.817 177.785 186.227 177.715 186.397 177.575C186.547 177.455 186.622 177.205 186.622 176.825C186.622 176.575 186.597 176.39 186.547 176.27C186.507 176.15 186.427 176.06 186.307 176C186.117 175.91 185.692 175.865 185.032 175.865H183.352V177.785ZM194.791 172.235C195.271 171.775 196.001 171.55 196.981 171.56C197.741 171.57 198.326 171.69 198.736 171.92C199.166 172.16 199.476 172.555 199.666 173.105C199.846 173.635 199.936 174.375 199.936 175.325C199.936 176.145 199.881 176.775 199.771 177.215C199.661 177.655 199.471 178.015 199.201 178.295C198.681 178.845 197.836 179.12 196.666 179.12C195.496 179.12 194.651 178.855 194.131 178.325C193.841 178.035 193.641 177.68 193.531 177.26C193.431 176.84 193.381 176.21 193.381 175.37V172.505C193.381 171.895 193.436 171.405 193.546 171.035C193.656 170.655 193.836 170.335 194.086 170.075C194.326 169.835 194.616 169.65 194.956 169.52C195.306 169.39 195.746 169.3 196.276 169.25L196.561 169.22C197.121 169.17 197.491 169.1 197.671 169.01C197.851 168.91 197.946 168.74 197.956 168.5H199.336C199.336 168.88 199.301 169.175 199.231 169.385C199.161 169.595 199.036 169.78 198.856 169.94C198.686 170.1 198.466 170.22 198.196 170.3C197.926 170.38 197.521 170.445 196.981 170.495C196.431 170.545 196.046 170.605 195.826 170.675C195.606 170.735 195.386 170.86 195.166 171.05C195.056 171.18 194.981 171.3 194.941 171.41C194.901 171.51 194.861 171.685 194.821 171.935C194.811 172.045 194.801 172.145 194.791 172.235ZM198.526 175.34C198.526 174.67 198.481 174.17 198.391 173.84C198.291 173.49 198.126 173.245 197.896 173.105C197.666 172.965 197.311 172.89 196.831 172.88C196.281 172.87 195.871 172.93 195.601 173.06C195.311 173.2 195.101 173.445 194.971 173.795C194.851 174.145 194.786 174.67 194.776 175.37C194.776 175.47 194.776 175.54 194.776 175.58C194.776 176.2 194.826 176.665 194.926 176.975C195.036 177.295 195.216 177.52 195.466 177.65C195.726 177.77 196.121 177.83 196.651 177.83C197.191 177.83 197.581 177.77 197.821 177.65C198.091 177.51 198.276 177.275 198.376 176.945C198.476 176.615 198.526 176.08 198.526 175.34ZM203.111 172.355C203.651 171.835 204.421 171.58 205.421 171.59C206.261 171.6 206.906 171.76 207.356 172.07C207.766 172.35 208.046 172.785 208.196 173.375C208.316 173.835 208.376 174.5 208.376 175.37C208.376 176.11 208.316 176.705 208.196 177.155C208.036 177.765 207.751 178.23 207.341 178.55C206.851 178.93 206.161 179.12 205.271 179.12C204.791 179.12 204.386 179.065 204.056 178.955C203.736 178.835 203.461 178.645 203.231 178.385V181.865H201.746V171.71H203.111V172.355ZM205.241 172.94C204.701 172.94 204.296 173.005 204.026 173.135C203.736 173.275 203.531 173.515 203.411 173.855C203.291 174.195 203.231 174.695 203.231 175.355C203.231 176.015 203.291 176.515 203.411 176.855C203.531 177.195 203.726 177.435 203.996 177.575C204.276 177.715 204.691 177.785 205.241 177.785C205.701 177.785 206.051 177.705 206.291 177.545C206.511 177.395 206.666 177.16 206.756 176.84C206.846 176.51 206.891 176.015 206.891 175.355C206.891 174.385 206.771 173.74 206.531 173.42C206.301 173.1 205.871 172.94 205.241 172.94ZM213.349 171.59C214.559 171.59 215.439 171.86 215.989 172.4C216.299 172.71 216.514 173.13 216.634 173.66C216.714 174.07 216.754 174.635 216.754 175.355C216.754 176.175 216.699 176.805 216.589 177.245C216.469 177.685 216.269 178.035 215.989 178.295C215.439 178.845 214.559 179.12 213.349 179.12C212.689 179.12 212.144 179.05 211.714 178.91C211.304 178.78 210.964 178.575 210.694 178.295C210.384 177.995 210.169 177.58 210.049 177.05C209.969 176.64 209.929 176.075 209.929 175.355C209.929 174.535 209.984 173.905 210.094 173.465C210.214 173.025 210.414 172.67 210.694 172.4C210.974 172.12 211.324 171.915 211.744 171.785C212.174 171.655 212.709 171.59 213.349 171.59ZM213.349 172.91C212.769 172.91 212.339 172.995 212.059 173.165C211.799 173.325 211.624 173.59 211.534 173.96C211.464 174.24 211.429 174.705 211.429 175.355C211.429 175.995 211.464 176.455 211.534 176.735C211.624 177.105 211.799 177.37 212.059 177.53C212.339 177.7 212.769 177.785 213.349 177.785C213.929 177.785 214.359 177.7 214.639 177.53C214.899 177.37 215.069 177.105 215.149 176.735C215.219 176.455 215.254 175.995 215.254 175.355C215.254 174.705 215.219 174.235 215.149 173.945C215.059 173.575 214.884 173.315 214.624 173.165C214.344 172.995 213.919 172.91 213.349 172.91ZM225.494 180.755H224.099V178.955H219.014V180.755H217.604V177.68C217.994 177.68 218.299 177.57 218.519 177.35C218.699 177.16 218.834 176.88 218.924 176.51L220.064 171.71H224.624V177.68H225.494V180.755ZM223.139 177.68V173H221.249L220.424 176.465C220.274 177.135 220.059 177.54 219.779 177.68H223.139ZM228.323 174.65H230.528C231.088 174.65 231.518 174.69 231.818 174.77C232.118 174.85 232.363 174.99 232.553 175.19C232.883 175.52 233.048 176.06 233.048 176.81C233.048 177.58 232.878 178.13 232.538 178.46C232.378 178.62 232.198 178.74 231.998 178.82C231.798 178.89 231.523 178.94 231.173 178.97C230.953 178.99 230.778 179 230.648 179H226.943V171.74H228.323V174.65ZM228.323 177.785H230.138C230.788 177.785 231.198 177.715 231.368 177.575C231.518 177.455 231.593 177.205 231.593 176.825C231.593 176.575 231.568 176.39 231.518 176.27C231.478 176.15 231.398 176.06 231.278 176C231.088 175.91 230.663 175.865 230.003 175.865H228.323V177.785ZM235.718 171.71V179H234.233V171.71H235.718ZM246.7 173H242.65V179H241.165V171.71H246.7V173ZM253.877 179H252.392V173H250.487L249.557 176.975C249.447 177.425 249.332 177.77 249.212 178.01C249.092 178.25 248.942 178.45 248.762 178.61C248.362 178.95 247.727 179.12 246.857 179.12V177.755C247.237 177.755 247.517 177.675 247.697 177.515C247.887 177.345 248.037 177.04 248.147 176.6L249.302 171.71H253.877V179ZM262.097 171.71L258.212 181.85H256.667L257.852 178.865L255.107 171.71H256.682L258.632 177.185L260.522 171.71H262.097ZM264.678 172.235C265.158 171.775 265.888 171.55 266.868 171.56C267.628 171.57 268.213 171.69 268.623 171.92C269.053 172.16 269.363 172.555 269.553 173.105C269.733 173.635 269.823 174.375 269.823 175.325C269.823 176.145 269.768 176.775 269.658 177.215C269.548 177.655 269.358 178.015 269.088 178.295C268.568 178.845 267.723 179.12 266.553 179.12C265.383 179.12 264.538 178.855 264.018 178.325C263.728 178.035 263.528 177.68 263.418 177.26C263.318 176.84 263.268 176.21 263.268 175.37V172.505C263.268 171.895 263.323 171.405 263.433 171.035C263.543 170.655 263.723 170.335 263.973 170.075C264.213 169.835 264.503 169.65 264.843 169.52C265.193 169.39 265.633 169.3 266.163 169.25L266.448 169.22C267.008 169.17 267.378 169.1 267.558 169.01C267.738 168.91 267.833 168.74 267.843 168.5H269.223C269.223 168.88 269.188 169.175 269.118 169.385C269.048 169.595 268.923 169.78 268.743 169.94C268.573 170.1 268.353 170.22 268.083 170.3C267.813 170.38 267.408 170.445 266.868 170.495C266.318 170.545 265.933 170.605 265.713 170.675C265.493 170.735 265.273 170.86 265.053 171.05C264.943 171.18 264.868 171.3 264.828 171.41C264.788 171.51 264.748 171.685 264.708 171.935C264.698 172.045 264.688 172.145 264.678 172.235ZM268.413 175.34C268.413 174.67 268.368 174.17 268.278 173.84C268.178 173.49 268.013 173.245 267.783 173.105C267.553 172.965 267.198 172.89 266.718 172.88C266.168 172.87 265.758 172.93 265.488 173.06C265.198 173.2 264.988 173.445 264.858 173.795C264.738 174.145 264.673 174.67 264.663 175.37C264.663 175.47 264.663 175.54 264.663 175.58C264.663 176.2 264.713 176.665 264.813 176.975C264.923 177.295 265.103 177.52 265.353 177.65C265.613 177.77 266.008 177.83 266.538 177.83C267.078 177.83 267.468 177.77 267.708 177.65C267.978 177.51 268.163 177.275 268.263 176.945C268.363 176.615 268.413 176.08 268.413 175.34ZM277.919 179H276.539V173.795L273.194 179H271.649V171.71H273.044V176.9L276.389 171.71H277.919V179ZM286.18 179H284.695V175.895H281.395V179H279.91V171.71H281.395V174.59H284.695V171.71H286.18V179ZM291.382 171.59C292.592 171.59 293.472 171.86 294.022 172.4C294.332 172.71 294.547 173.13 294.667 173.66C294.747 174.07 294.787 174.635 294.787 175.355C294.787 176.175 294.732 176.805 294.622 177.245C294.502 177.685 294.302 178.035 294.022 178.295C293.472 178.845 292.592 179.12 291.382 179.12C290.722 179.12 290.177 179.05 289.747 178.91C289.337 178.78 288.997 178.575 288.727 178.295C288.417 177.995 288.202 177.58 288.082 177.05C288.002 176.64 287.962 176.075 287.962 175.355C287.962 174.535 288.017 173.905 288.127 173.465C288.247 173.025 288.447 172.67 288.727 172.4C289.007 172.12 289.357 171.915 289.777 171.785C290.207 171.655 290.742 171.59 291.382 171.59ZM291.382 172.91C290.802 172.91 290.372 172.995 290.092 173.165C289.832 173.325 289.657 173.59 289.567 173.96C289.497 174.24 289.462 174.705 289.462 175.355C289.462 175.995 289.497 176.455 289.567 176.735C289.657 177.105 289.832 177.37 290.092 177.53C290.372 177.7 290.802 177.785 291.382 177.785C291.962 177.785 292.392 177.7 292.672 177.53C292.932 177.37 293.102 177.105 293.182 176.735C293.252 176.455 293.287 175.995 293.287 175.355C293.287 174.705 293.252 174.235 293.182 173.945C293.092 173.575 292.917 173.315 292.657 173.165C292.377 172.995 291.952 172.91 291.382 172.91ZM302.821 179H301.441V173.795L298.096 179H296.551V171.71H297.946V176.9L301.291 171.71H302.821V179ZM301.861 168.965C301.861 169.745 301.681 170.27 301.321 170.54C301.001 170.78 300.456 170.9 299.686 170.9C298.816 170.9 298.226 170.74 297.916 170.42C297.646 170.14 297.511 169.655 297.511 168.965H298.516C298.516 169.355 298.596 169.62 298.756 169.76C298.916 169.9 299.226 169.97 299.686 169.97C300.136 169.97 300.441 169.905 300.601 169.775C300.781 169.625 300.871 169.355 300.871 168.965H301.861ZM33.98 198.755H32.585V196.955H27.5V198.755H26.09V195.68C26.48 195.68 26.785 195.57 27.005 195.35C27.185 195.16 27.32 194.88 27.41 194.51L28.55 189.71H33.11V195.68H33.98V198.755ZM31.625 195.68V191H29.735L28.91 194.465C28.76 195.135 28.545 195.54 28.265 195.68H31.625ZM38.5789 189.59C39.7889 189.59 40.6689 189.86 41.2189 190.4C41.5289 190.71 41.7439 191.13 41.8639 191.66C41.9439 192.07 41.9839 192.635 41.9839 193.355C41.9839 194.175 41.9289 194.805 41.8189 195.245C41.6989 195.685 41.4989 196.035 41.2189 196.295C40.6689 196.845 39.7889 197.12 38.5789 197.12C37.9189 197.12 37.3739 197.05 36.9439 196.91C36.5339 196.78 36.1939 196.575 35.9239 196.295C35.6139 195.995 35.3989 195.58 35.2789 195.05C35.1989 194.64 35.1589 194.075 35.1589 193.355C35.1589 192.535 35.2139 191.905 35.3239 191.465C35.4439 191.025 35.6439 190.67 35.9239 190.4C36.2039 190.12 36.5539 189.915 36.9739 189.785C37.4039 189.655 37.9389 189.59 38.5789 189.59ZM38.5789 190.91C37.9989 190.91 37.5689 190.995 37.2889 191.165C37.0289 191.325 36.8539 191.59 36.7639 191.96C36.6939 192.24 36.6589 192.705 36.6589 193.355C36.6589 193.995 36.6939 194.455 36.7639 194.735C36.8539 195.105 37.0289 195.37 37.2889 195.53C37.5689 195.7 37.9989 195.785 38.5789 195.785C39.1589 195.785 39.5889 195.7 39.8689 195.53C40.1289 195.37 40.2989 195.105 40.3789 194.735C40.4489 194.455 40.4839 193.995 40.4839 193.355C40.4839 192.705 40.4489 192.235 40.3789 191.945C40.2889 191.575 40.1139 191.315 39.8539 191.165C39.5739 190.995 39.1489 190.91 38.5789 190.91ZM52.3177 192.935C52.0577 193.165 51.7677 193.335 51.4477 193.445C51.1377 193.545 50.7677 193.6 50.3377 193.61C50.2677 193.61 50.2177 193.61 50.1877 193.61C49.0577 193.61 48.2477 193.295 47.7577 192.665C47.3177 192.115 47.1027 191.295 47.1127 190.205C47.1327 188.995 47.4477 188.12 48.0577 187.58C48.5877 187.1 49.3677 186.865 50.3977 186.875C51.2377 186.885 51.9277 187.06 52.4677 187.4C52.9477 187.7 53.2827 188.115 53.4727 188.645C53.6927 189.225 53.8027 190.21 53.8027 191.6C53.8127 193.15 53.7527 194.27 53.6227 194.96C53.4627 195.75 53.0827 196.32 52.4827 196.67C51.9627 196.98 51.2527 197.135 50.3527 197.135C48.9927 197.135 48.0777 196.75 47.6077 195.98C47.4977 195.8 47.4227 195.63 47.3827 195.47C47.3527 195.3 47.3227 195.01 47.2927 194.6H48.7327C48.7727 195.1 48.9127 195.425 49.1527 195.575C49.3727 195.715 49.7677 195.785 50.3377 195.785C50.8777 195.785 51.2727 195.72 51.5227 195.59C51.7827 195.44 51.9677 195.18 52.0777 194.81C52.1977 194.43 52.2777 193.805 52.3177 192.935ZM48.5677 190.205C48.5677 191.055 48.7077 191.62 48.9877 191.9C49.2277 192.14 49.6527 192.26 50.2627 192.26C51.0127 192.26 51.5427 192.08 51.8527 191.72C52.1227 191.41 52.2627 190.925 52.2727 190.265C52.2927 189.495 52.1377 188.955 51.8077 188.645C51.5177 188.375 51.0527 188.235 50.4127 188.225C49.6827 188.215 49.1877 188.38 48.9277 188.72C48.6877 189.01 48.5677 189.505 48.5677 190.205ZM58.7766 186.89C59.8866 186.89 60.7116 187.14 61.2516 187.64C61.6916 188.05 61.9716 188.675 62.0916 189.515C62.1316 189.815 62.1566 190.08 62.1666 190.31C62.1766 190.53 62.1816 191.095 62.1816 192.005C62.1816 192.865 62.1766 193.43 62.1666 193.7C62.1566 193.96 62.1316 194.235 62.0916 194.525C61.9716 195.365 61.6866 195.99 61.2366 196.4C60.7066 196.88 59.8866 197.12 58.7766 197.12C57.2366 197.12 56.2366 196.625 55.7766 195.635C55.6266 195.325 55.5216 194.955 55.4616 194.525C55.4016 194.095 55.3716 193.505 55.3716 192.755V192.005C55.3716 191.095 55.3766 190.53 55.3866 190.31C55.3966 190.08 55.4216 189.815 55.4616 189.515C55.5816 188.675 55.8616 188.05 56.3016 187.64C56.8316 187.14 57.6566 186.89 58.7766 186.89ZM58.7766 188.24C57.9166 188.24 57.3616 188.505 57.1116 189.035C56.9516 189.375 56.8716 189.99 56.8716 190.88V192.005V193.205C56.8716 193.875 56.9066 194.36 56.9766 194.66C57.0666 195.05 57.2416 195.325 57.5016 195.485C57.7816 195.665 58.2066 195.755 58.7766 195.755C59.3466 195.755 59.7716 195.665 60.0516 195.485C60.3116 195.315 60.4866 195.035 60.5766 194.645C60.6466 194.345 60.6816 193.865 60.6816 193.205L60.6666 192.005C60.6666 190.815 60.6616 190.135 60.6516 189.965C60.6016 189.365 60.4516 188.94 60.2016 188.69C59.9216 188.39 59.4466 188.24 58.7766 188.24ZM67.3167 186.89C68.4267 186.89 69.2517 187.14 69.7917 187.64C70.2317 188.05 70.5117 188.675 70.6317 189.515C70.6717 189.815 70.6967 190.08 70.7067 190.31C70.7167 190.53 70.7217 191.095 70.7217 192.005C70.7217 192.865 70.7167 193.43 70.7067 193.7C70.6967 193.96 70.6717 194.235 70.6317 194.525C70.5117 195.365 70.2267 195.99 69.7767 196.4C69.2467 196.88 68.4267 197.12 67.3167 197.12C65.7767 197.12 64.7767 196.625 64.3167 195.635C64.1667 195.325 64.0617 194.955 64.0017 194.525C63.9417 194.095 63.9117 193.505 63.9117 192.755V192.005C63.9117 191.095 63.9167 190.53 63.9267 190.31C63.9367 190.08 63.9617 189.815 64.0017 189.515C64.1217 188.675 64.4017 188.05 64.8417 187.64C65.3717 187.14 66.1967 186.89 67.3167 186.89ZM67.3167 188.24C66.4567 188.24 65.9017 188.505 65.6517 189.035C65.4917 189.375 65.4117 189.99 65.4117 190.88V192.005V193.205C65.4117 193.875 65.4467 194.36 65.5167 194.66C65.6067 195.05 65.7817 195.325 66.0417 195.485C66.3217 195.665 66.7467 195.755 67.3167 195.755C67.8867 195.755 68.3117 195.665 68.5917 195.485C68.8517 195.315 69.0267 195.035 69.1167 194.645C69.1867 194.345 69.2217 193.865 69.2217 193.205L69.2067 192.005C69.2067 190.815 69.2017 190.135 69.1917 189.965C69.1417 189.365 68.9917 188.94 68.7417 188.69C68.4617 188.39 67.9867 188.24 67.3167 188.24ZM84.4113 197H82.9863V191.99L81.0363 197H79.6563L77.7213 191.99V197H76.3113V189.71H78.2013L80.3763 195.185L82.5813 189.71H84.4113V197ZM94.5041 197H93.0791V191.99L91.1291 197H89.7491L87.8141 191.99V197H86.4041V189.71H88.2941L90.4691 195.185L92.6741 189.71H94.5041V197ZM97.9968 195.23V196.715C97.9968 197.195 97.9418 197.575 97.8318 197.855C97.7318 198.145 97.5518 198.42 97.2918 198.68L96.6768 199.265L95.7318 198.38C96.0418 198.08 96.2268 197.895 96.2868 197.825C96.3468 197.765 96.4018 197.69 96.4518 197.6C96.5618 197.4 96.6168 197.105 96.6168 196.715V195.23H97.9968ZM106.108 189.59C107.318 189.59 108.198 189.86 108.748 190.4C109.058 190.71 109.273 191.13 109.393 191.66C109.473 192.07 109.513 192.635 109.513 193.355C109.513 194.175 109.458 194.805 109.348 195.245C109.228 195.685 109.028 196.035 108.748 196.295C108.198 196.845 107.318 197.12 106.108 197.12C105.448 197.12 104.903 197.05 104.473 196.91C104.063 196.78 103.723 196.575 103.453 196.295C103.143 195.995 102.928 195.58 102.808 195.05C102.728 194.64 102.688 194.075 102.688 193.355C102.688 192.535 102.743 191.905 102.853 191.465C102.973 191.025 103.173 190.67 103.453 190.4C103.733 190.12 104.083 189.915 104.503 189.785C104.933 189.655 105.468 189.59 106.108 189.59ZM106.108 190.91C105.528 190.91 105.098 190.995 104.818 191.165C104.558 191.325 104.383 191.59 104.293 191.96C104.223 192.24 104.188 192.705 104.188 193.355C104.188 193.995 104.223 194.455 104.293 194.735C104.383 195.105 104.558 195.37 104.818 195.53C105.098 195.7 105.528 195.785 106.108 195.785C106.688 195.785 107.118 195.7 107.398 195.53C107.658 195.37 107.828 195.105 107.908 194.735C107.978 194.455 108.013 193.995 108.013 193.355C108.013 192.705 107.978 192.235 107.908 191.945C107.818 191.575 107.643 191.315 107.383 191.165C107.103 190.995 106.678 190.91 106.108 190.91ZM112.627 190.235C113.107 189.775 113.837 189.55 114.817 189.56C115.577 189.57 116.162 189.69 116.572 189.92C117.002 190.16 117.312 190.555 117.502 191.105C117.682 191.635 117.772 192.375 117.772 193.325C117.772 194.145 117.717 194.775 117.607 195.215C117.497 195.655 117.307 196.015 117.037 196.295C116.517 196.845 115.672 197.12 114.502 197.12C113.332 197.12 112.487 196.855 111.967 196.325C111.677 196.035 111.477 195.68 111.367 195.26C111.267 194.84 111.217 194.21 111.217 193.37V190.505C111.217 189.895 111.272 189.405 111.382 189.035C111.492 188.655 111.672 188.335 111.922 188.075C112.162 187.835 112.452 187.65 112.792 187.52C113.142 187.39 113.582 187.3 114.112 187.25L114.397 187.22C114.957 187.17 115.327 187.1 115.507 187.01C115.687 186.91 115.782 186.74 115.792 186.5H117.172C117.172 186.88 117.137 187.175 117.067 187.385C116.997 187.595 116.872 187.78 116.692 187.94C116.522 188.1 116.302 188.22 116.032 188.3C115.762 188.38 115.357 188.445 114.817 188.495C114.267 188.545 113.882 188.605 113.662 188.675C113.442 188.735 113.222 188.86 113.002 189.05C112.892 189.18 112.817 189.3 112.777 189.41C112.737 189.51 112.697 189.685 112.657 189.935C112.647 190.045 112.637 190.145 112.627 190.235ZM116.362 193.34C116.362 192.67 116.317 192.17 116.227 191.84C116.127 191.49 115.962 191.245 115.732 191.105C115.502 190.965 115.147 190.89 114.667 190.88C114.117 190.87 113.707 190.93 113.437 191.06C113.147 191.2 112.937 191.445 112.807 191.795C112.687 192.145 112.622 192.67 112.612 193.37C112.612 193.47 112.612 193.54 112.612 193.58C112.612 194.2 112.662 194.665 112.762 194.975C112.872 195.295 113.052 195.52 113.302 195.65C113.562 195.77 113.957 195.83 114.487 195.83C115.027 195.83 115.417 195.77 115.657 195.65C115.927 195.51 116.112 195.275 116.212 194.945C116.312 194.615 116.362 194.08 116.362 193.34ZM125.943 193.895H120.873C120.873 194.385 120.918 194.76 121.008 195.02C121.108 195.31 121.293 195.525 121.563 195.665C121.833 195.795 122.233 195.86 122.763 195.86C123.273 195.86 123.663 195.795 123.933 195.665C124.273 195.505 124.448 195.23 124.458 194.84H125.853C125.853 195.75 125.463 196.39 124.683 196.76C124.183 197 123.528 197.12 122.718 197.12C121.298 197.12 120.348 196.735 119.868 195.965C119.538 195.435 119.373 194.59 119.373 193.43C119.373 192.59 119.443 191.925 119.583 191.435C119.763 190.835 120.078 190.385 120.528 190.085C121.038 189.755 121.753 189.59 122.673 189.59C123.653 189.59 124.393 189.775 124.893 190.145C125.333 190.475 125.628 190.98 125.778 191.66C125.888 192.14 125.943 192.885 125.943 193.895ZM124.473 192.65C124.473 192.26 124.443 191.96 124.383 191.75C124.333 191.53 124.243 191.355 124.113 191.225C123.863 190.965 123.383 190.835 122.673 190.835C122.003 190.835 121.538 190.97 121.278 191.24C121.018 191.5 120.888 191.97 120.888 192.65H124.473ZM133.863 194.84C133.863 196.36 132.843 197.12 130.803 197.12C129.353 197.12 128.398 196.705 127.938 195.875C127.738 195.525 127.608 195.08 127.548 194.54C127.508 194.21 127.488 193.805 127.488 193.325C127.488 192.505 127.553 191.87 127.683 191.42C127.853 190.83 128.163 190.385 128.613 190.085C129.123 189.755 129.853 189.59 130.803 189.59C132.843 189.59 133.863 190.345 133.863 191.855H132.453C132.453 191.435 132.248 191.155 131.838 191.015C131.618 190.945 131.283 190.91 130.833 190.91C130.283 190.91 129.873 190.99 129.603 191.15C129.373 191.3 129.213 191.53 129.123 191.84C129.033 192.15 128.988 192.65 128.988 193.34C128.988 193.98 129.023 194.45 129.093 194.75C129.183 195.12 129.353 195.38 129.603 195.53C129.873 195.7 130.283 195.785 130.833 195.785C131.353 195.785 131.728 195.73 131.958 195.62C132.288 195.48 132.453 195.22 132.453 194.84H133.863ZM141.849 197H140.364V191H137.064V197H135.579V189.71H141.849V197ZM150.201 193.895H145.131C145.131 194.385 145.176 194.76 145.266 195.02C145.366 195.31 145.551 195.525 145.821 195.665C146.091 195.795 146.491 195.86 147.021 195.86C147.531 195.86 147.921 195.795 148.191 195.665C148.531 195.505 148.706 195.23 148.716 194.84H150.111C150.111 195.75 149.721 196.39 148.941 196.76C148.441 197 147.786 197.12 146.976 197.12C145.556 197.12 144.606 196.735 144.126 195.965C143.796 195.435 143.631 194.59 143.631 193.43C143.631 192.59 143.701 191.925 143.841 191.435C144.021 190.835 144.336 190.385 144.786 190.085C145.296 189.755 146.011 189.59 146.931 189.59C147.911 189.59 148.651 189.775 149.151 190.145C149.591 190.475 149.886 190.98 150.036 191.66C150.146 192.14 150.201 192.885 150.201 193.895ZM148.731 192.65C148.731 192.26 148.701 191.96 148.641 191.75C148.591 191.53 148.501 191.355 148.371 191.225C148.121 190.965 147.641 190.835 146.931 190.835C146.261 190.835 145.796 190.97 145.536 191.24C145.276 191.5 145.146 191.97 145.146 192.65H148.731ZM157.926 197H156.441V194.195C155.931 194.405 155.281 194.51 154.491 194.51C153.491 194.51 152.766 194.285 152.316 193.835C152.056 193.575 151.881 193.26 151.791 192.89C151.701 192.52 151.656 191.925 151.656 191.105V189.71H153.156V191.105V191.51C153.156 192.1 153.246 192.51 153.426 192.74C153.666 193.04 154.096 193.19 154.716 193.19C155.456 193.18 156.031 193.085 156.441 192.905V189.71H157.926V197ZM166.21 197H164.83V191.795L161.485 197H159.94V189.71H161.335V194.9L164.68 189.71H166.21V197ZM173.706 193.205C173.966 193.345 174.151 193.545 174.261 193.805C174.381 194.055 174.441 194.395 174.441 194.825C174.441 195.585 174.256 196.13 173.886 196.46C173.626 196.7 173.316 196.85 172.956 196.91C172.636 196.97 172.091 197 171.321 197H168.186V189.68H171.246C171.926 189.68 172.396 189.695 172.656 189.725C172.926 189.745 173.166 189.79 173.376 189.86C174.036 190.11 174.366 190.685 174.366 191.585C174.366 192.405 174.146 192.945 173.706 193.205ZM172.776 192.455C172.916 192.315 172.986 192.09 172.986 191.78C172.986 191.41 172.886 191.165 172.686 191.045C172.506 190.945 172.181 190.895 171.711 190.895H169.581V192.635H171.411H171.561C171.951 192.635 172.226 192.625 172.386 192.605C172.546 192.585 172.676 192.535 172.776 192.455ZM169.581 195.785H171.396C172.026 195.785 172.436 195.745 172.626 195.665C172.886 195.565 173.016 195.28 173.016 194.81C173.016 194.45 172.946 194.205 172.806 194.075C172.696 193.975 172.541 193.91 172.341 193.88C172.151 193.85 171.786 193.835 171.246 193.835H169.581V195.785ZM182.467 197H181.132V196.34C180.892 196.59 180.567 196.785 180.157 196.925C179.747 197.055 179.287 197.12 178.777 197.12C177.777 197.12 177.052 196.925 176.602 196.535C176.162 196.165 175.942 195.59 175.942 194.81C175.942 193.81 176.297 193.14 177.007 192.8C177.447 192.58 178.112 192.47 179.002 192.47H181.012C181.012 192.07 180.997 191.785 180.967 191.615C180.937 191.445 180.867 191.31 180.757 191.21C180.537 190.98 180.062 190.865 179.332 190.865C178.772 190.865 178.367 190.92 178.117 191.03C177.767 191.17 177.592 191.43 177.592 191.81H176.152C176.152 190.92 176.522 190.3 177.262 189.95C177.772 189.71 178.492 189.59 179.422 189.59C180.652 189.59 181.502 189.895 181.972 190.505C182.302 190.935 182.467 191.56 182.467 192.38V197ZM181.042 193.7H178.942C178.342 193.7 177.942 193.78 177.742 193.94C177.542 194.1 177.442 194.385 177.442 194.795C177.442 195.195 177.562 195.475 177.802 195.635C178.042 195.795 178.432 195.875 178.972 195.875C179.912 195.875 180.512 195.67 180.772 195.26C180.952 194.98 181.042 194.46 181.042 193.7ZM190.508 197H189.023V194.075H188.573C188.253 194.075 188.028 194.09 187.898 194.12C187.778 194.14 187.668 194.185 187.568 194.255C187.418 194.355 187.183 194.645 186.863 195.125L185.603 197H183.878L185.978 193.97C185.388 193.92 184.958 193.72 184.688 193.37C184.418 193.04 184.283 192.545 184.283 191.885C184.283 190.915 184.578 190.285 185.168 189.995C185.538 189.805 186.183 189.71 187.103 189.71H190.508V197ZM189.023 192.83V190.985H187.463C186.993 190.985 186.663 190.995 186.473 191.015C186.293 191.035 186.148 191.075 186.038 191.135C185.838 191.255 185.738 191.52 185.738 191.93C185.738 192.24 185.803 192.46 185.933 192.59C186.073 192.71 186.318 192.775 186.668 192.785L187.328 192.83H189.023ZM202.318 197H200.833V193.895H197.533V197H196.048V189.71H197.533V192.59H200.833V189.71H202.318V197ZM210.534 189.71L206.649 199.85H205.104L206.289 196.865L203.544 189.71H205.119L207.069 195.185L208.959 189.71H210.534ZM221.651 197H219.821L217.001 193.715V197H215.516V193.715L212.696 197H210.851L214.166 193.235L210.881 189.71H212.666L215.516 192.785V189.71H217.001V192.785L219.851 189.71H221.591L218.321 193.205L221.651 197ZM229.007 197H227.522V193.895H224.222V197H222.737V189.71H224.222V192.59H227.522V189.71H229.007V197ZM237.224 189.71L233.339 199.85H231.794L232.979 196.865L230.234 189.71H231.809L233.759 195.185L235.649 189.71H237.224ZM241.515 192.59C241.535 192.05 241.6 191.61 241.71 191.27C241.83 190.93 242.01 190.64 242.25 190.4C242.54 190.12 242.895 189.915 243.315 189.785C243.745 189.655 244.275 189.59 244.905 189.59C246.115 189.59 247 189.86 247.56 190.4C247.87 190.71 248.08 191.13 248.19 191.66C248.27 192.07 248.31 192.635 248.31 193.355C248.31 194.175 248.255 194.8 248.145 195.23C248.025 195.68 247.83 196.035 247.56 196.295C247 196.845 246.115 197.12 244.905 197.12C244.255 197.12 243.71 197.05 243.27 196.91C242.87 196.78 242.53 196.575 242.25 196.295C242.01 196.055 241.83 195.75 241.71 195.38C241.59 195 241.525 194.505 241.515 193.895H239.925V197H238.44V189.71H239.925V192.59H241.515ZM244.905 190.91C244.325 190.91 243.895 190.995 243.615 191.165C243.355 191.325 243.18 191.59 243.09 191.96C243.02 192.24 242.985 192.7 242.985 193.34C242.985 193.99 243.02 194.455 243.09 194.735C243.18 195.105 243.355 195.37 243.615 195.53C243.895 195.7 244.325 195.785 244.905 195.785C245.485 195.785 245.915 195.7 246.195 195.53C246.465 195.37 246.64 195.105 246.72 194.735C246.79 194.455 246.825 193.99 246.825 193.34C246.825 192.7 246.79 192.235 246.72 191.945C246.63 191.575 246.455 191.315 246.195 191.165C245.915 190.995 245.485 190.91 244.905 190.91ZM32.495 211.205C32.755 211.345 32.94 211.545 33.05 211.805C33.17 212.055 33.23 212.395 33.23 212.825C33.23 213.585 33.045 214.13 32.675 214.46C32.415 214.7 32.105 214.85 31.745 214.91C31.425 214.97 30.88 215 30.11 215H26.975V207.68H30.035C30.715 207.68 31.185 207.695 31.445 207.725C31.715 207.745 31.955 207.79 32.165 207.86C32.825 208.11 33.155 208.685 33.155 209.585C33.155 210.405 32.935 210.945 32.495 211.205ZM31.565 210.455C31.705 210.315 31.775 210.09 31.775 209.78C31.775 209.41 31.675 209.165 31.475 209.045C31.295 208.945 30.97 208.895 30.5 208.895H28.37V210.635H30.2H30.35C30.74 210.635 31.015 210.625 31.175 210.605C31.335 210.585 31.465 210.535 31.565 210.455ZM28.37 213.785H30.185C30.815 213.785 31.225 213.745 31.415 213.665C31.675 213.565 31.805 213.28 31.805 212.81C31.805 212.45 31.735 212.205 31.595 212.075C31.485 211.975 31.33 211.91 31.13 211.88C30.94 211.85 30.575 211.835 30.035 211.835H28.37V213.785ZM38.2713 207.59C39.4813 207.59 40.3613 207.86 40.9113 208.4C41.2213 208.71 41.4363 209.13 41.5563 209.66C41.6363 210.07 41.6763 210.635 41.6763 211.355C41.6763 212.175 41.6213 212.805 41.5113 213.245C41.3913 213.685 41.1913 214.035 40.9113 214.295C40.3613 214.845 39.4813 215.12 38.2713 215.12C37.6113 215.12 37.0663 215.05 36.6363 214.91C36.2263 214.78 35.8863 214.575 35.6163 214.295C35.3063 213.995 35.0913 213.58 34.9713 213.05C34.8913 212.64 34.8513 212.075 34.8513 211.355C34.8513 210.535 34.9063 209.905 35.0163 209.465C35.1363 209.025 35.3363 208.67 35.6163 208.4C35.8963 208.12 36.2463 207.915 36.6663 207.785C37.0963 207.655 37.6313 207.59 38.2713 207.59ZM38.2713 208.91C37.6913 208.91 37.2613 208.995 36.9813 209.165C36.7213 209.325 36.5463 209.59 36.4563 209.96C36.3863 210.24 36.3513 210.705 36.3513 211.355C36.3513 211.995 36.3863 212.455 36.4563 212.735C36.5463 213.105 36.7213 213.37 36.9813 213.53C37.2613 213.7 37.6913 213.785 38.2713 213.785C38.8513 213.785 39.2813 213.7 39.5613 213.53C39.8213 213.37 39.9913 213.105 40.0713 212.735C40.1413 212.455 40.1763 211.995 40.1763 211.355C40.1763 210.705 40.1413 210.235 40.0713 209.945C39.9813 209.575 39.8063 209.315 39.5463 209.165C39.2663 208.995 38.8413 208.91 38.2713 208.91ZM48.7655 211.19C49.0955 211.32 49.3305 211.515 49.4705 211.775C49.6105 212.025 49.6805 212.395 49.6805 212.885C49.6805 213.735 49.3405 214.34 48.6605 214.7C48.1205 214.98 47.3305 215.12 46.2905 215.12C45.2805 215.12 44.5205 214.95 44.0105 214.61C43.4405 214.24 43.1555 213.65 43.1555 212.84H44.5655C44.5655 213.27 44.7855 213.55 45.2255 213.68C45.4655 213.76 45.8405 213.8 46.3505 213.8C47.0905 213.8 47.5955 213.725 47.8655 213.575C48.1255 213.435 48.2555 213.185 48.2555 212.825C48.2555 212.545 48.2105 212.34 48.1205 212.21C48.0205 212.08 47.8505 211.99 47.6105 211.94C47.3705 211.89 46.9705 211.865 46.4105 211.865H45.6005V210.605H46.4105C47.1005 210.605 47.5605 210.545 47.7905 210.425C48.0405 210.295 48.1655 210.07 48.1655 209.75C48.1655 209.41 48.0255 209.185 47.7455 209.075C47.4855 208.975 47.0155 208.925 46.3355 208.925C45.7555 208.925 45.3405 208.975 45.0905 209.075C44.7405 209.225 44.5655 209.485 44.5655 209.855H43.1555C43.1555 208.955 43.5155 208.325 44.2355 207.965C44.7355 207.715 45.4205 207.59 46.2905 207.59C47.5105 207.59 48.3705 207.76 48.8705 208.1C49.3505 208.42 49.5905 208.925 49.5905 209.615C49.5905 209.995 49.5305 210.305 49.4105 210.545C49.2805 210.815 49.0655 211.03 48.7655 211.19ZM58.4282 216.755H57.0332V214.955H51.9482V216.755H50.5382V213.68C50.9282 213.68 51.2332 213.57 51.4532 213.35C51.6332 213.16 51.7682 212.88 51.8582 212.51L52.9982 207.71H57.5582V213.68H58.4282V216.755ZM56.0732 213.68V209H54.1832L53.3582 212.465C53.2082 213.135 52.9932 213.54 52.7132 213.68H56.0732ZM66.0421 207.71L62.1571 217.85H60.6121L61.7971 214.865L59.0521 207.71H60.6271L62.5771 213.185L64.4671 207.71H66.0421ZM76.6936 215H67.2586V207.71H68.7436V213.695H71.2336V207.71H72.7186V213.695H75.2086V207.71H76.6936V215ZM84.9543 215H83.4693V211.895H80.1693V215H78.6843V207.71H80.1693V210.59H83.4693V207.71H84.9543V215ZM93.1711 207.71L89.2861 217.85H87.7411L88.9261 214.865L86.1811 207.71H87.7561L89.7061 213.185L91.5961 207.71H93.1711ZM97.4625 210.59C97.4825 210.05 97.5475 209.61 97.6575 209.27C97.7775 208.93 97.9575 208.64 98.1975 208.4C98.4875 208.12 98.8425 207.915 99.2625 207.785C99.6925 207.655 100.222 207.59 100.852 207.59C102.062 207.59 102.947 207.86 103.507 208.4C103.817 208.71 104.027 209.13 104.137 209.66C104.217 210.07 104.257 210.635 104.257 211.355C104.257 212.175 104.202 212.8 104.092 213.23C103.972 213.68 103.777 214.035 103.507 214.295C102.947 214.845 102.062 215.12 100.852 215.12C100.202 215.12 99.6575 215.05 99.2175 214.91C98.8175 214.78 98.4775 214.575 98.1975 214.295C97.9575 214.055 97.7775 213.75 97.6575 213.38C97.5375 213 97.4725 212.505 97.4625 211.895H95.8725V215H94.3875V207.71H95.8725V210.59H97.4625ZM100.852 208.91C100.272 208.91 99.8425 208.995 99.5625 209.165C99.3025 209.325 99.1275 209.59 99.0375 209.96C98.9675 210.24 98.9325 210.7 98.9325 211.34C98.9325 211.99 98.9675 212.455 99.0375 212.735C99.1275 213.105 99.3025 213.37 99.5625 213.53C99.8425 213.7 100.272 213.785 100.852 213.785C101.432 213.785 101.862 213.7 102.142 213.53C102.412 213.37 102.587 213.105 102.667 212.735C102.737 212.455 102.772 211.99 102.772 211.34C102.772 210.7 102.737 210.235 102.667 209.945C102.577 209.575 102.402 209.315 102.142 209.165C101.862 208.995 101.432 208.91 100.852 208.91ZM115.863 215H114.378V209H111.078V215H109.593V207.71H115.863V215ZM121.064 207.59C122.274 207.59 123.154 207.86 123.704 208.4C124.014 208.71 124.229 209.13 124.349 209.66C124.429 210.07 124.469 210.635 124.469 211.355C124.469 212.175 124.414 212.805 124.304 213.245C124.184 213.685 123.984 214.035 123.704 214.295C123.154 214.845 122.274 215.12 121.064 215.12C120.404 215.12 119.859 215.05 119.429 214.91C119.019 214.78 118.679 214.575 118.409 214.295C118.099 213.995 117.884 213.58 117.764 213.05C117.684 212.64 117.644 212.075 117.644 211.355C117.644 210.535 117.699 209.905 117.809 209.465C117.929 209.025 118.129 208.67 118.409 208.4C118.689 208.12 119.039 207.915 119.459 207.785C119.889 207.655 120.424 207.59 121.064 207.59ZM121.064 208.91C120.484 208.91 120.054 208.995 119.774 209.165C119.514 209.325 119.339 209.59 119.249 209.96C119.179 210.24 119.144 210.705 119.144 211.355C119.144 211.995 119.179 212.455 119.249 212.735C119.339 213.105 119.514 213.37 119.774 213.53C120.054 213.7 120.484 213.785 121.064 213.785C121.644 213.785 122.074 213.7 122.354 213.53C122.614 213.37 122.784 213.105 122.864 212.735C122.934 212.455 122.969 211.995 122.969 211.355C122.969 210.705 122.934 210.235 122.864 209.945C122.774 209.575 122.599 209.315 122.339 209.165C122.059 208.995 121.634 208.91 121.064 208.91ZM133.209 216.755H131.814V214.955H126.729V216.755H125.319V213.68C125.709 213.68 126.014 213.57 126.234 213.35C126.414 213.16 126.549 212.88 126.639 212.51L127.779 207.71H132.339V213.68H133.209V216.755ZM130.854 213.68V209H128.964L128.139 212.465C127.989 213.135 127.774 213.54 127.494 213.68H130.854ZM140.822 207.71L136.937 217.85H135.392L136.577 214.865L133.832 207.71H135.407L137.357 213.185L139.247 207.71H140.822ZM151.474 215H142.039V207.71H143.524V213.695H146.014V207.71H147.499V213.695H149.989V207.71H151.474V215ZM160.17 215H158.19L154.965 211.625V215H153.465V207.71H154.965V210.665L158.205 207.71H160.14L156.36 211.115L160.17 215ZM167.966 207.71L164.081 217.85H162.536L163.721 214.865L160.976 207.71H162.551L164.501 213.185L166.391 207.71H167.966ZM179.732 216.755H178.337V214.955H173.252V216.755H171.842V213.68C172.232 213.68 172.537 213.57 172.757 213.35C172.937 213.16 173.072 212.88 173.162 212.51L174.302 207.71H178.862V213.68H179.732V216.755ZM177.377 213.68V209H175.487L174.662 212.465C174.512 213.135 174.297 213.54 174.017 213.68H177.377ZM187.241 215H185.756V209H183.851L182.921 212.975C182.811 213.425 182.696 213.77 182.576 214.01C182.456 214.25 182.306 214.45 182.126 214.61C181.726 214.95 181.091 215.12 180.221 215.12V213.755C180.601 213.755 180.881 213.675 181.061 213.515C181.251 213.345 181.401 213.04 181.511 212.6L182.666 207.71H187.241V215ZM195.371 215H193.886V212.075H193.436C193.116 212.075 192.891 212.09 192.761 212.12C192.641 212.14 192.531 212.185 192.431 212.255C192.281 212.355 192.046 212.645 191.726 213.125L190.466 215H188.741L190.841 211.97C190.251 211.92 189.821 211.72 189.551 211.37C189.281 211.04 189.146 210.545 189.146 209.885C189.146 208.915 189.441 208.285 190.031 207.995C190.401 207.805 191.046 207.71 191.966 207.71H195.371V215ZM193.886 210.83V208.985H192.326C191.856 208.985 191.526 208.995 191.336 209.015C191.156 209.035 191.011 209.075 190.901 209.135C190.701 209.255 190.601 209.52 190.601 209.93C190.601 210.24 190.666 210.46 190.796 210.59C190.936 210.71 191.181 210.775 191.531 210.785L192.191 210.83H193.886ZM206.251 211.19C206.581 211.32 206.816 211.515 206.956 211.775C207.096 212.025 207.166 212.395 207.166 212.885C207.166 213.735 206.826 214.34 206.146 214.7C205.606 214.98 204.816 215.12 203.776 215.12C202.766 215.12 202.006 214.95 201.496 214.61C200.926 214.24 200.641 213.65 200.641 212.84H202.051C202.051 213.27 202.271 213.55 202.711 213.68C202.951 213.76 203.326 213.8 203.836 213.8C204.576 213.8 205.081 213.725 205.351 213.575C205.611 213.435 205.741 213.185 205.741 212.825C205.741 212.545 205.696 212.34 205.606 212.21C205.506 212.08 205.336 211.99 205.096 211.94C204.856 211.89 204.456 211.865 203.896 211.865H203.086V210.605H203.896C204.586 210.605 205.046 210.545 205.276 210.425C205.526 210.295 205.651 210.07 205.651 209.75C205.651 209.41 205.511 209.185 205.231 209.075C204.971 208.975 204.501 208.925 203.821 208.925C203.241 208.925 202.826 208.975 202.576 209.075C202.226 209.225 202.051 209.485 202.051 209.855H200.641C200.641 208.955 201.001 208.325 201.721 207.965C202.221 207.715 202.906 207.59 203.776 207.59C204.996 207.59 205.856 207.76 206.356 208.1C206.836 208.42 207.076 208.925 207.076 209.615C207.076 209.995 207.016 210.305 206.896 210.545C206.766 210.815 206.551 211.03 206.251 211.19ZM215.119 215H213.784V214.34C213.544 214.59 213.219 214.785 212.809 214.925C212.399 215.055 211.939 215.12 211.429 215.12C210.429 215.12 209.704 214.925 209.254 214.535C208.814 214.165 208.594 213.59 208.594 212.81C208.594 211.81 208.949 211.14 209.659 210.8C210.099 210.58 210.764 210.47 211.654 210.47H213.664C213.664 210.07 213.649 209.785 213.619 209.615C213.589 209.445 213.519 209.31 213.409 209.21C213.189 208.98 212.714 208.865 211.984 208.865C211.424 208.865 211.019 208.92 210.769 209.03C210.419 209.17 210.244 209.43 210.244 209.81H208.804C208.804 208.92 209.174 208.3 209.914 207.95C210.424 207.71 211.144 207.59 212.074 207.59C213.304 207.59 214.154 207.895 214.624 208.505C214.954 208.935 215.119 209.56 215.119 210.38V215ZM213.694 211.7H211.594C210.994 211.7 210.594 211.78 210.394 211.94C210.194 212.1 210.094 212.385 210.094 212.795C210.094 213.195 210.214 213.475 210.454 213.635C210.694 213.795 211.084 213.875 211.624 213.875C212.564 213.875 213.164 213.67 213.424 213.26C213.604 212.98 213.694 212.46 213.694 211.7ZM227.344 216.755H225.949V215H217.024V207.71H218.509V213.695H220.999V207.71H222.484V213.695H224.974V207.71H226.459V213.695H227.344V216.755ZM235.072 215H233.692V209.795L230.347 215H228.802V207.71H230.197V212.9L233.542 207.71H235.072V215ZM242.733 209H240.213V215H238.728V209H236.208V207.71H242.733V209ZM245.315 210.65H247.52C248.08 210.65 248.51 210.69 248.81 210.77C249.11 210.85 249.355 210.99 249.545 211.19C249.875 211.52 250.04 212.06 250.04 212.81C250.04 213.58 249.87 214.13 249.53 214.46C249.37 214.62 249.19 214.74 248.99 214.82C248.79 214.89 248.515 214.94 248.165 214.97C247.945 214.99 247.77 215 247.64 215H243.935V207.74H245.315V210.65ZM245.315 213.785H247.13C247.78 213.785 248.19 213.715 248.36 213.575C248.51 213.455 248.585 213.205 248.585 212.825C248.585 212.575 248.56 212.39 248.51 212.27C248.47 212.15 248.39 212.06 248.27 212C248.08 211.91 247.655 211.865 246.995 211.865H245.315V213.785ZM252.71 207.71V215H251.225V207.71H252.71ZM33.185 233H31.85V232.34C31.61 232.59 31.285 232.785 30.875 232.925C30.465 233.055 30.005 233.12 29.495 233.12C28.495 233.12 27.77 232.925 27.32 232.535C26.88 232.165 26.66 231.59 26.66 230.81C26.66 229.81 27.015 229.14 27.725 228.8C28.165 228.58 28.83 228.47 29.72 228.47H31.73C31.73 228.07 31.715 227.785 31.685 227.615C31.655 227.445 31.585 227.31 31.475 227.21C31.255 226.98 30.78 226.865 30.05 226.865C29.49 226.865 29.085 226.92 28.835 227.03C28.485 227.17 28.31 227.43 28.31 227.81H26.87C26.87 226.92 27.24 226.3 27.98 225.95C28.49 225.71 29.21 225.59 30.14 225.59C31.37 225.59 32.22 225.895 32.69 226.505C33.02 226.935 33.185 227.56 33.185 228.38V233ZM31.76 229.7H29.66C29.06 229.7 28.66 229.78 28.46 229.94C28.26 230.1 28.16 230.385 28.16 230.795C28.16 231.195 28.28 231.475 28.52 231.635C28.76 231.795 29.15 231.875 29.69 231.875C30.63 231.875 31.23 231.67 31.49 231.26C31.67 230.98 31.76 230.46 31.76 229.7ZM40.5956 229.205C40.8556 229.345 41.0406 229.545 41.1506 229.805C41.2706 230.055 41.3306 230.395 41.3306 230.825C41.3306 231.585 41.1456 232.13 40.7756 232.46C40.5156 232.7 40.2056 232.85 39.8456 232.91C39.5256 232.97 38.9806 233 38.2106 233H35.0756V225.68H38.1356C38.8156 225.68 39.2856 225.695 39.5456 225.725C39.8156 225.745 40.0556 225.79 40.2656 225.86C40.9256 226.11 41.2556 226.685 41.2556 227.585C41.2556 228.405 41.0356 228.945 40.5956 229.205ZM39.6656 228.455C39.8056 228.315 39.8756 228.09 39.8756 227.78C39.8756 227.41 39.7756 227.165 39.5756 227.045C39.3956 226.945 39.0706 226.895 38.6006 226.895H36.4706V228.635H38.3006H38.4506C38.8406 228.635 39.1156 228.625 39.2756 228.605C39.4356 228.585 39.5656 228.535 39.6656 228.455ZM36.4706 231.785H38.2856C38.9156 231.785 39.3256 231.745 39.5156 231.665C39.7756 231.565 39.9056 231.28 39.9056 230.81C39.9056 230.45 39.8356 230.205 39.6956 230.075C39.5856 229.975 39.4306 229.91 39.2306 229.88C39.0406 229.85 38.6756 229.835 38.1356 229.835H36.4706V231.785ZM48.8319 227H46.3119V233H44.8269V227H42.3069V225.71H48.8319V227ZM53.1834 225.59C54.3934 225.59 55.2734 225.86 55.8234 226.4C56.1334 226.71 56.3484 227.13 56.4684 227.66C56.5484 228.07 56.5884 228.635 56.5884 229.355C56.5884 230.175 56.5334 230.805 56.4234 231.245C56.3034 231.685 56.1034 232.035 55.8234 232.295C55.2734 232.845 54.3934 233.12 53.1834 233.12C52.5234 233.12 51.9784 233.05 51.5484 232.91C51.1384 232.78 50.7984 232.575 50.5284 232.295C50.2184 231.995 50.0034 231.58 49.8834 231.05C49.8034 230.64 49.7634 230.075 49.7634 229.355C49.7634 228.535 49.8184 227.905 49.9284 227.465C50.0484 227.025 50.2484 226.67 50.5284 226.4C50.8084 226.12 51.1584 225.915 51.5784 225.785C52.0084 225.655 52.5434 225.59 53.1834 225.59ZM53.1834 226.91C52.6034 226.91 52.1734 226.995 51.8934 227.165C51.6334 227.325 51.4584 227.59 51.3684 227.96C51.2984 228.24 51.2634 228.705 51.2634 229.355C51.2634 229.995 51.2984 230.455 51.3684 230.735C51.4584 231.105 51.6334 231.37 51.8934 231.53C52.1734 231.7 52.6034 231.785 53.1834 231.785C53.7634 231.785 54.1934 231.7 54.4734 231.53C54.7334 231.37 54.9034 231.105 54.9834 230.735C55.0534 230.455 55.0884 229.995 55.0884 229.355C55.0884 228.705 55.0534 228.235 54.9834 227.945C54.8934 227.575 54.7184 227.315 54.4584 227.165C54.1784 226.995 53.7534 226.91 53.1834 226.91ZM66.4377 233H65.0127V227.99L63.0627 233H61.6827L59.7477 227.99V233H58.3377V225.71H60.2277L62.4027 231.185L64.6077 225.71H66.4377V233ZM71.6404 225.59C72.8504 225.59 73.7304 225.86 74.2804 226.4C74.5904 226.71 74.8054 227.13 74.9254 227.66C75.0054 228.07 75.0454 228.635 75.0454 229.355C75.0454 230.175 74.9904 230.805 74.8804 231.245C74.7604 231.685 74.5604 232.035 74.2804 232.295C73.7304 232.845 72.8504 233.12 71.6404 233.12C70.9804 233.12 70.4354 233.05 70.0054 232.91C69.5954 232.78 69.2554 232.575 68.9854 232.295C68.6754 231.995 68.4604 231.58 68.3404 231.05C68.2604 230.64 68.2204 230.075 68.2204 229.355C68.2204 228.535 68.2754 227.905 68.3854 227.465C68.5054 227.025 68.7054 226.67 68.9854 226.4C69.2654 226.12 69.6154 225.915 70.0354 225.785C70.4654 225.655 71.0004 225.59 71.6404 225.59ZM71.6404 226.91C71.0604 226.91 70.6304 226.995 70.3504 227.165C70.0904 227.325 69.9154 227.59 69.8254 227.96C69.7554 228.24 69.7204 228.705 69.7204 229.355C69.7204 229.995 69.7554 230.455 69.8254 230.735C69.9154 231.105 70.0904 231.37 70.3504 231.53C70.6304 231.7 71.0604 231.785 71.6404 231.785C72.2204 231.785 72.6504 231.7 72.9304 231.53C73.1904 231.37 73.3604 231.105 73.4404 230.735C73.5104 230.455 73.5454 229.995 73.5454 229.355C73.5454 228.705 73.5104 228.235 73.4404 227.945C73.3504 227.575 73.1754 227.315 72.9154 227.165C72.6354 226.995 72.2104 226.91 71.6404 226.91ZM78.1597 226.235C78.6397 225.775 79.3697 225.55 80.3497 225.56C81.1097 225.57 81.6947 225.69 82.1047 225.92C82.5347 226.16 82.8447 226.555 83.0347 227.105C83.2147 227.635 83.3047 228.375 83.3047 229.325C83.3047 230.145 83.2497 230.775 83.1397 231.215C83.0297 231.655 82.8397 232.015 82.5697 232.295C82.0497 232.845 81.2047 233.12 80.0347 233.12C78.8647 233.12 78.0197 232.855 77.4997 232.325C77.2097 232.035 77.0097 231.68 76.8997 231.26C76.7997 230.84 76.7497 230.21 76.7497 229.37V226.505C76.7497 225.895 76.8047 225.405 76.9147 225.035C77.0247 224.655 77.2047 224.335 77.4547 224.075C77.6947 223.835 77.9847 223.65 78.3247 223.52C78.6747 223.39 79.1147 223.3 79.6447 223.25L79.9297 223.22C80.4897 223.17 80.8597 223.1 81.0397 223.01C81.2197 222.91 81.3147 222.74 81.3247 222.5H82.7047C82.7047 222.88 82.6697 223.175 82.5997 223.385C82.5297 223.595 82.4047 223.78 82.2247 223.94C82.0547 224.1 81.8347 224.22 81.5647 224.3C81.2947 224.38 80.8897 224.445 80.3497 224.495C79.7997 224.545 79.4147 224.605 79.1947 224.675C78.9747 224.735 78.7547 224.86 78.5347 225.05C78.4247 225.18 78.3497 225.3 78.3097 225.41C78.2697 225.51 78.2297 225.685 78.1897 225.935C78.1797 226.045 78.1697 226.145 78.1597 226.235ZM81.8947 229.34C81.8947 228.67 81.8497 228.17 81.7597 227.84C81.6597 227.49 81.4947 227.245 81.2647 227.105C81.0347 226.965 80.6797 226.89 80.1997 226.88C79.6497 226.87 79.2397 226.93 78.9697 227.06C78.6797 227.2 78.4697 227.445 78.3397 227.795C78.2197 228.145 78.1547 228.67 78.1447 229.37C78.1447 229.47 78.1447 229.54 78.1447 229.58C78.1447 230.2 78.1947 230.665 78.2947 230.975C78.4047 231.295 78.5847 231.52 78.8347 231.65C79.0947 231.77 79.4897 231.83 80.0197 231.83C80.5597 231.83 80.9497 231.77 81.1897 231.65C81.4597 231.51 81.6447 231.275 81.7447 230.945C81.8447 230.615 81.8947 230.08 81.8947 229.34ZM91.4 233H90.02V227.795L86.675 233H85.13V225.71H86.525V230.9L89.87 225.71H91.4V233ZM99.5114 233H98.0264V227H96.1214L95.1914 230.975C95.0814 231.425 94.9664 231.77 94.8464 232.01C94.7264 232.25 94.5764 232.45 94.3964 232.61C93.9964 232.95 93.3614 233.12 92.4914 233.12V231.755C92.8714 231.755 93.1514 231.675 93.3314 231.515C93.5214 231.345 93.6714 231.04 93.7814 230.6L94.9364 225.71H99.5114V233ZM107.642 233H106.157V230.075H105.707C105.387 230.075 105.162 230.09 105.032 230.12C104.912 230.14 104.802 230.185 104.702 230.255C104.552 230.355 104.317 230.645 103.997 231.125L102.737 233H101.012L103.112 229.97C102.522 229.92 102.092 229.72 101.822 229.37C101.552 229.04 101.417 228.545 101.417 227.885C101.417 226.915 101.712 226.285 102.302 225.995C102.672 225.805 103.317 225.71 104.237 225.71H107.642V233ZM106.157 228.83V226.985H104.597C104.127 226.985 103.797 226.995 103.607 227.015C103.427 227.035 103.282 227.075 103.172 227.135C102.972 227.255 102.872 227.52 102.872 227.93C102.872 228.24 102.937 228.46 103.067 228.59C103.207 228.71 103.452 228.775 103.802 228.785L104.462 228.83H106.157ZM116.391 225.59C117.601 225.59 118.481 225.86 119.031 226.4C119.341 226.71 119.556 227.13 119.676 227.66C119.756 228.07 119.796 228.635 119.796 229.355C119.796 230.175 119.741 230.805 119.631 231.245C119.511 231.685 119.311 232.035 119.031 232.295C118.481 232.845 117.601 233.12 116.391 233.12C115.731 233.12 115.186 233.05 114.756 232.91C114.346 232.78 114.006 232.575 113.736 232.295C113.426 231.995 113.211 231.58 113.091 231.05C113.011 230.64 112.971 230.075 112.971 229.355C112.971 228.535 113.026 227.905 113.136 227.465C113.256 227.025 113.456 226.67 113.736 226.4C114.016 226.12 114.366 225.915 114.786 225.785C115.216 225.655 115.751 225.59 116.391 225.59ZM116.391 226.91C115.811 226.91 115.381 226.995 115.101 227.165C114.841 227.325 114.666 227.59 114.576 227.96C114.506 228.24 114.471 228.705 114.471 229.355C114.471 229.995 114.506 230.455 114.576 230.735C114.666 231.105 114.841 231.37 115.101 231.53C115.381 231.7 115.811 231.785 116.391 231.785C116.971 231.785 117.401 231.7 117.681 231.53C117.941 231.37 118.111 231.105 118.191 230.735C118.261 230.455 118.296 229.995 118.296 229.355C118.296 228.705 118.261 228.235 118.191 227.945C118.101 227.575 117.926 227.315 117.666 227.165C117.386 226.995 116.961 226.91 116.391 226.91ZM127.128 227H124.608V233H123.123V227H120.603V225.71H127.128V227ZM137.334 229.205C137.594 229.345 137.779 229.545 137.889 229.805C138.009 230.055 138.069 230.395 138.069 230.825C138.069 231.585 137.884 232.13 137.514 232.46C137.254 232.7 136.944 232.85 136.584 232.91C136.264 232.97 135.719 233 134.949 233H131.814V225.68H134.874C135.554 225.68 136.024 225.695 136.284 225.725C136.554 225.745 136.794 225.79 137.004 225.86C137.664 226.11 137.994 226.685 137.994 227.585C137.994 228.405 137.774 228.945 137.334 229.205ZM136.404 228.455C136.544 228.315 136.614 228.09 136.614 227.78C136.614 227.41 136.514 227.165 136.314 227.045C136.134 226.945 135.809 226.895 135.339 226.895H133.209V228.635H135.039H135.189C135.579 228.635 135.854 228.625 136.014 228.605C136.174 228.585 136.304 228.535 136.404 228.455ZM133.209 231.785H135.024C135.654 231.785 136.064 231.745 136.254 231.665C136.514 231.565 136.644 231.28 136.644 230.81C136.644 230.45 136.574 230.205 136.434 230.075C136.324 229.975 136.169 229.91 135.969 229.88C135.779 229.85 135.414 229.835 134.874 229.835H133.209V231.785ZM143.11 225.59C144.32 225.59 145.2 225.86 145.75 226.4C146.06 226.71 146.275 227.13 146.395 227.66C146.475 228.07 146.515 228.635 146.515 229.355C146.515 230.175 146.46 230.805 146.35 231.245C146.23 231.685 146.03 232.035 145.75 232.295C145.2 232.845 144.32 233.12 143.11 233.12C142.45 233.12 141.905 233.05 141.475 232.91C141.065 232.78 140.725 232.575 140.455 232.295C140.145 231.995 139.93 231.58 139.81 231.05C139.73 230.64 139.69 230.075 139.69 229.355C139.69 228.535 139.745 227.905 139.855 227.465C139.975 227.025 140.175 226.67 140.455 226.4C140.735 226.12 141.085 225.915 141.505 225.785C141.935 225.655 142.47 225.59 143.11 225.59ZM143.11 226.91C142.53 226.91 142.1 226.995 141.82 227.165C141.56 227.325 141.385 227.59 141.295 227.96C141.225 228.24 141.19 228.705 141.19 229.355C141.19 229.995 141.225 230.455 141.295 230.735C141.385 231.105 141.56 231.37 141.82 231.53C142.1 231.7 142.53 231.785 143.11 231.785C143.69 231.785 144.12 231.7 144.4 231.53C144.66 231.37 144.83 231.105 144.91 230.735C144.98 230.455 145.015 229.995 145.015 229.355C145.015 228.705 144.98 228.235 144.91 227.945C144.82 227.575 144.645 227.315 144.385 227.165C144.105 226.995 143.68 226.91 143.11 226.91ZM155.254 234.755H153.859V232.955H148.774V234.755H147.364V231.68C147.754 231.68 148.059 231.57 148.279 231.35C148.459 231.16 148.594 230.88 148.684 230.51L149.824 225.71H154.384V231.68H155.254V234.755ZM152.899 231.68V227H151.009L150.184 230.465C150.034 231.135 149.819 231.54 149.539 231.68H152.899ZM158.083 228.65H160.288C160.848 228.65 161.278 228.69 161.578 228.77C161.878 228.85 162.123 228.99 162.313 229.19C162.643 229.52 162.808 230.06 162.808 230.81C162.808 231.58 162.638 232.13 162.298 232.46C162.138 232.62 161.958 232.74 161.758 232.82C161.558 232.89 161.283 232.94 160.933 232.97C160.713 232.99 160.538 233 160.408 233H156.703V225.74H158.083V228.65ZM158.083 231.785H159.898C160.548 231.785 160.958 231.715 161.128 231.575C161.278 231.455 161.353 231.205 161.353 230.825C161.353 230.575 161.328 230.39 161.278 230.27C161.238 230.15 161.158 230.06 161.038 230C160.848 229.91 160.423 229.865 159.763 229.865H158.083V231.785ZM165.478 225.71V233H163.993V225.71H165.478ZM177.211 233H175.831V227.795L172.486 233H170.941V225.71H172.336V230.9L175.681 225.71H177.211V233ZM188.296 227H184.246V233H182.761V225.71H188.296V227ZM190.718 226.355C191.258 225.835 192.028 225.58 193.028 225.59C193.868 225.6 194.513 225.76 194.963 226.07C195.373 226.35 195.653 226.785 195.803 227.375C195.923 227.835 195.983 228.5 195.983 229.37C195.983 230.11 195.923 230.705 195.803 231.155C195.643 231.765 195.358 232.23 194.948 232.55C194.458 232.93 193.768 233.12 192.878 233.12C192.398 233.12 191.993 233.065 191.663 232.955C191.343 232.835 191.068 232.645 190.838 232.385V235.865H189.353V225.71H190.718V226.355ZM192.848 226.94C192.308 226.94 191.903 227.005 191.633 227.135C191.343 227.275 191.138 227.515 191.018 227.855C190.898 228.195 190.838 228.695 190.838 229.355C190.838 230.015 190.898 230.515 191.018 230.855C191.138 231.195 191.333 231.435 191.603 231.575C191.883 231.715 192.298 231.785 192.848 231.785C193.308 231.785 193.658 231.705 193.898 231.545C194.118 231.395 194.273 231.16 194.363 230.84C194.453 230.51 194.498 230.015 194.498 229.355C194.498 228.385 194.378 227.74 194.138 227.42C193.908 227.1 193.478 226.94 192.848 226.94ZM203.882 233H202.397V230.075H201.947C201.627 230.075 201.402 230.09 201.272 230.12C201.152 230.14 201.042 230.185 200.942 230.255C200.792 230.355 200.557 230.645 200.237 231.125L198.977 233H197.252L199.352 229.97C198.762 229.92 198.332 229.72 198.062 229.37C197.792 229.04 197.657 228.545 197.657 227.885C197.657 226.915 197.952 226.285 198.542 225.995C198.912 225.805 199.557 225.71 200.477 225.71H203.882V233ZM202.397 228.83V226.985H200.837C200.367 226.985 200.037 226.995 199.847 227.015C199.667 227.035 199.522 227.075 199.412 227.135C199.212 227.255 199.112 227.52 199.112 227.93C199.112 228.24 199.177 228.46 199.307 228.59C199.447 228.71 199.692 228.775 200.042 228.785L200.702 228.83H202.397ZM211.202 229.19C211.532 229.32 211.767 229.515 211.907 229.775C212.047 230.025 212.117 230.395 212.117 230.885C212.117 231.735 211.777 232.34 211.097 232.7C210.557 232.98 209.767 233.12 208.727 233.12C207.717 233.12 206.957 232.95 206.447 232.61C205.877 232.24 205.592 231.65 205.592 230.84H207.002C207.002 231.27 207.222 231.55 207.662 231.68C207.902 231.76 208.277 231.8 208.787 231.8C209.527 231.8 210.032 231.725 210.302 231.575C210.562 231.435 210.692 231.185 210.692 230.825C210.692 230.545 210.647 230.34 210.557 230.21C210.457 230.08 210.287 229.99 210.047 229.94C209.807 229.89 209.407 229.865 208.847 229.865H208.037V228.605H208.847C209.537 228.605 209.997 228.545 210.227 228.425C210.477 228.295 210.602 228.07 210.602 227.75C210.602 227.41 210.462 227.185 210.182 227.075C209.922 226.975 209.452 226.925 208.772 226.925C208.192 226.925 207.777 226.975 207.527 227.075C207.177 227.225 207.002 227.485 207.002 227.855H205.592C205.592 226.955 205.952 226.325 206.672 225.965C207.172 225.715 207.857 225.59 208.727 225.59C209.947 225.59 210.807 225.76 211.307 226.1C211.787 226.42 212.027 226.925 212.027 227.615C212.027 227.995 211.967 228.305 211.847 228.545C211.717 228.815 211.502 229.03 211.202 229.19ZM220.16 233H218.78V227.795L215.435 233H213.89V225.71H215.285V230.9L218.63 225.71H220.16V233ZM222.901 231.245C223.521 231.245 223.831 231.55 223.831 232.16C223.831 232.49 223.741 232.735 223.561 232.895C223.411 233.045 223.191 233.12 222.901 233.12C222.581 233.12 222.341 233.025 222.181 232.835C222.041 232.675 221.971 232.45 221.971 232.16C221.971 231.55 222.281 231.245 222.901 231.245Z" fill="#0C121C"/>
<circle cx="183" cy="27" r="26" stroke="white" stroke-width="2"/>
<path d="M183 53V90C183 95.5228 178.523 100 173 100H11C5.47715 100 1 104.477 1 110V181C1 186.523 5.47715 191 11 191H25" stroke="url(#paint0_linear_13_1563)" stroke-width="2" stroke-linecap="round"/>
<defs>
<linearGradient id="paint0_linear_13_1563" x1="157.5" y1="70.5" x2="106" y2="137" gradientUnits="userSpaceOnUse">
<stop stop-color="white"/>
<stop offset="0.0917343" stop-color="#0C121C"/>
</linearGradient>
</defs>
</svg>
