<svg width="306" height="170" viewBox="0 0 306 170" fill="none" xmlns="http://www.w3.org/2000/svg">
<path d="M34.685 131H33.125V122.375H28.76V131H27.2V120.995H34.685V131ZM43.133 131H41.648V127.895H38.348V131H36.863V123.71H38.348V126.59H41.648V123.71H43.133V131ZM51.4848 127.895H46.4148C46.4148 128.385 46.4598 128.76 46.5498 129.02C46.6498 129.31 46.8348 129.525 47.1048 129.665C47.3748 129.795 47.7748 129.86 48.3048 129.86C48.8148 129.86 49.2048 129.795 49.4748 129.665C49.8148 129.505 49.9898 129.23 49.9998 128.84H51.3948C51.3948 129.75 51.0048 130.39 50.2248 130.76C49.7248 131 49.0698 131.12 48.2598 131.12C46.8398 131.12 45.8898 130.735 45.4098 129.965C45.0798 129.435 44.9148 128.59 44.9148 127.43C44.9148 126.59 44.9848 125.925 45.1248 125.435C45.3048 124.835 45.6198 124.385 46.0698 124.085C46.5798 123.755 47.2948 123.59 48.2148 123.59C49.1948 123.59 49.9348 123.775 50.4348 124.145C50.8748 124.475 51.1698 124.98 51.3198 125.66C51.4298 126.14 51.4848 126.885 51.4848 127.895ZM50.0148 126.65C50.0148 126.26 49.9848 125.96 49.9248 125.75C49.8748 125.53 49.7848 125.355 49.6548 125.225C49.4048 124.965 48.9248 124.835 48.2148 124.835C47.5448 124.835 47.0798 124.97 46.8198 125.24C46.5598 125.5 46.4298 125.97 46.4298 126.65H50.0148ZM58.745 127.205C59.005 127.345 59.19 127.545 59.3 127.805C59.42 128.055 59.48 128.395 59.48 128.825C59.48 129.585 59.295 130.13 58.925 130.46C58.665 130.7 58.355 130.85 57.995 130.91C57.675 130.97 57.13 131 56.36 131H53.225V123.68H56.285C56.965 123.68 57.435 123.695 57.695 123.725C57.965 123.745 58.205 123.79 58.415 123.86C59.075 124.11 59.405 124.685 59.405 125.585C59.405 126.405 59.185 126.945 58.745 127.205ZM57.815 126.455C57.955 126.315 58.025 126.09 58.025 125.78C58.025 125.41 57.925 125.165 57.725 125.045C57.545 124.945 57.22 124.895 56.75 124.895H54.62V126.635H56.45H56.6C56.99 126.635 57.265 126.625 57.425 126.605C57.585 126.585 57.715 126.535 57.815 126.455ZM54.62 129.785H56.435C57.065 129.785 57.475 129.745 57.665 129.665C57.925 129.565 58.055 129.28 58.055 128.81C58.055 128.45 57.985 128.205 57.845 128.075C57.735 127.975 57.58 127.91 57.38 127.88C57.19 127.85 56.825 127.835 56.285 127.835H54.62V129.785ZM69.4113 131H67.9863V125.99L66.0363 131H64.6563L62.7213 125.99V131H61.3113V123.71H63.2013L65.3763 129.185L67.5813 123.71H69.4113V131ZM77.5991 131H76.2641V130.34C76.0241 130.59 75.6991 130.785 75.2891 130.925C74.8791 131.055 74.4191 131.12 73.9091 131.12C72.9091 131.12 72.1841 130.925 71.7341 130.535C71.2941 130.165 71.0741 129.59 71.0741 128.81C71.0741 127.81 71.4291 127.14 72.1391 126.8C72.5791 126.58 73.2441 126.47 74.1341 126.47H76.1441C76.1441 126.07 76.1291 125.785 76.0991 125.615C76.0691 125.445 75.9991 125.31 75.8891 125.21C75.6691 124.98 75.1941 124.865 74.4641 124.865C73.9041 124.865 73.4991 124.92 73.2491 125.03C72.8991 125.17 72.7241 125.43 72.7241 125.81H71.2841C71.2841 124.92 71.6541 124.3 72.3941 123.95C72.9041 123.71 73.6241 123.59 74.5541 123.59C75.7841 123.59 76.6341 123.895 77.1041 124.505C77.4341 124.935 77.5991 125.56 77.5991 126.38V131ZM76.1741 127.7H74.0741C73.4741 127.7 73.0741 127.78 72.8741 127.94C72.6741 128.1 72.5741 128.385 72.5741 128.795C72.5741 129.195 72.6941 129.475 72.9341 129.635C73.1741 129.795 73.5641 129.875 74.1041 129.875C75.0441 129.875 75.6441 129.67 75.9041 129.26C76.0841 128.98 76.1741 128.46 76.1741 127.7ZM85.1746 125H82.6546V131H81.1696V125H78.6496V123.71H85.1746V125ZM92.6012 131H91.2212V125.795L87.8762 131H86.3312V123.71H87.7262V128.9L91.0712 123.71H92.6012V131ZM100.563 131H99.0775V128.195C98.5675 128.405 97.9175 128.51 97.1275 128.51C96.1275 128.51 95.4025 128.285 94.9525 127.835C94.6925 127.575 94.5175 127.26 94.4275 126.89C94.3375 126.52 94.2925 125.925 94.2925 125.105V123.71H95.7925V125.105V125.51C95.7925 126.1 95.8825 126.51 96.0625 126.74C96.3025 127.04 96.7325 127.19 97.3525 127.19C98.0925 127.18 98.6675 127.085 99.0775 126.905V123.71H100.563V131ZM108.921 127.895H103.851C103.851 128.385 103.896 128.76 103.986 129.02C104.086 129.31 104.271 129.525 104.541 129.665C104.811 129.795 105.211 129.86 105.741 129.86C106.251 129.86 106.641 129.795 106.911 129.665C107.251 129.505 107.426 129.23 107.436 128.84H108.831C108.831 129.75 108.441 130.39 107.661 130.76C107.161 131 106.506 131.12 105.696 131.12C104.276 131.12 103.326 130.735 102.846 129.965C102.516 129.435 102.351 128.59 102.351 127.43C102.351 126.59 102.421 125.925 102.561 125.435C102.741 124.835 103.056 124.385 103.506 124.085C104.016 123.755 104.731 123.59 105.651 123.59C106.631 123.59 107.371 123.775 107.871 124.145C108.311 124.475 108.606 124.98 108.756 125.66C108.866 126.14 108.921 126.885 108.921 127.895ZM107.451 126.65C107.451 126.26 107.421 125.96 107.361 125.75C107.311 125.53 107.221 125.355 107.091 125.225C106.841 124.965 106.361 124.835 105.651 124.835C104.981 124.835 104.516 124.97 104.256 125.24C103.996 125.5 103.866 125.97 103.866 126.65H107.451ZM116.842 128.84C116.842 130.36 115.822 131.12 113.782 131.12C112.332 131.12 111.377 130.705 110.917 129.875C110.717 129.525 110.587 129.08 110.527 128.54C110.487 128.21 110.467 127.805 110.467 127.325C110.467 126.505 110.532 125.87 110.662 125.42C110.832 124.83 111.142 124.385 111.592 124.085C112.102 123.755 112.832 123.59 113.782 123.59C115.822 123.59 116.842 124.345 116.842 125.855H115.432C115.432 125.435 115.227 125.155 114.817 125.015C114.597 124.945 114.262 124.91 113.812 124.91C113.262 124.91 112.852 124.99 112.582 125.15C112.352 125.3 112.192 125.53 112.102 125.84C112.012 126.15 111.967 126.65 111.967 127.34C111.967 127.98 112.002 128.45 112.072 128.75C112.162 129.12 112.332 129.38 112.582 129.53C112.852 129.7 113.262 129.785 113.812 129.785C114.332 129.785 114.707 129.73 114.937 129.62C115.267 129.48 115.432 129.22 115.432 128.84H116.842ZM125.262 131H123.282L120.057 127.625V131H118.557V123.71H120.057V126.665L123.297 123.71H125.232L121.452 127.115L125.262 131ZM132.311 131H130.976V130.34C130.736 130.59 130.411 130.785 130.001 130.925C129.591 131.055 129.131 131.12 128.621 131.12C127.621 131.12 126.896 130.925 126.446 130.535C126.006 130.165 125.786 129.59 125.786 128.81C125.786 127.81 126.141 127.14 126.851 126.8C127.291 126.58 127.956 126.47 128.846 126.47H130.856C130.856 126.07 130.841 125.785 130.811 125.615C130.781 125.445 130.711 125.31 130.601 125.21C130.381 124.98 129.906 124.865 129.176 124.865C128.616 124.865 128.211 124.92 127.961 125.03C127.611 125.17 127.436 125.43 127.436 125.81H125.996C125.996 124.92 126.366 124.3 127.106 123.95C127.616 123.71 128.336 123.59 129.266 123.59C130.496 123.59 131.346 123.895 131.816 124.505C132.146 124.935 132.311 125.56 132.311 126.38V131ZM130.886 127.7H128.786C128.186 127.7 127.786 127.78 127.586 127.94C127.386 128.1 127.286 128.385 127.286 128.795C127.286 129.195 127.406 129.475 127.646 129.635C127.886 129.795 128.276 129.875 128.816 129.875C129.756 129.875 130.356 129.67 130.616 129.26C130.796 128.98 130.886 128.46 130.886 127.7ZM140.352 131H138.867V128.075H138.417C138.097 128.075 137.872 128.09 137.742 128.12C137.622 128.14 137.512 128.185 137.412 128.255C137.262 128.355 137.027 128.645 136.707 129.125L135.447 131H133.722L135.822 127.97C135.232 127.92 134.802 127.72 134.532 127.37C134.262 127.04 134.127 126.545 134.127 125.885C134.127 124.915 134.422 124.285 135.012 123.995C135.382 123.805 136.027 123.71 136.947 123.71H140.352V131ZM138.867 126.83V124.985H137.307C136.837 124.985 136.507 124.995 136.317 125.015C136.137 125.035 135.992 125.075 135.882 125.135C135.682 125.255 135.582 125.52 135.582 125.93C135.582 126.24 135.647 126.46 135.777 126.59C135.917 126.71 136.162 126.775 136.512 126.785L137.172 126.83H138.867ZM152.161 131H150.676V125H147.376V131H145.891V123.71H152.161V131ZM157.363 123.59C158.573 123.59 159.453 123.86 160.003 124.4C160.313 124.71 160.528 125.13 160.648 125.66C160.728 126.07 160.768 126.635 160.768 127.355C160.768 128.175 160.713 128.805 160.603 129.245C160.483 129.685 160.283 130.035 160.003 130.295C159.453 130.845 158.573 131.12 157.363 131.12C156.703 131.12 156.158 131.05 155.728 130.91C155.318 130.78 154.978 130.575 154.708 130.295C154.398 129.995 154.183 129.58 154.063 129.05C153.983 128.64 153.943 128.075 153.943 127.355C153.943 126.535 153.998 125.905 154.108 125.465C154.228 125.025 154.428 124.67 154.708 124.4C154.988 124.12 155.338 123.915 155.758 123.785C156.188 123.655 156.723 123.59 157.363 123.59ZM157.363 124.91C156.783 124.91 156.353 124.995 156.073 125.165C155.813 125.325 155.638 125.59 155.548 125.96C155.478 126.24 155.443 126.705 155.443 127.355C155.443 127.995 155.478 128.455 155.548 128.735C155.638 129.105 155.813 129.37 156.073 129.53C156.353 129.7 156.783 129.785 157.363 129.785C157.943 129.785 158.373 129.7 158.653 129.53C158.913 129.37 159.083 129.105 159.163 128.735C159.233 128.455 159.268 127.995 159.268 127.355C159.268 126.705 159.233 126.235 159.163 125.945C159.073 125.575 158.898 125.315 158.638 125.165C158.358 124.995 157.933 124.91 157.363 124.91ZM169.507 132.755H168.112V130.955H163.027V132.755H161.617V129.68C162.007 129.68 162.312 129.57 162.532 129.35C162.712 129.16 162.847 128.88 162.937 128.51L164.077 123.71H168.637V129.68H169.507V132.755ZM167.152 129.68V125H165.262L164.437 128.465C164.287 129.135 164.072 129.54 163.792 129.68H167.152ZM176.401 127.205C176.661 127.345 176.846 127.545 176.956 127.805C177.076 128.055 177.136 128.395 177.136 128.825C177.136 129.585 176.951 130.13 176.581 130.46C176.321 130.7 176.011 130.85 175.651 130.91C175.331 130.97 174.786 131 174.016 131H170.881V123.68H173.941C174.621 123.68 175.091 123.695 175.351 123.725C175.621 123.745 175.861 123.79 176.071 123.86C176.731 124.11 177.061 124.685 177.061 125.585C177.061 126.405 176.841 126.945 176.401 127.205ZM175.471 126.455C175.611 126.315 175.681 126.09 175.681 125.78C175.681 125.41 175.581 125.165 175.381 125.045C175.201 124.945 174.876 124.895 174.406 124.895H172.276V126.635H174.106H174.256C174.646 126.635 174.921 126.625 175.081 126.605C175.241 126.585 175.371 126.535 175.471 126.455ZM172.276 129.785H174.091C174.721 129.785 175.131 129.745 175.321 129.665C175.581 129.565 175.711 129.28 175.711 128.81C175.711 128.45 175.641 128.205 175.501 128.075C175.391 127.975 175.236 127.91 175.036 127.88C174.846 127.85 174.481 127.835 173.941 127.835H172.276V129.785ZM185.328 127.895H180.258C180.258 128.385 180.303 128.76 180.393 129.02C180.493 129.31 180.678 129.525 180.948 129.665C181.218 129.795 181.618 129.86 182.148 129.86C182.658 129.86 183.048 129.795 183.318 129.665C183.658 129.505 183.833 129.23 183.843 128.84H185.238C185.238 129.75 184.848 130.39 184.068 130.76C183.568 131 182.913 131.12 182.103 131.12C180.683 131.12 179.733 130.735 179.253 129.965C178.923 129.435 178.758 128.59 178.758 127.43C178.758 126.59 178.828 125.925 178.968 125.435C179.148 124.835 179.463 124.385 179.913 124.085C180.423 123.755 181.138 123.59 182.058 123.59C183.038 123.59 183.778 123.775 184.278 124.145C184.718 124.475 185.013 124.98 185.163 125.66C185.273 126.14 185.328 126.885 185.328 127.895ZM183.858 126.65C183.858 126.26 183.828 125.96 183.768 125.75C183.718 125.53 183.628 125.355 183.498 125.225C183.248 124.965 182.768 124.835 182.058 124.835C181.388 124.835 180.923 124.97 180.663 125.24C180.403 125.5 180.273 125.97 180.273 126.65H183.858ZM193.248 128.84C193.248 130.36 192.228 131.12 190.188 131.12C188.738 131.12 187.783 130.705 187.323 129.875C187.123 129.525 186.993 129.08 186.933 128.54C186.893 128.21 186.873 127.805 186.873 127.325C186.873 126.505 186.938 125.87 187.068 125.42C187.238 124.83 187.548 124.385 187.998 124.085C188.508 123.755 189.238 123.59 190.188 123.59C192.228 123.59 193.248 124.345 193.248 125.855H191.838C191.838 125.435 191.633 125.155 191.223 125.015C191.003 124.945 190.668 124.91 190.218 124.91C189.668 124.91 189.258 124.99 188.988 125.15C188.758 125.3 188.598 125.53 188.508 125.84C188.418 126.15 188.373 126.65 188.373 127.34C188.373 127.98 188.408 128.45 188.478 128.75C188.568 129.12 188.738 129.38 188.988 129.53C189.258 129.7 189.668 129.785 190.218 129.785C190.738 129.785 191.113 129.73 191.343 129.62C191.673 129.48 191.838 129.22 191.838 128.84H193.248ZM201.669 131H199.689L196.464 127.625V131H194.964V123.71H196.464V126.665L199.704 123.71H201.639L197.859 127.115L201.669 131ZM208.717 131H207.382V130.34C207.142 130.59 206.817 130.785 206.407 130.925C205.997 131.055 205.537 131.12 205.027 131.12C204.027 131.12 203.302 130.925 202.852 130.535C202.412 130.165 202.192 129.59 202.192 128.81C202.192 127.81 202.547 127.14 203.257 126.8C203.697 126.58 204.362 126.47 205.252 126.47H207.262C207.262 126.07 207.247 125.785 207.217 125.615C207.187 125.445 207.117 125.31 207.007 125.21C206.787 124.98 206.312 124.865 205.582 124.865C205.022 124.865 204.617 124.92 204.367 125.03C204.017 125.17 203.842 125.43 203.842 125.81H202.402C202.402 124.92 202.772 124.3 203.512 123.95C204.022 123.71 204.742 123.59 205.672 123.59C206.902 123.59 207.752 123.895 208.222 124.505C208.552 124.935 208.717 125.56 208.717 126.38V131ZM207.292 127.7H205.192C204.592 127.7 204.192 127.78 203.992 127.94C203.792 128.1 203.692 128.385 203.692 128.795C203.692 129.195 203.812 129.475 204.052 129.635C204.292 129.795 204.682 129.875 205.222 129.875C206.162 129.875 206.762 129.67 207.022 129.26C207.202 128.98 207.292 128.46 207.292 127.7ZM220.452 131H218.967V125H215.667V131H214.182V123.71H220.452V131ZM225.654 123.59C226.864 123.59 227.744 123.86 228.294 124.4C228.604 124.71 228.819 125.13 228.939 125.66C229.019 126.07 229.059 126.635 229.059 127.355C229.059 128.175 229.004 128.805 228.894 129.245C228.774 129.685 228.574 130.035 228.294 130.295C227.744 130.845 226.864 131.12 225.654 131.12C224.994 131.12 224.449 131.05 224.019 130.91C223.609 130.78 223.269 130.575 222.999 130.295C222.689 129.995 222.474 129.58 222.354 129.05C222.274 128.64 222.234 128.075 222.234 127.355C222.234 126.535 222.289 125.905 222.399 125.465C222.519 125.025 222.719 124.67 222.999 124.4C223.279 124.12 223.629 123.915 224.049 123.785C224.479 123.655 225.014 123.59 225.654 123.59ZM225.654 124.91C225.074 124.91 224.644 124.995 224.364 125.165C224.104 125.325 223.929 125.59 223.839 125.96C223.769 126.24 223.734 126.705 223.734 127.355C223.734 127.995 223.769 128.455 223.839 128.735C223.929 129.105 224.104 129.37 224.364 129.53C224.644 129.7 225.074 129.785 225.654 129.785C226.234 129.785 226.664 129.7 226.944 129.53C227.204 129.37 227.374 129.105 227.454 128.735C227.524 128.455 227.559 127.995 227.559 127.355C227.559 126.705 227.524 126.235 227.454 125.945C227.364 125.575 227.189 125.315 226.929 125.165C226.649 124.995 226.224 124.91 225.654 124.91ZM236.148 127.19C236.478 127.32 236.713 127.515 236.853 127.775C236.993 128.025 237.063 128.395 237.063 128.885C237.063 129.735 236.723 130.34 236.043 130.7C235.503 130.98 234.713 131.12 233.673 131.12C232.663 131.12 231.903 130.95 231.393 130.61C230.823 130.24 230.538 129.65 230.538 128.84H231.948C231.948 129.27 232.168 129.55 232.608 129.68C232.848 129.76 233.223 129.8 233.733 129.8C234.473 129.8 234.978 129.725 235.248 129.575C235.508 129.435 235.638 129.185 235.638 128.825C235.638 128.545 235.593 128.34 235.503 128.21C235.403 128.08 235.233 127.99 234.993 127.94C234.753 127.89 234.353 127.865 233.793 127.865H232.983V126.605H233.793C234.483 126.605 234.943 126.545 235.173 126.425C235.423 126.295 235.548 126.07 235.548 125.75C235.548 125.41 235.408 125.185 235.128 125.075C234.868 124.975 234.398 124.925 233.718 124.925C233.138 124.925 232.723 124.975 232.473 125.075C232.123 125.225 231.948 125.485 231.948 125.855H230.538C230.538 124.955 230.898 124.325 231.618 123.965C232.118 123.715 232.803 123.59 233.673 123.59C234.893 123.59 235.753 123.76 236.253 124.1C236.733 124.42 236.973 124.925 236.973 125.615C236.973 125.995 236.913 126.305 236.793 126.545C236.663 126.815 236.448 127.03 236.148 127.19ZM244.326 127.205C244.586 127.345 244.771 127.545 244.881 127.805C245.001 128.055 245.061 128.395 245.061 128.825C245.061 129.585 244.876 130.13 244.506 130.46C244.246 130.7 243.936 130.85 243.576 130.91C243.256 130.97 242.711 131 241.941 131H238.806V123.68H241.866C242.546 123.68 243.016 123.695 243.276 123.725C243.546 123.745 243.786 123.79 243.996 123.86C244.656 124.11 244.986 124.685 244.986 125.585C244.986 126.405 244.766 126.945 244.326 127.205ZM243.396 126.455C243.536 126.315 243.606 126.09 243.606 125.78C243.606 125.41 243.506 125.165 243.306 125.045C243.126 124.945 242.801 124.895 242.331 124.895H240.201V126.635H242.031H242.181C242.571 126.635 242.846 126.625 243.006 126.605C243.166 126.585 243.296 126.535 243.396 126.455ZM240.201 129.785H242.016C242.646 129.785 243.056 129.745 243.246 129.665C243.506 129.565 243.636 129.28 243.636 128.81C243.636 128.45 243.566 128.205 243.426 128.075C243.316 127.975 243.161 127.91 242.961 127.88C242.771 127.85 242.406 127.835 241.866 127.835H240.201V129.785ZM250.102 123.59C251.312 123.59 252.192 123.86 252.742 124.4C253.052 124.71 253.267 125.13 253.387 125.66C253.467 126.07 253.507 126.635 253.507 127.355C253.507 128.175 253.452 128.805 253.342 129.245C253.222 129.685 253.022 130.035 252.742 130.295C252.192 130.845 251.312 131.12 250.102 131.12C249.442 131.12 248.897 131.05 248.467 130.91C248.057 130.78 247.717 130.575 247.447 130.295C247.137 129.995 246.922 129.58 246.802 129.05C246.722 128.64 246.682 128.075 246.682 127.355C246.682 126.535 246.737 125.905 246.847 125.465C246.967 125.025 247.167 124.67 247.447 124.4C247.727 124.12 248.077 123.915 248.497 123.785C248.927 123.655 249.462 123.59 250.102 123.59ZM250.102 124.91C249.522 124.91 249.092 124.995 248.812 125.165C248.552 125.325 248.377 125.59 248.287 125.96C248.217 126.24 248.182 126.705 248.182 127.355C248.182 127.995 248.217 128.455 248.287 128.735C248.377 129.105 248.552 129.37 248.812 129.53C249.092 129.7 249.522 129.785 250.102 129.785C250.682 129.785 251.112 129.7 251.392 129.53C251.652 129.37 251.822 129.105 251.902 128.735C251.972 128.455 252.007 127.995 252.007 127.355C252.007 126.705 251.972 126.235 251.902 125.945C251.812 125.575 251.637 125.315 251.377 125.165C251.097 124.995 250.672 124.91 250.102 124.91ZM261.377 131H259.892V125H257.987L257.057 128.975C256.947 129.425 256.832 129.77 256.712 130.01C256.592 130.25 256.442 130.45 256.262 130.61C255.862 130.95 255.227 131.12 254.357 131.12V129.755C254.737 129.755 255.017 129.675 255.197 129.515C255.387 129.345 255.537 129.04 255.647 128.6L256.802 123.71H261.377V131ZM269.507 131H268.022V128.075H267.572C267.252 128.075 267.027 128.09 266.897 128.12C266.777 128.14 266.667 128.185 266.567 128.255C266.417 128.355 266.182 128.645 265.862 129.125L264.602 131H262.877L264.977 127.97C264.387 127.92 263.957 127.72 263.687 127.37C263.417 127.04 263.282 126.545 263.282 125.885C263.282 124.915 263.577 124.285 264.167 123.995C264.537 123.805 265.182 123.71 266.102 123.71H269.507V131ZM268.022 126.83V124.985H266.462C265.992 124.985 265.662 124.995 265.472 125.015C265.292 125.035 265.147 125.075 265.037 125.135C264.837 125.255 264.737 125.52 264.737 125.93C264.737 126.24 264.802 126.46 264.932 126.59C265.072 126.71 265.317 126.775 265.667 126.785L266.327 126.83H268.022ZM277.847 127.895H272.777C272.777 128.385 272.822 128.76 272.912 129.02C273.012 129.31 273.197 129.525 273.467 129.665C273.737 129.795 274.137 129.86 274.667 129.86C275.177 129.86 275.567 129.795 275.837 129.665C276.177 129.505 276.352 129.23 276.362 128.84H277.757C277.757 129.75 277.367 130.39 276.587 130.76C276.087 131 275.432 131.12 274.622 131.12C273.202 131.12 272.252 130.735 271.772 129.965C271.442 129.435 271.277 128.59 271.277 127.43C271.277 126.59 271.347 125.925 271.487 125.435C271.667 124.835 271.982 124.385 272.432 124.085C272.942 123.755 273.657 123.59 274.577 123.59C275.557 123.59 276.297 123.775 276.797 124.145C277.237 124.475 277.532 124.98 277.682 125.66C277.792 126.14 277.847 126.885 277.847 127.895ZM276.377 126.65C276.377 126.26 276.347 125.96 276.287 125.75C276.237 125.53 276.147 125.355 276.017 125.225C275.767 124.965 275.287 124.835 274.577 124.835C273.907 124.835 273.442 124.97 273.182 125.24C272.922 125.5 272.792 125.97 272.792 126.65H276.377ZM285.272 125H282.752V131H281.267V125H278.747V123.71H285.272V125ZM27.2 138.995H30.86C31.87 138.995 32.645 139.1 33.185 139.31C33.705 139.52 34.12 139.86 34.43 140.33C34.7 140.73 34.875 141.225 34.955 141.815C35.035 142.315 35.075 143.045 35.075 144.005C35.075 145.055 35.03 145.835 34.94 146.345C34.85 146.855 34.685 147.295 34.445 147.665C34.085 148.205 33.595 148.57 32.975 148.76C32.465 148.92 31.76 149 30.86 149H27.2V138.995ZM28.73 147.59H30.77C31.62 147.59 32.235 147.485 32.615 147.275C32.995 147.065 33.25 146.695 33.38 146.165C33.48 145.745 33.53 145.025 33.53 144.005C33.53 142.965 33.475 142.225 33.365 141.785C33.225 141.255 32.96 140.89 32.57 140.69C32.19 140.49 31.59 140.39 30.77 140.39H28.73V147.59ZM43.4428 145.895H38.3728C38.3728 146.385 38.4178 146.76 38.5078 147.02C38.6078 147.31 38.7928 147.525 39.0628 147.665C39.3328 147.795 39.7328 147.86 40.2628 147.86C40.7728 147.86 41.1628 147.795 41.4328 147.665C41.7728 147.505 41.9478 147.23 41.9578 146.84H43.3528C43.3528 147.75 42.9628 148.39 42.1828 148.76C41.6828 149 41.0278 149.12 40.2178 149.12C38.7978 149.12 37.8478 148.735 37.3678 147.965C37.0378 147.435 36.8728 146.59 36.8728 145.43C36.8728 144.59 36.9428 143.925 37.0828 143.435C37.2628 142.835 37.5778 142.385 38.0278 142.085C38.5378 141.755 39.2528 141.59 40.1728 141.59C41.1528 141.59 41.8928 141.775 42.3928 142.145C42.8328 142.475 43.1278 142.98 43.2778 143.66C43.3878 144.14 43.4428 144.885 43.4428 145.895ZM41.9728 144.65C41.9728 144.26 41.9428 143.96 41.8828 143.75C41.8328 143.53 41.7428 143.355 41.6128 143.225C41.3628 142.965 40.8828 142.835 40.1728 142.835C39.5028 142.835 39.0378 142.97 38.7778 143.24C38.5178 143.5 38.3878 143.97 38.3878 144.65H41.9728ZM48.963 138.425V139.685H48.333C47.833 139.685 47.503 139.78 47.343 139.97C47.193 140.16 47.118 140.555 47.118 141.155V141.71H48.963V142.955H47.118V149H45.633V142.955H44.463V141.71H45.633V140.735C45.633 139.715 45.963 139.04 46.623 138.71C47.003 138.52 47.558 138.425 48.288 138.425H48.963ZM55.9672 145.895H50.8972C50.8972 146.385 50.9422 146.76 51.0322 147.02C51.1322 147.31 51.3172 147.525 51.5872 147.665C51.8572 147.795 52.2572 147.86 52.7872 147.86C53.2972 147.86 53.6872 147.795 53.9572 147.665C54.2972 147.505 54.4722 147.23 54.4822 146.84H55.8772C55.8772 147.75 55.4872 148.39 54.7072 148.76C54.2072 149 53.5522 149.12 52.7422 149.12C51.3222 149.12 50.3722 148.735 49.8922 147.965C49.5622 147.435 49.3972 146.59 49.3972 145.43C49.3972 144.59 49.4672 143.925 49.6072 143.435C49.7872 142.835 50.1022 142.385 50.5522 142.085C51.0622 141.755 51.7772 141.59 52.6972 141.59C53.6772 141.59 54.4172 141.775 54.9172 142.145C55.3572 142.475 55.6522 142.98 55.8022 143.66C55.9122 144.14 55.9672 144.885 55.9672 145.895ZM54.4972 144.65C54.4972 144.26 54.4672 143.96 54.4072 143.75C54.3572 143.53 54.2672 143.355 54.1372 143.225C53.8872 142.965 53.4072 142.835 52.6972 142.835C52.0272 142.835 51.5622 142.97 51.3022 143.24C51.0422 143.5 50.9122 143.97 50.9122 144.65H54.4972ZM63.9924 149H62.5074V145.16V144.53C62.5074 144.17 62.4874 143.9 62.4474 143.72C62.4074 143.54 62.3374 143.39 62.2374 143.27C62.0374 143.04 61.6374 142.925 61.0374 142.925C60.1374 142.925 59.5774 143.235 59.3574 143.855C59.2874 144.045 59.2424 144.24 59.2224 144.44C59.2124 144.64 59.2074 145.035 59.2074 145.625V149H57.7224V141.71H59.0424V142.355C59.5524 141.845 60.2724 141.59 61.2024 141.59C62.4524 141.59 63.2724 141.935 63.6624 142.625C63.7824 142.845 63.8674 143.1 63.9174 143.39C63.9674 143.67 63.9924 144.05 63.9924 144.53V145.01V149ZM72.3163 149H70.9513V148.34C70.7113 148.59 70.3913 148.785 69.9913 148.925C69.6013 149.055 69.1663 149.12 68.6863 149.12C67.3363 149.12 66.4513 148.68 66.0313 147.8C65.9013 147.53 65.8113 147.215 65.7613 146.855C65.7113 146.485 65.6863 145.985 65.6863 145.355C65.6863 144.545 65.7463 143.905 65.8663 143.435C66.0263 142.835 66.3063 142.385 66.7063 142.085C67.1463 141.755 67.7663 141.59 68.5663 141.59C69.6263 141.59 70.3813 141.83 70.8313 142.31V138.545H72.3163V149ZM68.8363 142.97C68.3763 142.97 68.0263 143.05 67.7863 143.21C67.5663 143.35 67.4113 143.585 67.3213 143.915C67.2313 144.235 67.1863 144.72 67.1863 145.37C67.1863 146.34 67.3063 146.985 67.5463 147.305C67.7763 147.615 68.2063 147.77 68.8363 147.77C69.3663 147.77 69.7663 147.705 70.0363 147.575C70.3363 147.445 70.5463 147.21 70.6663 146.87C70.7863 146.53 70.8463 146.03 70.8463 145.37C70.8463 144.71 70.7863 144.215 70.6663 143.885C70.5463 143.545 70.3463 143.31 70.0663 143.18C69.7963 143.04 69.3863 142.97 68.8363 142.97ZM80.6498 145.895H75.5798C75.5798 146.385 75.6248 146.76 75.7148 147.02C75.8148 147.31 75.9998 147.525 76.2698 147.665C76.5398 147.795 76.9398 147.86 77.4698 147.86C77.9798 147.86 78.3698 147.795 78.6398 147.665C78.9798 147.505 79.1548 147.23 79.1648 146.84H80.5598C80.5598 147.75 80.1698 148.39 79.3898 148.76C78.8898 149 78.2348 149.12 77.4248 149.12C76.0048 149.12 75.0548 148.735 74.5748 147.965C74.2448 147.435 74.0798 146.59 74.0798 145.43C74.0798 144.59 74.1498 143.925 74.2898 143.435C74.4698 142.835 74.7848 142.385 75.2348 142.085C75.7448 141.755 76.4598 141.59 77.3798 141.59C78.3598 141.59 79.0998 141.775 79.5998 142.145C80.0398 142.475 80.3348 142.98 80.4848 143.66C80.5948 144.14 80.6498 144.885 80.6498 145.895ZM79.1798 144.65C79.1798 144.26 79.1498 143.96 79.0898 143.75C79.0398 143.53 78.9498 143.355 78.8198 143.225C78.5698 142.965 78.0898 142.835 77.3798 142.835C76.7098 142.835 76.2448 142.97 75.9848 143.24C75.7248 143.5 75.5948 143.97 75.5948 144.65H79.1798ZM88.105 143.84H86.68C86.68 143.46 86.575 143.205 86.365 143.075C86.195 142.965 85.91 142.91 85.51 142.91C85.02 142.91 84.655 143.025 84.415 143.255C84.215 143.445 84.075 143.725 83.995 144.095C83.925 144.465 83.89 145.045 83.89 145.835V149H82.405V141.71H83.74V142.385C84.22 141.855 84.9 141.59 85.78 141.59C86.61 141.59 87.215 141.795 87.595 142.205C87.935 142.575 88.105 143.12 88.105 143.84ZM96.0301 141.59C97.2401 141.59 98.1201 141.86 98.6701 142.4C98.9801 142.71 99.1951 143.13 99.3151 143.66C99.3951 144.07 99.4351 144.635 99.4351 145.355C99.4351 146.175 99.3801 146.805 99.2701 147.245C99.1501 147.685 98.9501 148.035 98.6701 148.295C98.1201 148.845 97.2401 149.12 96.0301 149.12C95.3701 149.12 94.8251 149.05 94.3951 148.91C93.9851 148.78 93.6451 148.575 93.3751 148.295C93.0651 147.995 92.8501 147.58 92.7301 147.05C92.6501 146.64 92.6101 146.075 92.6101 145.355C92.6101 144.535 92.6651 143.905 92.7751 143.465C92.8951 143.025 93.0951 142.67 93.3751 142.4C93.6551 142.12 94.0051 141.915 94.4251 141.785C94.8551 141.655 95.3901 141.59 96.0301 141.59ZM96.0301 142.91C95.4501 142.91 95.0201 142.995 94.7401 143.165C94.4801 143.325 94.3051 143.59 94.2151 143.96C94.1451 144.24 94.1101 144.705 94.1101 145.355C94.1101 145.995 94.1451 146.455 94.2151 146.735C94.3051 147.105 94.4801 147.37 94.7401 147.53C95.0201 147.7 95.4501 147.785 96.0301 147.785C96.6101 147.785 97.0401 147.7 97.3201 147.53C97.5801 147.37 97.7501 147.105 97.8301 146.735C97.9001 146.455 97.9351 145.995 97.9351 145.355C97.9351 144.705 97.9001 144.235 97.8301 143.945C97.7401 143.575 97.5651 143.315 97.3051 143.165C97.0251 142.995 96.6001 142.91 96.0301 142.91ZM102.549 142.235C103.029 141.775 103.759 141.55 104.739 141.56C105.499 141.57 106.084 141.69 106.494 141.92C106.924 142.16 107.234 142.555 107.424 143.105C107.604 143.635 107.694 144.375 107.694 145.325C107.694 146.145 107.639 146.775 107.529 147.215C107.419 147.655 107.229 148.015 106.959 148.295C106.439 148.845 105.594 149.12 104.424 149.12C103.254 149.12 102.409 148.855 101.889 148.325C101.599 148.035 101.399 147.68 101.289 147.26C101.189 146.84 101.139 146.21 101.139 145.37V142.505C101.139 141.895 101.194 141.405 101.304 141.035C101.414 140.655 101.594 140.335 101.844 140.075C102.084 139.835 102.374 139.65 102.714 139.52C103.064 139.39 103.504 139.3 104.034 139.25L104.319 139.22C104.879 139.17 105.249 139.1 105.429 139.01C105.609 138.91 105.704 138.74 105.714 138.5H107.094C107.094 138.88 107.059 139.175 106.989 139.385C106.919 139.595 106.794 139.78 106.614 139.94C106.444 140.1 106.224 140.22 105.954 140.3C105.684 140.38 105.279 140.445 104.739 140.495C104.189 140.545 103.804 140.605 103.584 140.675C103.364 140.735 103.144 140.86 102.924 141.05C102.814 141.18 102.739 141.3 102.699 141.41C102.659 141.51 102.619 141.685 102.579 141.935C102.569 142.045 102.559 142.145 102.549 142.235ZM106.284 145.34C106.284 144.67 106.239 144.17 106.149 143.84C106.049 143.49 105.884 143.245 105.654 143.105C105.424 142.965 105.069 142.89 104.589 142.88C104.039 142.87 103.629 142.93 103.359 143.06C103.069 143.2 102.859 143.445 102.729 143.795C102.609 144.145 102.544 144.67 102.534 145.37C102.534 145.47 102.534 145.54 102.534 145.58C102.534 146.2 102.584 146.665 102.684 146.975C102.794 147.295 102.974 147.52 103.224 147.65C103.484 147.77 103.879 147.83 104.409 147.83C104.949 147.83 105.339 147.77 105.579 147.65C105.849 147.51 106.034 147.275 106.134 146.945C106.234 146.615 106.284 146.08 106.284 145.34ZM115.865 145.895H110.795C110.795 146.385 110.84 146.76 110.93 147.02C111.03 147.31 111.215 147.525 111.485 147.665C111.755 147.795 112.155 147.86 112.685 147.86C113.195 147.86 113.585 147.795 113.855 147.665C114.195 147.505 114.37 147.23 114.38 146.84H115.775C115.775 147.75 115.385 148.39 114.605 148.76C114.105 149 113.45 149.12 112.64 149.12C111.22 149.12 110.27 148.735 109.79 147.965C109.46 147.435 109.295 146.59 109.295 145.43C109.295 144.59 109.365 143.925 109.505 143.435C109.685 142.835 110 142.385 110.45 142.085C110.96 141.755 111.675 141.59 112.595 141.59C113.575 141.59 114.315 141.775 114.815 142.145C115.255 142.475 115.55 142.98 115.7 143.66C115.81 144.14 115.865 144.885 115.865 145.895ZM114.395 144.65C114.395 144.26 114.365 143.96 114.305 143.75C114.255 143.53 114.165 143.355 114.035 143.225C113.785 142.965 113.305 142.835 112.595 142.835C111.925 142.835 111.46 142.97 111.2 143.24C110.94 143.5 110.81 143.97 110.81 144.65H114.395ZM123.785 146.84C123.785 148.36 122.765 149.12 120.725 149.12C119.275 149.12 118.32 148.705 117.86 147.875C117.66 147.525 117.53 147.08 117.47 146.54C117.43 146.21 117.41 145.805 117.41 145.325C117.41 144.505 117.475 143.87 117.605 143.42C117.775 142.83 118.085 142.385 118.535 142.085C119.045 141.755 119.775 141.59 120.725 141.59C122.765 141.59 123.785 142.345 123.785 143.855H122.375C122.375 143.435 122.17 143.155 121.76 143.015C121.54 142.945 121.205 142.91 120.755 142.91C120.205 142.91 119.795 142.99 119.525 143.15C119.295 143.3 119.135 143.53 119.045 143.84C118.955 144.15 118.91 144.65 118.91 145.34C118.91 145.98 118.945 146.45 119.015 146.75C119.105 147.12 119.275 147.38 119.525 147.53C119.795 147.7 120.205 147.785 120.755 147.785C121.275 147.785 121.65 147.73 121.88 147.62C122.21 147.48 122.375 147.22 122.375 146.84H123.785ZM131.771 149H130.286V143H126.986V149H125.501V141.71H131.771V149ZM140.122 145.895H135.052C135.052 146.385 135.097 146.76 135.187 147.02C135.287 147.31 135.472 147.525 135.742 147.665C136.012 147.795 136.412 147.86 136.942 147.86C137.452 147.86 137.842 147.795 138.112 147.665C138.452 147.505 138.627 147.23 138.637 146.84H140.032C140.032 147.75 139.642 148.39 138.862 148.76C138.362 149 137.707 149.12 136.897 149.12C135.477 149.12 134.527 148.735 134.047 147.965C133.717 147.435 133.552 146.59 133.552 145.43C133.552 144.59 133.622 143.925 133.762 143.435C133.942 142.835 134.257 142.385 134.707 142.085C135.217 141.755 135.932 141.59 136.852 141.59C137.832 141.59 138.572 141.775 139.072 142.145C139.512 142.475 139.807 142.98 139.957 143.66C140.067 144.14 140.122 144.885 140.122 145.895ZM138.652 144.65C138.652 144.26 138.622 143.96 138.562 143.75C138.512 143.53 138.422 143.355 138.292 143.225C138.042 142.965 137.562 142.835 136.852 142.835C136.182 142.835 135.717 142.97 135.457 143.24C135.197 143.5 135.067 143.97 135.067 144.65H138.652ZM147.848 149H146.363V146.195C145.853 146.405 145.203 146.51 144.413 146.51C143.413 146.51 142.688 146.285 142.238 145.835C141.978 145.575 141.803 145.26 141.713 144.89C141.623 144.52 141.578 143.925 141.578 143.105V141.71H143.078V143.105V143.51C143.078 144.1 143.168 144.51 143.348 144.74C143.588 145.04 144.018 145.19 144.638 145.19C145.378 145.18 145.953 145.085 146.363 144.905V141.71H147.848V149ZM156.131 149H154.751V143.795L151.406 149H149.861V141.71H151.256V146.9L154.601 141.71H156.131V149ZM163.628 145.205C163.888 145.345 164.073 145.545 164.183 145.805C164.303 146.055 164.363 146.395 164.363 146.825C164.363 147.585 164.178 148.13 163.808 148.46C163.548 148.7 163.238 148.85 162.878 148.91C162.558 148.97 162.013 149 161.243 149H158.108V141.68H161.168C161.848 141.68 162.318 141.695 162.578 141.725C162.848 141.745 163.088 141.79 163.298 141.86C163.958 142.11 164.288 142.685 164.288 143.585C164.288 144.405 164.068 144.945 163.628 145.205ZM162.698 144.455C162.838 144.315 162.908 144.09 162.908 143.78C162.908 143.41 162.808 143.165 162.608 143.045C162.428 142.945 162.103 142.895 161.633 142.895H159.503V144.635H161.333H161.483C161.873 144.635 162.148 144.625 162.308 144.605C162.468 144.585 162.598 144.535 162.698 144.455ZM159.503 147.785H161.318C161.948 147.785 162.358 147.745 162.548 147.665C162.808 147.565 162.938 147.28 162.938 146.81C162.938 146.45 162.868 146.205 162.728 146.075C162.618 145.975 162.463 145.91 162.263 145.88C162.073 145.85 161.708 145.835 161.168 145.835H159.503V147.785ZM172.389 149H171.054V148.34C170.814 148.59 170.489 148.785 170.079 148.925C169.669 149.055 169.209 149.12 168.699 149.12C167.699 149.12 166.974 148.925 166.524 148.535C166.084 148.165 165.864 147.59 165.864 146.81C165.864 145.81 166.219 145.14 166.929 144.8C167.369 144.58 168.034 144.47 168.924 144.47H170.934C170.934 144.07 170.919 143.785 170.889 143.615C170.859 143.445 170.789 143.31 170.679 143.21C170.459 142.98 169.984 142.865 169.254 142.865C168.694 142.865 168.289 142.92 168.039 143.03C167.689 143.17 167.514 143.43 167.514 143.81H166.074C166.074 142.92 166.444 142.3 167.184 141.95C167.694 141.71 168.414 141.59 169.344 141.59C170.574 141.59 171.424 141.895 171.894 142.505C172.224 142.935 172.389 143.56 172.389 144.38V149ZM170.964 145.7H168.864C168.264 145.7 167.864 145.78 167.664 145.94C167.464 146.1 167.364 146.385 167.364 146.795C167.364 147.195 167.484 147.475 167.724 147.635C167.964 147.795 168.354 147.875 168.894 147.875C169.834 147.875 170.434 147.67 170.694 147.26C170.874 146.98 170.964 146.46 170.964 145.7ZM179.965 143H177.445V149H175.96V143H173.44V141.71H179.965V143ZM182.546 144.65H184.751C185.311 144.65 185.741 144.69 186.041 144.77C186.341 144.85 186.586 144.99 186.776 145.19C187.106 145.52 187.271 146.06 187.271 146.81C187.271 147.58 187.101 148.13 186.761 148.46C186.601 148.62 186.421 148.74 186.221 148.82C186.021 148.89 185.746 148.94 185.396 148.97C185.176 148.99 185.001 149 184.871 149H181.166V141.74H182.546V144.65ZM182.546 147.785H184.361C185.011 147.785 185.421 147.715 185.591 147.575C185.741 147.455 185.816 147.205 185.816 146.825C185.816 146.575 185.791 146.39 185.741 146.27C185.701 146.15 185.621 146.06 185.501 146C185.311 145.91 184.886 145.865 184.226 145.865H182.546V147.785ZM198.74 149H197.255V143H195.35L194.42 146.975C194.31 147.425 194.195 147.77 194.075 148.01C193.955 148.25 193.805 148.45 193.625 148.61C193.225 148.95 192.59 149.12 191.72 149.12V147.755C192.1 147.755 192.38 147.675 192.56 147.515C192.75 147.345 192.9 147.04 193.01 146.6L194.165 141.71H198.74V149ZM206.96 141.71L203.075 151.85H201.53L202.715 148.865L199.97 141.71H201.545L203.495 147.185L205.385 141.71H206.96ZM214.147 149H212.662V146.195C212.152 146.405 211.502 146.51 210.712 146.51C209.712 146.51 208.987 146.285 208.537 145.835C208.277 145.575 208.102 145.26 208.012 144.89C207.922 144.52 207.877 143.925 207.877 143.105V141.71H209.377V143.105V143.51C209.377 144.1 209.467 144.51 209.647 144.74C209.887 145.04 210.317 145.19 210.937 145.19C211.677 145.18 212.252 145.085 212.662 144.905V141.71H214.147V149ZM225.58 149H216.145V141.71H217.63V147.695H220.12V141.71H221.605V147.695H224.095V141.71H225.58V149ZM233.856 149H232.476V143.795L229.131 149H227.586V141.71H228.981V146.9L232.326 141.71H233.856V149ZM242.132 149H240.752V143.795L237.407 149H235.862V141.71H237.257V146.9L240.602 141.71H242.132V149ZM241.172 138.965C241.172 139.745 240.992 140.27 240.632 140.54C240.312 140.78 239.767 140.9 238.997 140.9C238.127 140.9 237.537 140.74 237.227 140.42C236.957 140.14 236.822 139.655 236.822 138.965H237.827C237.827 139.355 237.907 139.62 238.067 139.76C238.227 139.9 238.537 139.97 238.997 139.97C239.447 139.97 239.752 139.905 239.912 139.775C240.092 139.625 240.182 139.355 240.182 138.965H241.172ZM253.188 145.205C253.448 145.345 253.633 145.545 253.743 145.805C253.863 146.055 253.923 146.395 253.923 146.825C253.923 147.585 253.738 148.13 253.368 148.46C253.108 148.7 252.798 148.85 252.438 148.91C252.118 148.97 251.573 149 250.803 149H247.668V141.68H250.728C251.408 141.68 251.878 141.695 252.138 141.725C252.408 141.745 252.648 141.79 252.858 141.86C253.518 142.11 253.848 142.685 253.848 143.585C253.848 144.405 253.628 144.945 253.188 145.205ZM252.258 144.455C252.398 144.315 252.468 144.09 252.468 143.78C252.468 143.41 252.368 143.165 252.168 143.045C251.988 142.945 251.663 142.895 251.193 142.895H249.063V144.635H250.893H251.043C251.433 144.635 251.708 144.625 251.868 144.605C252.028 144.585 252.158 144.535 252.258 144.455ZM249.063 147.785H250.878C251.508 147.785 251.918 147.745 252.108 147.665C252.368 147.565 252.498 147.28 252.498 146.81C252.498 146.45 252.428 146.205 252.288 146.075C252.178 145.975 252.023 145.91 251.823 145.88C251.633 145.85 251.268 145.835 250.728 145.835H249.063V147.785ZM265.479 146.84C265.479 148.36 264.459 149.12 262.419 149.12C260.969 149.12 260.014 148.705 259.554 147.875C259.354 147.525 259.224 147.08 259.164 146.54C259.124 146.21 259.104 145.805 259.104 145.325C259.104 144.505 259.169 143.87 259.299 143.42C259.469 142.83 259.779 142.385 260.229 142.085C260.739 141.755 261.469 141.59 262.419 141.59C264.459 141.59 265.479 142.345 265.479 143.855H264.069C264.069 143.435 263.864 143.155 263.454 143.015C263.234 142.945 262.899 142.91 262.449 142.91C261.899 142.91 261.489 142.99 261.219 143.15C260.989 143.3 260.829 143.53 260.739 143.84C260.649 144.15 260.604 144.65 260.604 145.34C260.604 145.98 260.639 146.45 260.709 146.75C260.799 147.12 260.969 147.38 261.219 147.53C261.489 147.7 261.899 147.785 262.449 147.785C262.969 147.785 263.344 147.73 263.574 147.62C263.904 147.48 264.069 147.22 264.069 146.84H265.479ZM272.7 145.205C272.96 145.345 273.145 145.545 273.255 145.805C273.375 146.055 273.435 146.395 273.435 146.825C273.435 147.585 273.25 148.13 272.88 148.46C272.62 148.7 272.31 148.85 271.95 148.91C271.63 148.97 271.085 149 270.315 149H267.18V141.68H270.24C270.92 141.68 271.39 141.695 271.65 141.725C271.92 141.745 272.16 141.79 272.37 141.86C273.03 142.11 273.36 142.685 273.36 143.585C273.36 144.405 273.14 144.945 272.7 145.205ZM271.77 144.455C271.91 144.315 271.98 144.09 271.98 143.78C271.98 143.41 271.88 143.165 271.68 143.045C271.5 142.945 271.175 142.895 270.705 142.895H268.575V144.635H270.405H270.555C270.945 144.635 271.22 144.625 271.38 144.605C271.54 144.585 271.67 144.535 271.77 144.455ZM268.575 147.785H270.39C271.02 147.785 271.43 147.745 271.62 147.665C271.88 147.565 272.01 147.28 272.01 146.81C272.01 146.45 271.94 146.205 271.8 146.075C271.69 145.975 271.535 145.91 271.335 145.88C271.145 145.85 270.78 145.835 270.24 145.835H268.575V147.785ZM278.476 141.59C279.686 141.59 280.566 141.86 281.116 142.4C281.426 142.71 281.641 143.13 281.761 143.66C281.841 144.07 281.881 144.635 281.881 145.355C281.881 146.175 281.826 146.805 281.716 147.245C281.596 147.685 281.396 148.035 281.116 148.295C280.566 148.845 279.686 149.12 278.476 149.12C277.816 149.12 277.271 149.05 276.841 148.91C276.431 148.78 276.091 148.575 275.821 148.295C275.511 147.995 275.296 147.58 275.176 147.05C275.096 146.64 275.056 146.075 275.056 145.355C275.056 144.535 275.111 143.905 275.221 143.465C275.341 143.025 275.541 142.67 275.821 142.4C276.101 142.12 276.451 141.915 276.871 141.785C277.301 141.655 277.836 141.59 278.476 141.59ZM278.476 142.91C277.896 142.91 277.466 142.995 277.186 143.165C276.926 143.325 276.751 143.59 276.661 143.96C276.591 144.24 276.556 144.705 276.556 145.355C276.556 145.995 276.591 146.455 276.661 146.735C276.751 147.105 276.926 147.37 277.186 147.53C277.466 147.7 277.896 147.785 278.476 147.785C279.056 147.785 279.486 147.7 279.766 147.53C280.026 147.37 280.196 147.105 280.276 146.735C280.346 146.455 280.381 145.995 280.381 145.355C280.381 144.705 280.346 144.235 280.276 143.945C280.186 143.575 280.011 143.315 279.751 143.165C279.471 142.995 279.046 142.91 278.476 142.91ZM289.991 145.895H284.921C284.921 146.385 284.966 146.76 285.056 147.02C285.156 147.31 285.341 147.525 285.611 147.665C285.881 147.795 286.281 147.86 286.811 147.86C287.321 147.86 287.711 147.795 287.981 147.665C288.321 147.505 288.496 147.23 288.506 146.84H289.901C289.901 147.75 289.511 148.39 288.731 148.76C288.231 149 287.576 149.12 286.766 149.12C285.346 149.12 284.396 148.735 283.916 147.965C283.586 147.435 283.421 146.59 283.421 145.43C283.421 144.59 283.491 143.925 283.631 143.435C283.811 142.835 284.126 142.385 284.576 142.085C285.086 141.755 285.801 141.59 286.721 141.59C287.701 141.59 288.441 141.775 288.941 142.145C289.381 142.475 289.676 142.98 289.826 143.66C289.936 144.14 289.991 144.885 289.991 145.895ZM288.521 144.65C288.521 144.26 288.491 143.96 288.431 143.75C288.381 143.53 288.291 143.355 288.161 143.225C287.911 142.965 287.431 142.835 286.721 142.835C286.051 142.835 285.586 142.97 285.326 143.24C285.066 143.5 284.936 143.97 284.936 144.65H288.521ZM299.846 149H298.421V143.99L296.471 149H295.091L293.156 143.99V149H291.746V141.71H293.636L295.811 147.185L298.016 141.71H299.846V149ZM33.695 167H31.715L28.49 163.625V167H26.99V159.71H28.49V162.665L31.73 159.71H33.665L29.885 163.115L33.695 167ZM40.8444 167H39.3594V161H37.4544L36.5244 164.975C36.4144 165.425 36.2994 165.77 36.1794 166.01C36.0594 166.25 35.9094 166.45 35.7294 166.61C35.3294 166.95 34.6944 167.12 33.8244 167.12V165.755C34.2044 165.755 34.4844 165.675 34.6644 165.515C34.8544 165.345 35.0044 165.04 35.1144 164.6L36.2694 159.71H40.8444V167ZM49.0346 167H47.6996V166.34C47.4596 166.59 47.1346 166.785 46.7246 166.925C46.3146 167.055 45.8546 167.12 45.3446 167.12C44.3446 167.12 43.6196 166.925 43.1696 166.535C42.7296 166.165 42.5096 165.59 42.5096 164.81C42.5096 163.81 42.8646 163.14 43.5746 162.8C44.0146 162.58 44.6796 162.47 45.5696 162.47H47.5796C47.5796 162.07 47.5646 161.785 47.5346 161.615C47.5046 161.445 47.4346 161.31 47.3246 161.21C47.1046 160.98 46.6296 160.865 45.8996 160.865C45.3396 160.865 44.9346 160.92 44.6846 161.03C44.3346 161.17 44.1596 161.43 44.1596 161.81H42.7196C42.7196 160.92 43.0896 160.3 43.8296 159.95C44.3396 159.71 45.0596 159.59 45.9896 159.59C47.2196 159.59 48.0696 159.895 48.5396 160.505C48.8696 160.935 49.0346 161.56 49.0346 162.38V167ZM47.6096 163.7H45.5096C44.9096 163.7 44.5096 163.78 44.3096 163.94C44.1096 164.1 44.0096 164.385 44.0096 164.795C44.0096 165.195 44.1296 165.475 44.3696 165.635C44.6096 165.795 44.9996 165.875 45.5396 165.875C46.4796 165.875 47.0796 165.67 47.3396 165.26C47.5196 164.98 47.6096 164.46 47.6096 163.7ZM57.1052 164.84C57.1052 166.36 56.0852 167.12 54.0452 167.12C52.5952 167.12 51.6402 166.705 51.1802 165.875C50.9802 165.525 50.8502 165.08 50.7902 164.54C50.7502 164.21 50.7302 163.805 50.7302 163.325C50.7302 162.505 50.7952 161.87 50.9252 161.42C51.0952 160.83 51.4052 160.385 51.8552 160.085C52.3652 159.755 53.0952 159.59 54.0452 159.59C56.0852 159.59 57.1052 160.345 57.1052 161.855H55.6952C55.6952 161.435 55.4902 161.155 55.0802 161.015C54.8602 160.945 54.5252 160.91 54.0752 160.91C53.5252 160.91 53.1152 160.99 52.8452 161.15C52.6152 161.3 52.4552 161.53 52.3652 161.84C52.2752 162.15 52.2302 162.65 52.2302 163.34C52.2302 163.98 52.2652 164.45 52.3352 164.75C52.4252 165.12 52.5952 165.38 52.8452 165.53C53.1152 165.7 53.5252 165.785 54.0752 165.785C54.5952 165.785 54.9702 165.73 55.2002 165.62C55.5302 165.48 55.6952 165.22 55.6952 164.84H57.1052ZM64.9861 164.84C64.9861 166.36 63.9661 167.12 61.9261 167.12C60.4761 167.12 59.5211 166.705 59.0611 165.875C58.8611 165.525 58.7311 165.08 58.6711 164.54C58.6311 164.21 58.6111 163.805 58.6111 163.325C58.6111 162.505 58.6761 161.87 58.8061 161.42C58.9761 160.83 59.2861 160.385 59.7361 160.085C60.2461 159.755 60.9761 159.59 61.9261 159.59C63.9661 159.59 64.9861 160.345 64.9861 161.855H63.5761C63.5761 161.435 63.3711 161.155 62.9611 161.015C62.7411 160.945 62.4061 160.91 61.9561 160.91C61.4061 160.91 60.9961 160.99 60.7261 161.15C60.4961 161.3 60.3361 161.53 60.2461 161.84C60.1561 162.15 60.1111 162.65 60.1111 163.34C60.1111 163.98 60.1461 164.45 60.2161 164.75C60.3061 165.12 60.4761 165.38 60.7261 165.53C60.9961 165.7 61.4061 165.785 61.9561 165.785C62.4761 165.785 62.8511 165.73 63.0811 165.62C63.4111 165.48 63.5761 165.22 63.5761 164.84H64.9861ZM73.0619 163.895H67.9919C67.9919 164.385 68.0369 164.76 68.1269 165.02C68.2269 165.31 68.4119 165.525 68.6819 165.665C68.9519 165.795 69.3519 165.86 69.8819 165.86C70.3919 165.86 70.7819 165.795 71.0519 165.665C71.3919 165.505 71.5669 165.23 71.5769 164.84H72.9719C72.9719 165.75 72.5819 166.39 71.8019 166.76C71.3019 167 70.6469 167.12 69.8369 167.12C68.4169 167.12 67.4669 166.735 66.9869 165.965C66.6569 165.435 66.4919 164.59 66.4919 163.43C66.4919 162.59 66.5619 161.925 66.7019 161.435C66.8819 160.835 67.1969 160.385 67.6469 160.085C68.1569 159.755 68.8719 159.59 69.7919 159.59C70.7719 159.59 71.5119 159.775 72.0119 160.145C72.4519 160.475 72.7469 160.98 72.8969 161.66C73.0069 162.14 73.0619 162.885 73.0619 163.895ZM71.5919 162.65C71.5919 162.26 71.5619 161.96 71.5019 161.75C71.4519 161.53 71.3619 161.355 71.2319 161.225C70.9819 160.965 70.5019 160.835 69.7919 160.835C69.1219 160.835 68.6569 160.97 68.3969 161.24C68.1369 161.5 68.0069 161.97 68.0069 162.65H71.5919ZM85.3667 168.755H83.9717V166.955H78.8867V168.755H77.4767V165.68C77.8667 165.68 78.1717 165.57 78.3917 165.35C78.5717 165.16 78.7067 164.88 78.7967 164.51L79.9367 159.71H84.4967V165.68H85.3667V168.755ZM83.0117 165.68V161H81.1217L80.2967 164.465C80.1467 165.135 79.9317 165.54 79.6517 165.68H83.0117ZM89.9656 159.59C91.1756 159.59 92.0556 159.86 92.6056 160.4C92.9156 160.71 93.1306 161.13 93.2506 161.66C93.3306 162.07 93.3706 162.635 93.3706 163.355C93.3706 164.175 93.3156 164.805 93.2056 165.245C93.0856 165.685 92.8856 166.035 92.6056 166.295C92.0556 166.845 91.1756 167.12 89.9656 167.12C89.3056 167.12 88.7606 167.05 88.3306 166.91C87.9206 166.78 87.5806 166.575 87.3106 166.295C87.0006 165.995 86.7856 165.58 86.6656 165.05C86.5856 164.64 86.5456 164.075 86.5456 163.355C86.5456 162.535 86.6006 161.905 86.7106 161.465C86.8306 161.025 87.0306 160.67 87.3106 160.4C87.5906 160.12 87.9406 159.915 88.3606 159.785C88.7906 159.655 89.3256 159.59 89.9656 159.59ZM89.9656 160.91C89.3856 160.91 88.9556 160.995 88.6756 161.165C88.4156 161.325 88.2406 161.59 88.1506 161.96C88.0806 162.24 88.0456 162.705 88.0456 163.355C88.0456 163.995 88.0806 164.455 88.1506 164.735C88.2406 165.105 88.4156 165.37 88.6756 165.53C88.9556 165.7 89.3856 165.785 89.9656 165.785C90.5456 165.785 90.9756 165.7 91.2556 165.53C91.5156 165.37 91.6856 165.105 91.7656 164.735C91.8356 164.455 91.8706 163.995 91.8706 163.355C91.8706 162.705 91.8356 162.235 91.7656 161.945C91.6756 161.575 91.5006 161.315 91.2406 161.165C90.9606 160.995 90.5356 160.91 89.9656 160.91ZM96.4849 160.355C97.0249 159.835 97.7949 159.58 98.7949 159.59C99.6349 159.6 100.28 159.76 100.73 160.07C101.14 160.35 101.42 160.785 101.57 161.375C101.69 161.835 101.75 162.5 101.75 163.37C101.75 164.11 101.69 164.705 101.57 165.155C101.41 165.765 101.125 166.23 100.715 166.55C100.225 166.93 99.5349 167.12 98.6449 167.12C98.1649 167.12 97.7599 167.065 97.4299 166.955C97.1099 166.835 96.8349 166.645 96.6049 166.385V169.865H95.1199V159.71H96.4849V160.355ZM98.6149 160.94C98.0749 160.94 97.6699 161.005 97.3999 161.135C97.1099 161.275 96.9049 161.515 96.7849 161.855C96.6649 162.195 96.6049 162.695 96.6049 163.355C96.6049 164.015 96.6649 164.515 96.7849 164.855C96.9049 165.195 97.0999 165.435 97.3699 165.575C97.6499 165.715 98.0649 165.785 98.6149 165.785C99.0749 165.785 99.4249 165.705 99.6649 165.545C99.8849 165.395 100.04 165.16 100.13 164.84C100.22 164.51 100.265 164.015 100.265 163.355C100.265 162.385 100.145 161.74 99.9049 161.42C99.6749 161.1 99.2449 160.94 98.6149 160.94ZM106.723 159.59C107.933 159.59 108.813 159.86 109.363 160.4C109.673 160.71 109.888 161.13 110.008 161.66C110.088 162.07 110.128 162.635 110.128 163.355C110.128 164.175 110.073 164.805 109.963 165.245C109.843 165.685 109.643 166.035 109.363 166.295C108.813 166.845 107.933 167.12 106.723 167.12C106.063 167.12 105.518 167.05 105.088 166.91C104.678 166.78 104.338 166.575 104.068 166.295C103.758 165.995 103.543 165.58 103.423 165.05C103.343 164.64 103.303 164.075 103.303 163.355C103.303 162.535 103.358 161.905 103.468 161.465C103.588 161.025 103.788 160.67 104.068 160.4C104.348 160.12 104.698 159.915 105.118 159.785C105.548 159.655 106.083 159.59 106.723 159.59ZM106.723 160.91C106.143 160.91 105.713 160.995 105.433 161.165C105.173 161.325 104.998 161.59 104.908 161.96C104.838 162.24 104.803 162.705 104.803 163.355C104.803 163.995 104.838 164.455 104.908 164.735C104.998 165.105 105.173 165.37 105.433 165.53C105.713 165.7 106.143 165.785 106.723 165.785C107.303 165.785 107.733 165.7 108.013 165.53C108.273 165.37 108.443 165.105 108.523 164.735C108.593 164.455 108.628 163.995 108.628 163.355C108.628 162.705 108.593 162.235 108.523 161.945C108.433 161.575 108.258 161.315 107.998 161.165C107.718 160.995 107.293 160.91 106.723 160.91ZM121.778 167H119.948L117.128 163.715V167H115.643V163.715L112.823 167H110.978L114.293 163.235L111.008 159.71H112.793L115.643 162.785V159.71H117.128V162.785L119.978 159.71H121.718L118.448 163.205L121.778 167ZM129.134 167H127.649V163.895H124.349V167H122.864V159.71H124.349V162.59H127.649V159.71H129.134V167ZM132.566 162.65H134.771C135.331 162.65 135.761 162.69 136.061 162.77C136.361 162.85 136.606 162.99 136.796 163.19C137.126 163.52 137.291 164.06 137.291 164.81C137.291 165.58 137.121 166.13 136.781 166.46C136.621 166.62 136.441 166.74 136.241 166.82C136.041 166.89 135.766 166.94 135.416 166.97C135.196 166.99 135.021 167 134.891 167H131.186V159.74H132.566V162.65ZM132.566 165.785H134.381C135.031 165.785 135.441 165.715 135.611 165.575C135.761 165.455 135.836 165.205 135.836 164.825C135.836 164.575 135.811 164.39 135.761 164.27C135.721 164.15 135.641 164.06 135.521 164C135.331 163.91 134.906 163.865 134.246 163.865H132.566V165.785ZM139.961 159.71V167H138.476V159.71H139.961ZM148.133 167H146.753V161.795L143.408 167H141.863V159.71H143.258V164.9L146.603 159.71H148.133V167ZM147.173 156.965C147.173 157.745 146.993 158.27 146.633 158.54C146.313 158.78 145.768 158.9 144.998 158.9C144.128 158.9 143.538 158.74 143.228 158.42C142.958 158.14 142.823 157.655 142.823 156.965H143.828C143.828 157.355 143.908 157.62 144.068 157.76C144.228 157.9 144.538 157.97 144.998 157.97C145.448 157.97 145.753 157.905 145.913 157.775C146.093 157.625 146.183 157.355 146.183 156.965H147.173ZM159.954 167H158.469V161H155.169V167H153.684V159.71H159.954V167ZM163.311 160.355C163.851 159.835 164.621 159.58 165.621 159.59C166.461 159.6 167.106 159.76 167.556 160.07C167.966 160.35 168.246 160.785 168.396 161.375C168.516 161.835 168.576 162.5 168.576 163.37C168.576 164.11 168.516 164.705 168.396 165.155C168.236 165.765 167.951 166.23 167.541 166.55C167.051 166.93 166.361 167.12 165.471 167.12C164.991 167.12 164.586 167.065 164.256 166.955C163.936 166.835 163.661 166.645 163.431 166.385V169.865H161.946V159.71H163.311V160.355ZM165.441 160.94C164.901 160.94 164.496 161.005 164.226 161.135C163.936 161.275 163.731 161.515 163.611 161.855C163.491 162.195 163.431 162.695 163.431 163.355C163.431 164.015 163.491 164.515 163.611 164.855C163.731 165.195 163.926 165.435 164.196 165.575C164.476 165.715 164.891 165.785 165.441 165.785C165.901 165.785 166.251 165.705 166.491 165.545C166.711 165.395 166.866 165.16 166.956 164.84C167.046 164.51 167.091 164.015 167.091 163.355C167.091 162.385 166.971 161.74 166.731 161.42C166.501 161.1 166.071 160.94 165.441 160.94ZM173.55 159.59C174.76 159.59 175.64 159.86 176.19 160.4C176.5 160.71 176.715 161.13 176.835 161.66C176.915 162.07 176.955 162.635 176.955 163.355C176.955 164.175 176.9 164.805 176.79 165.245C176.67 165.685 176.47 166.035 176.19 166.295C175.64 166.845 174.76 167.12 173.55 167.12C172.89 167.12 172.345 167.05 171.915 166.91C171.505 166.78 171.165 166.575 170.895 166.295C170.585 165.995 170.37 165.58 170.25 165.05C170.17 164.64 170.13 164.075 170.13 163.355C170.13 162.535 170.185 161.905 170.295 161.465C170.415 161.025 170.615 160.67 170.895 160.4C171.175 160.12 171.525 159.915 171.945 159.785C172.375 159.655 172.91 159.59 173.55 159.59ZM173.55 160.91C172.97 160.91 172.54 160.995 172.26 161.165C172 161.325 171.825 161.59 171.735 161.96C171.665 162.24 171.63 162.705 171.63 163.355C171.63 163.995 171.665 164.455 171.735 164.735C171.825 165.105 172 165.37 172.26 165.53C172.54 165.7 172.97 165.785 173.55 165.785C174.13 165.785 174.56 165.7 174.84 165.53C175.1 165.37 175.27 165.105 175.35 164.735C175.42 164.455 175.455 163.995 175.455 163.355C175.455 162.705 175.42 162.235 175.35 161.945C175.26 161.575 175.085 161.315 174.825 161.165C174.545 160.995 174.12 160.91 173.55 160.91ZM184.869 164.84C184.869 166.36 183.849 167.12 181.809 167.12C180.359 167.12 179.404 166.705 178.944 165.875C178.744 165.525 178.614 165.08 178.554 164.54C178.514 164.21 178.494 163.805 178.494 163.325C178.494 162.505 178.559 161.87 178.689 161.42C178.859 160.83 179.169 160.385 179.619 160.085C180.129 159.755 180.859 159.59 181.809 159.59C183.849 159.59 184.869 160.345 184.869 161.855H183.459C183.459 161.435 183.254 161.155 182.844 161.015C182.624 160.945 182.289 160.91 181.839 160.91C181.289 160.91 180.879 160.99 180.609 161.15C180.379 161.3 180.219 161.53 180.129 161.84C180.039 162.15 179.994 162.65 179.994 163.34C179.994 163.98 180.029 164.45 180.099 164.75C180.189 165.12 180.359 165.38 180.609 165.53C180.879 165.7 181.289 165.785 181.839 165.785C182.359 165.785 182.734 165.73 182.964 165.62C183.294 165.48 183.459 165.22 183.459 164.84H184.869ZM192.09 163.205C192.35 163.345 192.535 163.545 192.645 163.805C192.765 164.055 192.825 164.395 192.825 164.825C192.825 165.585 192.64 166.13 192.27 166.46C192.01 166.7 191.7 166.85 191.34 166.91C191.02 166.97 190.475 167 189.705 167H186.57V159.68H189.63C190.31 159.68 190.78 159.695 191.04 159.725C191.31 159.745 191.55 159.79 191.76 159.86C192.42 160.11 192.75 160.685 192.75 161.585C192.75 162.405 192.53 162.945 192.09 163.205ZM191.16 162.455C191.3 162.315 191.37 162.09 191.37 161.78C191.37 161.41 191.27 161.165 191.07 161.045C190.89 160.945 190.565 160.895 190.095 160.895H187.965V162.635H189.795H189.945C190.335 162.635 190.61 162.625 190.77 162.605C190.93 162.585 191.06 162.535 191.16 162.455ZM187.965 165.785H189.78C190.41 165.785 190.82 165.745 191.01 165.665C191.27 165.565 191.4 165.28 191.4 164.81C191.4 164.45 191.33 164.205 191.19 164.075C191.08 163.975 190.925 163.91 190.725 163.88C190.535 163.85 190.17 163.835 189.63 163.835H187.965V165.785ZM201.016 163.895H195.946C195.946 164.385 195.991 164.76 196.081 165.02C196.181 165.31 196.366 165.525 196.636 165.665C196.906 165.795 197.306 165.86 197.836 165.86C198.346 165.86 198.736 165.795 199.006 165.665C199.346 165.505 199.521 165.23 199.531 164.84H200.926C200.926 165.75 200.536 166.39 199.756 166.76C199.256 167 198.601 167.12 197.791 167.12C196.371 167.12 195.421 166.735 194.941 165.965C194.611 165.435 194.446 164.59 194.446 163.43C194.446 162.59 194.516 161.925 194.656 161.435C194.836 160.835 195.151 160.385 195.601 160.085C196.111 159.755 196.826 159.59 197.746 159.59C198.726 159.59 199.466 159.775 199.966 160.145C200.406 160.475 200.701 160.98 200.851 161.66C200.961 162.14 201.016 162.885 201.016 163.895ZM199.546 162.65C199.546 162.26 199.516 161.96 199.456 161.75C199.406 161.53 199.316 161.355 199.186 161.225C198.936 160.965 198.456 160.835 197.746 160.835C197.076 160.835 196.611 160.97 196.351 161.24C196.091 161.5 195.961 161.97 195.961 162.65H199.546ZM208.441 161H205.921V167H204.436V161H201.916V159.71H208.441V161ZM218.947 164.015H213.187V162.68H218.947V164.015ZM224.464 159.335C224.464 158.365 224.809 157.69 225.499 157.31C225.999 157.03 226.724 156.89 227.674 156.89C228.994 156.89 229.899 157.165 230.389 157.715C230.799 158.165 231.004 158.88 231.004 159.86C231.004 160.57 230.864 161.14 230.584 161.57C230.344 161.94 229.969 162.24 229.459 162.47C229.179 162.6 228.634 162.79 227.824 163.04C227.244 163.22 226.859 163.35 226.669 163.43C226.489 163.5 226.344 163.59 226.234 163.7C226.124 163.82 226.044 163.965 225.994 164.135C225.944 164.305 225.919 164.545 225.919 164.855V165.665H230.989V167H224.419V164.57C224.419 163.83 224.599 163.255 224.959 162.845C225.249 162.525 225.699 162.26 226.309 162.05L228.019 161.525C228.609 161.335 228.994 161.14 229.174 160.94C229.394 160.7 229.504 160.34 229.504 159.86C229.504 159.2 229.369 158.76 229.099 158.54C228.849 158.34 228.384 158.24 227.704 158.24C227.004 158.24 226.529 158.33 226.279 158.51C226.049 158.67 225.934 158.945 225.934 159.335H224.464ZM235.949 156.89C237.059 156.89 237.884 157.14 238.424 157.64C238.864 158.05 239.144 158.675 239.264 159.515C239.304 159.815 239.329 160.08 239.339 160.31C239.349 160.53 239.354 161.095 239.354 162.005C239.354 162.865 239.349 163.43 239.339 163.7C239.329 163.96 239.304 164.235 239.264 164.525C239.144 165.365 238.859 165.99 238.409 166.4C237.879 166.88 237.059 167.12 235.949 167.12C234.409 167.12 233.409 166.625 232.949 165.635C232.799 165.325 232.694 164.955 232.634 164.525C232.574 164.095 232.544 163.505 232.544 162.755V162.005C232.544 161.095 232.549 160.53 232.559 160.31C232.569 160.08 232.594 159.815 232.634 159.515C232.754 158.675 233.034 158.05 233.474 157.64C234.004 157.14 234.829 156.89 235.949 156.89ZM235.949 158.24C235.089 158.24 234.534 158.505 234.284 159.035C234.124 159.375 234.044 159.99 234.044 160.88V162.005V163.205C234.044 163.875 234.079 164.36 234.149 164.66C234.239 165.05 234.414 165.325 234.674 165.485C234.954 165.665 235.379 165.755 235.949 165.755C236.519 165.755 236.944 165.665 237.224 165.485C237.484 165.315 237.659 165.035 237.749 164.645C237.819 164.345 237.854 163.865 237.854 163.205L237.839 162.005C237.839 160.815 237.834 160.135 237.824 159.965C237.774 159.365 237.624 158.94 237.374 158.69C237.094 158.39 236.619 158.24 235.949 158.24ZM244.49 156.89C245.6 156.89 246.425 157.14 246.965 157.64C247.405 158.05 247.685 158.675 247.805 159.515C247.845 159.815 247.87 160.08 247.88 160.31C247.89 160.53 247.895 161.095 247.895 162.005C247.895 162.865 247.89 163.43 247.88 163.7C247.87 163.96 247.845 164.235 247.805 164.525C247.685 165.365 247.4 165.99 246.95 166.4C246.42 166.88 245.6 167.12 244.49 167.12C242.95 167.12 241.95 166.625 241.49 165.635C241.34 165.325 241.235 164.955 241.175 164.525C241.115 164.095 241.085 163.505 241.085 162.755V162.005C241.085 161.095 241.09 160.53 241.1 160.31C241.11 160.08 241.135 159.815 241.175 159.515C241.295 158.675 241.575 158.05 242.015 157.64C242.545 157.14 243.37 156.89 244.49 156.89ZM244.49 158.24C243.63 158.24 243.075 158.505 242.825 159.035C242.665 159.375 242.585 159.99 242.585 160.88V162.005V163.205C242.585 163.875 242.62 164.36 242.69 164.66C242.78 165.05 242.955 165.325 243.215 165.485C243.495 165.665 243.92 165.755 244.49 165.755C245.06 165.755 245.485 165.665 245.765 165.485C246.025 165.315 246.2 165.035 246.29 164.645C246.36 164.345 246.395 163.865 246.395 163.205L246.38 162.005C246.38 160.815 246.375 160.135 246.365 159.965C246.315 159.365 246.165 158.94 245.915 158.69C245.635 158.39 245.16 158.24 244.49 158.24ZM261.584 167H260.159V161.99L258.209 167H256.829L254.894 161.99V167H253.484V159.71H255.374L257.549 165.185L259.754 159.71H261.584V167ZM271.677 167H270.252V161.99L268.302 167H266.922L264.987 161.99V167H263.577V159.71H265.467L267.642 165.185L269.847 159.71H271.677V167ZM274.42 165.245C275.04 165.245 275.35 165.55 275.35 166.16C275.35 166.49 275.26 166.735 275.08 166.895C274.93 167.045 274.71 167.12 274.42 167.12C274.1 167.12 273.86 167.025 273.7 166.835C273.56 166.675 273.49 166.45 273.49 166.16C273.49 165.55 273.8 165.245 274.42 165.245Z" fill="#0C121C"/>
<circle cx="107" cy="30" r="29" stroke="white" stroke-width="2"/>
<path d="M78 30H11C5.47715 30 1 34.4772 1 40V133C1 138.523 5.47715 143 11 143H25" stroke="url(#paint0_linear_13_2281)" stroke-width="2" stroke-linecap="round"/>
<defs>
<linearGradient id="paint0_linear_13_2281" x1="136.5" y1="30" x2="14.5023" y2="31.2281" gradientUnits="userSpaceOnUse">
<stop offset="0.65553" stop-color="white"/>
<stop offset="0.764503" stop-color="#0C121C"/>
</linearGradient>
</defs>
</svg>
