<svg width="311" height="240" viewBox="0 0 311 240" fill="none" xmlns="http://www.w3.org/2000/svg">
<path d="M33.275 177.795C33.835 177.955 34.22 178.21 34.43 178.56C34.65 178.91 34.76 179.46 34.76 180.21C34.76 181.32 34.38 182.1 33.62 182.55C32.98 182.93 32.03 183.12 30.77 183.12C29.41 183.12 28.435 182.9 27.845 182.46C27.235 182.01 26.93 181.275 26.93 180.255H28.445C28.445 180.645 28.515 180.945 28.655 181.155C28.795 181.345 29.025 181.485 29.345 181.575C29.675 181.655 30.155 181.695 30.785 181.695C31.775 181.695 32.445 181.575 32.795 181.335C33.115 181.105 33.275 180.7 33.275 180.12C33.275 179.65 33.22 179.31 33.11 179.1C32.99 178.88 32.765 178.73 32.435 178.65C32.115 178.57 31.58 178.53 30.83 178.53H29.645V177.21H30.83C31.75 177.21 32.37 177.095 32.69 176.865C32.99 176.645 33.14 176.255 33.14 175.695C33.14 175.305 33.09 175.025 32.99 174.855C32.88 174.645 32.66 174.5 32.33 174.42C32 174.34 31.48 174.3 30.77 174.3C29.82 174.3 29.185 174.415 28.865 174.645C28.575 174.845 28.43 175.21 28.43 175.74H26.915C26.915 174.59 27.32 173.8 28.13 173.37C28.72 173.05 29.6 172.89 30.77 172.89C32.25 172.89 33.285 173.115 33.875 173.565C34.395 173.975 34.655 174.625 34.655 175.515C34.655 176.105 34.555 176.57 34.355 176.91C34.135 177.31 33.775 177.605 33.275 177.795ZM43.0288 183H41.6938V182.34C41.4538 182.59 41.1288 182.785 40.7188 182.925C40.3088 183.055 39.8488 183.12 39.3388 183.12C38.3388 183.12 37.6138 182.925 37.1638 182.535C36.7238 182.165 36.5038 181.59 36.5038 180.81C36.5038 179.81 36.8588 179.14 37.5688 178.8C38.0088 178.58 38.6738 178.47 39.5638 178.47H41.5738C41.5738 178.07 41.5588 177.785 41.5288 177.615C41.4988 177.445 41.4288 177.31 41.3188 177.21C41.0988 176.98 40.6238 176.865 39.8938 176.865C39.3338 176.865 38.9288 176.92 38.6788 177.03C38.3288 177.17 38.1538 177.43 38.1538 177.81H36.7138C36.7138 176.92 37.0838 176.3 37.8237 175.95C38.3338 175.71 39.0538 175.59 39.9838 175.59C41.2138 175.59 42.0638 175.895 42.5338 176.505C42.8638 176.935 43.0288 177.56 43.0288 178.38V183ZM41.6038 179.7H39.5038C38.9038 179.7 38.5038 179.78 38.3038 179.94C38.1038 180.1 38.0038 180.385 38.0038 180.795C38.0038 181.195 38.1238 181.475 38.3638 181.635C38.6038 181.795 38.9938 181.875 39.5338 181.875C40.4738 181.875 41.0738 181.67 41.3338 181.26C41.5138 180.98 41.6038 180.46 41.6038 179.7ZM51.2043 183H49.7193V177H46.4193V183H44.9343V175.71H51.2043V183ZM59.3911 183H58.0561V182.34C57.8161 182.59 57.4911 182.785 57.0811 182.925C56.6711 183.055 56.2111 183.12 55.7011 183.12C54.7011 183.12 53.9761 182.925 53.5261 182.535C53.0861 182.165 52.8661 181.59 52.8661 180.81C52.8661 179.81 53.2211 179.14 53.9311 178.8C54.3711 178.58 55.0361 178.47 55.9261 178.47H57.9361C57.9361 178.07 57.9211 177.785 57.8911 177.615C57.8611 177.445 57.7911 177.31 57.6811 177.21C57.4611 176.98 56.9861 176.865 56.2561 176.865C55.6961 176.865 55.2911 176.92 55.0411 177.03C54.6911 177.17 54.5161 177.43 54.5161 177.81H53.0761C53.0761 176.92 53.4461 176.3 54.1861 175.95C54.6961 175.71 55.4161 175.59 56.3461 175.59C57.5761 175.59 58.4261 175.895 58.8961 176.505C59.2261 176.935 59.3911 177.56 59.3911 178.38V183ZM57.9661 179.7H55.8661C55.2661 179.7 54.8661 179.78 54.6661 179.94C54.4661 180.1 54.3661 180.385 54.3661 180.795C54.3661 181.195 54.4861 181.475 54.7261 181.635C54.9661 181.795 55.3561 181.875 55.8961 181.875C56.8361 181.875 57.4361 181.67 57.6961 181.26C57.8761 180.98 57.9661 180.46 57.9661 179.7ZM67.4616 180.84C67.4616 182.36 66.4416 183.12 64.4016 183.12C62.9516 183.12 61.9966 182.705 61.5366 181.875C61.3366 181.525 61.2066 181.08 61.1466 180.54C61.1066 180.21 61.0866 179.805 61.0866 179.325C61.0866 178.505 61.1516 177.87 61.2816 177.42C61.4516 176.83 61.7616 176.385 62.2116 176.085C62.7216 175.755 63.4516 175.59 64.4016 175.59C66.4416 175.59 67.4616 176.345 67.4616 177.855H66.0516C66.0516 177.435 65.8466 177.155 65.4366 177.015C65.2166 176.945 64.8816 176.91 64.4316 176.91C63.8816 176.91 63.4716 176.99 63.2016 177.15C62.9716 177.3 62.8116 177.53 62.7216 177.84C62.6316 178.15 62.5866 178.65 62.5866 179.34C62.5866 179.98 62.6216 180.45 62.6916 180.75C62.7816 181.12 62.9516 181.38 63.2016 181.53C63.4716 181.7 63.8816 181.785 64.4316 181.785C64.9516 181.785 65.3266 181.73 65.5566 181.62C65.8866 181.48 66.0516 181.22 66.0516 180.84H67.4616ZM75.4475 183H73.9625V179.895H70.6625V183H69.1775V175.71H70.6625V178.59H73.9625V175.71H75.4475V183ZM80.6492 175.59C81.8592 175.59 82.7392 175.86 83.2892 176.4C83.5992 176.71 83.8142 177.13 83.9342 177.66C84.0142 178.07 84.0542 178.635 84.0542 179.355C84.0542 180.175 83.9992 180.805 83.8892 181.245C83.7692 181.685 83.5692 182.035 83.2892 182.295C82.7392 182.845 81.8592 183.12 80.6492 183.12C79.9892 183.12 79.4442 183.05 79.0142 182.91C78.6042 182.78 78.2642 182.575 77.9942 182.295C77.6842 181.995 77.4692 181.58 77.3492 181.05C77.2692 180.64 77.2292 180.075 77.2292 179.355C77.2292 178.535 77.2842 177.905 77.3942 177.465C77.5142 177.025 77.7142 176.67 77.9942 176.4C78.2742 176.12 78.6242 175.915 79.0442 175.785C79.4742 175.655 80.0092 175.59 80.6492 175.59ZM80.6492 176.91C80.0692 176.91 79.6392 176.995 79.3592 177.165C79.0992 177.325 78.9242 177.59 78.8342 177.96C78.7642 178.24 78.7292 178.705 78.7292 179.355C78.7292 179.995 78.7642 180.455 78.8342 180.735C78.9242 181.105 79.0992 181.37 79.3592 181.53C79.6392 181.7 80.0692 181.785 80.6492 181.785C81.2292 181.785 81.6592 181.7 81.9392 181.53C82.1992 181.37 82.3692 181.105 82.4492 180.735C82.5192 180.455 82.5542 179.995 82.5542 179.355C82.5542 178.705 82.5192 178.235 82.4492 177.945C82.3592 177.575 82.1842 177.315 81.9242 177.165C81.6442 176.995 81.2192 176.91 80.6492 176.91ZM92.1635 179.895H87.0935C87.0935 180.385 87.1385 180.76 87.2285 181.02C87.3285 181.31 87.5135 181.525 87.7835 181.665C88.0535 181.795 88.4535 181.86 88.9835 181.86C89.4935 181.86 89.8835 181.795 90.1535 181.665C90.4935 181.505 90.6685 181.23 90.6785 180.84H92.0735C92.0735 181.75 91.6835 182.39 90.9035 182.76C90.4035 183 89.7485 183.12 88.9385 183.12C87.5185 183.12 86.5685 182.735 86.0885 181.965C85.7585 181.435 85.5935 180.59 85.5935 179.43C85.5935 178.59 85.6635 177.925 85.8035 177.435C85.9835 176.835 86.2985 176.385 86.7485 176.085C87.2585 175.755 87.9735 175.59 88.8935 175.59C89.8735 175.59 90.6135 175.775 91.1135 176.145C91.5535 176.475 91.8485 176.98 91.9985 177.66C92.1085 178.14 92.1635 178.885 92.1635 179.895ZM90.6935 178.65C90.6935 178.26 90.6635 177.96 90.6035 177.75C90.5535 177.53 90.4635 177.355 90.3335 177.225C90.0835 176.965 89.6035 176.835 88.8935 176.835C88.2235 176.835 87.7585 176.97 87.4985 177.24C87.2385 177.5 87.1085 177.97 87.1085 178.65H90.6935ZM104.183 183H102.203L98.9783 179.625V183H97.4783V175.71H98.9783V178.665L102.218 175.71H104.153L100.373 179.115L104.183 183ZM108.247 175.59C109.457 175.59 110.337 175.86 110.887 176.4C111.197 176.71 111.412 177.13 111.532 177.66C111.612 178.07 111.652 178.635 111.652 179.355C111.652 180.175 111.597 180.805 111.487 181.245C111.367 181.685 111.167 182.035 110.887 182.295C110.337 182.845 109.457 183.12 108.247 183.12C107.587 183.12 107.042 183.05 106.612 182.91C106.202 182.78 105.862 182.575 105.592 182.295C105.282 181.995 105.067 181.58 104.947 181.05C104.867 180.64 104.827 180.075 104.827 179.355C104.827 178.535 104.882 177.905 104.992 177.465C105.112 177.025 105.312 176.67 105.592 176.4C105.872 176.12 106.222 175.915 106.642 175.785C107.072 175.655 107.607 175.59 108.247 175.59ZM108.247 176.91C107.667 176.91 107.237 176.995 106.957 177.165C106.697 177.325 106.522 177.59 106.432 177.96C106.362 178.24 106.327 178.705 106.327 179.355C106.327 179.995 106.362 180.455 106.432 180.735C106.522 181.105 106.697 181.37 106.957 181.53C107.237 181.7 107.667 181.785 108.247 181.785C108.827 181.785 109.257 181.7 109.537 181.53C109.797 181.37 109.967 181.105 110.047 180.735C110.117 180.455 110.152 179.995 110.152 179.355C110.152 178.705 110.117 178.235 110.047 177.945C109.957 177.575 109.782 177.315 109.522 177.165C109.242 176.995 108.817 176.91 108.247 176.91ZM119.521 183H118.036V177H116.131L115.201 180.975C115.091 181.425 114.976 181.77 114.856 182.01C114.736 182.25 114.586 182.45 114.406 182.61C114.006 182.95 113.371 183.12 112.501 183.12V181.755C112.881 181.755 113.161 181.675 113.341 181.515C113.531 181.345 113.681 181.04 113.791 180.6L114.946 175.71H119.521V183ZM127.876 179.895H122.806C122.806 180.385 122.851 180.76 122.941 181.02C123.041 181.31 123.226 181.525 123.496 181.665C123.766 181.795 124.166 181.86 124.696 181.86C125.206 181.86 125.596 181.795 125.866 181.665C126.206 181.505 126.381 181.23 126.391 180.84H127.786C127.786 181.75 127.396 182.39 126.616 182.76C126.116 183 125.461 183.12 124.651 183.12C123.231 183.12 122.281 182.735 121.801 181.965C121.471 181.435 121.306 180.59 121.306 179.43C121.306 178.59 121.376 177.925 121.516 177.435C121.696 176.835 122.011 176.385 122.461 176.085C122.971 175.755 123.686 175.59 124.606 175.59C125.586 175.59 126.326 175.775 126.826 176.145C127.266 176.475 127.561 176.98 127.711 177.66C127.821 178.14 127.876 178.885 127.876 179.895ZM126.406 178.65C126.406 178.26 126.376 177.96 126.316 177.75C126.266 177.53 126.176 177.355 126.046 177.225C125.796 176.965 125.316 176.835 124.606 176.835C123.936 176.835 123.471 176.97 123.211 177.24C122.951 177.5 122.821 177.97 122.821 178.65H126.406ZM135.797 180.84C135.797 182.36 134.777 183.12 132.737 183.12C131.287 183.12 130.332 182.705 129.872 181.875C129.672 181.525 129.542 181.08 129.482 180.54C129.442 180.21 129.422 179.805 129.422 179.325C129.422 178.505 129.487 177.87 129.617 177.42C129.787 176.83 130.097 176.385 130.547 176.085C131.057 175.755 131.787 175.59 132.737 175.59C134.777 175.59 135.797 176.345 135.797 177.855H134.387C134.387 177.435 134.182 177.155 133.772 177.015C133.552 176.945 133.217 176.91 132.767 176.91C132.217 176.91 131.807 176.99 131.537 177.15C131.307 177.3 131.147 177.53 131.057 177.84C130.967 178.15 130.922 178.65 130.922 179.34C130.922 179.98 130.957 180.45 131.027 180.75C131.117 181.12 131.287 181.38 131.537 181.53C131.807 181.7 132.217 181.785 132.767 181.785C133.287 181.785 133.662 181.73 133.892 181.62C134.222 181.48 134.387 181.22 134.387 180.84H135.797ZM140.635 175.59C141.845 175.59 142.725 175.86 143.275 176.4C143.585 176.71 143.8 177.13 143.92 177.66C144 178.07 144.04 178.635 144.04 179.355C144.04 180.175 143.985 180.805 143.875 181.245C143.755 181.685 143.555 182.035 143.275 182.295C142.725 182.845 141.845 183.12 140.635 183.12C139.975 183.12 139.43 183.05 139 182.91C138.59 182.78 138.25 182.575 137.98 182.295C137.67 181.995 137.455 181.58 137.335 181.05C137.255 180.64 137.215 180.075 137.215 179.355C137.215 178.535 137.27 177.905 137.38 177.465C137.5 177.025 137.7 176.67 137.98 176.4C138.26 176.12 138.61 175.915 139.03 175.785C139.46 175.655 139.995 175.59 140.635 175.59ZM140.635 176.91C140.055 176.91 139.625 176.995 139.345 177.165C139.085 177.325 138.91 177.59 138.82 177.96C138.75 178.24 138.715 178.705 138.715 179.355C138.715 179.995 138.75 180.455 138.82 180.735C138.91 181.105 139.085 181.37 139.345 181.53C139.625 181.7 140.055 181.785 140.635 181.785C141.215 181.785 141.645 181.7 141.925 181.53C142.185 181.37 142.355 181.105 142.435 180.735C142.505 180.455 142.54 179.995 142.54 179.355C142.54 178.705 142.505 178.235 142.435 177.945C142.345 177.575 142.17 177.315 141.91 177.165C141.63 176.995 141.205 176.91 140.635 176.91ZM147.113 181.23V182.715C147.113 183.195 147.058 183.575 146.948 183.855C146.848 184.145 146.668 184.42 146.408 184.68L145.793 185.265L144.848 184.38C145.158 184.08 145.343 183.895 145.403 183.825C145.463 183.765 145.518 183.69 145.568 183.6C145.678 183.4 145.733 183.105 145.733 182.715V181.23H147.113ZM158.239 175.71L154.354 185.85H152.809L153.994 182.865L151.249 175.71H152.824L154.774 181.185L156.664 175.71H158.239ZM165.621 180.84C165.621 182.36 164.601 183.12 162.561 183.12C161.111 183.12 160.156 182.705 159.696 181.875C159.496 181.525 159.366 181.08 159.306 180.54C159.266 180.21 159.246 179.805 159.246 179.325C159.246 178.505 159.311 177.87 159.441 177.42C159.611 176.83 159.921 176.385 160.371 176.085C160.881 175.755 161.611 175.59 162.561 175.59C164.601 175.59 165.621 176.345 165.621 177.855H164.211C164.211 177.435 164.006 177.155 163.596 177.015C163.376 176.945 163.041 176.91 162.591 176.91C162.041 176.91 161.631 176.99 161.361 177.15C161.131 177.3 160.971 177.53 160.881 177.84C160.791 178.15 160.746 178.65 160.746 179.34C160.746 179.98 160.781 180.45 160.851 180.75C160.941 181.12 161.111 181.38 161.361 181.53C161.631 181.7 162.041 181.785 162.591 181.785C163.111 181.785 163.486 181.73 163.716 181.62C164.046 181.48 164.211 181.22 164.211 180.84H165.621ZM173.007 177H170.487V183H169.002V177H166.482V175.71H173.007V177ZM180.255 183H178.92V182.34C178.68 182.59 178.355 182.785 177.945 182.925C177.535 183.055 177.075 183.12 176.565 183.12C175.565 183.12 174.84 182.925 174.39 182.535C173.95 182.165 173.73 181.59 173.73 180.81C173.73 179.81 174.085 179.14 174.795 178.8C175.235 178.58 175.9 178.47 176.79 178.47H178.8C178.8 178.07 178.785 177.785 178.755 177.615C178.725 177.445 178.655 177.31 178.545 177.21C178.325 176.98 177.85 176.865 177.12 176.865C176.56 176.865 176.155 176.92 175.905 177.03C175.555 177.17 175.38 177.43 175.38 177.81H173.94C173.94 176.92 174.31 176.3 175.05 175.95C175.56 175.71 176.28 175.59 177.21 175.59C178.44 175.59 179.29 175.895 179.76 176.505C180.09 176.935 180.255 177.56 180.255 178.38V183ZM178.83 179.7H176.73C176.13 179.7 175.73 179.78 175.53 179.94C175.33 180.1 175.23 180.385 175.23 180.795C175.23 181.195 175.35 181.475 175.59 181.635C175.83 181.795 176.22 181.875 176.76 181.875C177.7 181.875 178.3 181.67 178.56 181.26C178.74 180.98 178.83 180.46 178.83 179.7ZM188.431 183H186.946V179.895H183.646V183H182.161V175.71H183.646V178.59H186.946V175.71H188.431V183ZM193.633 175.59C194.843 175.59 195.723 175.86 196.273 176.4C196.583 176.71 196.798 177.13 196.918 177.66C196.998 178.07 197.038 178.635 197.038 179.355C197.038 180.175 196.983 180.805 196.873 181.245C196.753 181.685 196.553 182.035 196.273 182.295C195.723 182.845 194.843 183.12 193.633 183.12C192.973 183.12 192.428 183.05 191.998 182.91C191.588 182.78 191.248 182.575 190.978 182.295C190.668 181.995 190.453 181.58 190.333 181.05C190.253 180.64 190.213 180.075 190.213 179.355C190.213 178.535 190.268 177.905 190.378 177.465C190.498 177.025 190.698 176.67 190.978 176.4C191.258 176.12 191.608 175.915 192.028 175.785C192.458 175.655 192.993 175.59 193.633 175.59ZM193.633 176.91C193.053 176.91 192.623 176.995 192.343 177.165C192.083 177.325 191.908 177.59 191.818 177.96C191.748 178.24 191.713 178.705 191.713 179.355C191.713 179.995 191.748 180.455 191.818 180.735C191.908 181.105 192.083 181.37 192.343 181.53C192.623 181.7 193.053 181.785 193.633 181.785C194.213 181.785 194.643 181.7 194.923 181.53C195.183 181.37 195.353 181.105 195.433 180.735C195.503 180.455 195.538 179.995 195.538 179.355C195.538 178.705 195.503 178.235 195.433 177.945C195.343 177.575 195.168 177.315 194.908 177.165C194.628 176.995 194.203 176.91 193.633 176.91ZM204.292 179.205C204.552 179.345 204.737 179.545 204.847 179.805C204.967 180.055 205.027 180.395 205.027 180.825C205.027 181.585 204.842 182.13 204.472 182.46C204.212 182.7 203.902 182.85 203.542 182.91C203.222 182.97 202.677 183 201.907 183H198.772V175.68H201.832C202.512 175.68 202.982 175.695 203.242 175.725C203.512 175.745 203.752 175.79 203.962 175.86C204.622 176.11 204.952 176.685 204.952 177.585C204.952 178.405 204.732 178.945 204.292 179.205ZM203.362 178.455C203.502 178.315 203.572 178.09 203.572 177.78C203.572 177.41 203.472 177.165 203.272 177.045C203.092 176.945 202.767 176.895 202.297 176.895H200.167V178.635H201.997H202.147C202.537 178.635 202.812 178.625 202.972 178.605C203.132 178.585 203.262 178.535 203.362 178.455ZM200.167 181.785H201.982C202.612 181.785 203.022 181.745 203.212 181.665C203.472 181.565 203.602 181.28 203.602 180.81C203.602 180.45 203.532 180.205 203.392 180.075C203.282 179.975 203.127 179.91 202.927 179.88C202.737 179.85 202.372 179.835 201.832 179.835H200.167V181.785ZM212.978 183H211.493V177H209.588L208.658 180.975C208.548 181.425 208.433 181.77 208.313 182.01C208.193 182.25 208.043 182.45 207.863 182.61C207.463 182.95 206.828 183.12 205.958 183.12V181.755C206.338 181.755 206.618 181.675 206.798 181.515C206.988 181.345 207.138 181.04 207.248 180.6L208.403 175.71H212.978V183ZM221.333 179.895H216.263C216.263 180.385 216.308 180.76 216.398 181.02C216.498 181.31 216.683 181.525 216.953 181.665C217.223 181.795 217.623 181.86 218.153 181.86C218.663 181.86 219.053 181.795 219.323 181.665C219.663 181.505 219.838 181.23 219.848 180.84H221.243C221.243 181.75 220.853 182.39 220.073 182.76C219.573 183 218.918 183.12 218.108 183.12C216.688 183.12 215.738 182.735 215.258 181.965C214.928 181.435 214.763 180.59 214.763 179.43C214.763 178.59 214.833 177.925 214.973 177.435C215.153 176.835 215.468 176.385 215.918 176.085C216.428 175.755 217.143 175.59 218.063 175.59C219.043 175.59 219.783 175.775 220.283 176.145C220.723 176.475 221.018 176.98 221.168 177.66C221.278 178.14 221.333 178.885 221.333 179.895ZM219.863 178.65C219.863 178.26 219.833 177.96 219.773 177.75C219.723 177.53 219.633 177.355 219.503 177.225C219.253 176.965 218.773 176.835 218.063 176.835C217.393 176.835 216.928 176.97 216.668 177.24C216.408 177.5 216.278 177.97 216.278 178.65H219.863ZM229.359 183H227.874V179.895H224.574V183H223.089V175.71H224.574V178.59H227.874V175.71H229.359V183ZM237.62 183H236.135V179.895H232.835V183H231.35V175.71H232.835V178.59H236.135V175.71H237.62V183ZM242.822 175.59C244.032 175.59 244.912 175.86 245.462 176.4C245.772 176.71 245.987 177.13 246.107 177.66C246.187 178.07 246.227 178.635 246.227 179.355C246.227 180.175 246.172 180.805 246.062 181.245C245.942 181.685 245.742 182.035 245.462 182.295C244.912 182.845 244.032 183.12 242.822 183.12C242.162 183.12 241.617 183.05 241.187 182.91C240.777 182.78 240.437 182.575 240.167 182.295C239.857 181.995 239.642 181.58 239.522 181.05C239.442 180.64 239.402 180.075 239.402 179.355C239.402 178.535 239.457 177.905 239.567 177.465C239.687 177.025 239.887 176.67 240.167 176.4C240.447 176.12 240.797 175.915 241.217 175.785C241.647 175.655 242.182 175.59 242.822 175.59ZM242.822 176.91C242.242 176.91 241.812 176.995 241.532 177.165C241.272 177.325 241.097 177.59 241.007 177.96C240.937 178.24 240.902 178.705 240.902 179.355C240.902 179.995 240.937 180.455 241.007 180.735C241.097 181.105 241.272 181.37 241.532 181.53C241.812 181.7 242.242 181.785 242.822 181.785C243.402 181.785 243.832 181.7 244.112 181.53C244.372 181.37 244.542 181.105 244.622 180.735C244.692 180.455 244.727 179.995 244.727 179.355C244.727 178.705 244.692 178.235 244.622 177.945C244.532 177.575 244.357 177.315 244.097 177.165C243.817 176.995 243.392 176.91 242.822 176.91ZM254.336 179.895H249.266C249.266 180.385 249.311 180.76 249.401 181.02C249.501 181.31 249.686 181.525 249.956 181.665C250.226 181.795 250.626 181.86 251.156 181.86C251.666 181.86 252.056 181.795 252.326 181.665C252.666 181.505 252.841 181.23 252.851 180.84H254.246C254.246 181.75 253.856 182.39 253.076 182.76C252.576 183 251.921 183.12 251.111 183.12C249.691 183.12 248.741 182.735 248.261 181.965C247.931 181.435 247.766 180.59 247.766 179.43C247.766 178.59 247.836 177.925 247.976 177.435C248.156 176.835 248.471 176.385 248.921 176.085C249.431 175.755 250.146 175.59 251.066 175.59C252.046 175.59 252.786 175.775 253.286 176.145C253.726 176.475 254.021 176.98 254.171 177.66C254.281 178.14 254.336 178.885 254.336 179.895ZM252.866 178.65C252.866 178.26 252.836 177.96 252.776 177.75C252.726 177.53 252.636 177.355 252.506 177.225C252.256 176.965 251.776 176.835 251.066 176.835C250.396 176.835 249.931 176.97 249.671 177.24C249.411 177.5 249.281 177.97 249.281 178.65H252.866ZM265.921 183H264.436V179.895H261.136V183H259.651V175.71H261.136V178.59H264.436V175.71H265.921V183ZM274.108 183H272.773V182.34C272.533 182.59 272.208 182.785 271.798 182.925C271.388 183.055 270.928 183.12 270.418 183.12C269.418 183.12 268.693 182.925 268.243 182.535C267.803 182.165 267.583 181.59 267.583 180.81C267.583 179.81 267.938 179.14 268.648 178.8C269.088 178.58 269.753 178.47 270.643 178.47H272.653C272.653 178.07 272.638 177.785 272.608 177.615C272.578 177.445 272.508 177.31 272.398 177.21C272.178 176.98 271.703 176.865 270.973 176.865C270.413 176.865 270.008 176.92 269.758 177.03C269.408 177.17 269.233 177.43 269.233 177.81H267.793C267.793 176.92 268.163 176.3 268.903 175.95C269.413 175.71 270.133 175.59 271.063 175.59C272.293 175.59 273.143 175.895 273.613 176.505C273.943 176.935 274.108 177.56 274.108 178.38V183ZM272.683 179.7H270.583C269.983 179.7 269.583 179.78 269.383 179.94C269.183 180.1 269.083 180.385 269.083 180.795C269.083 181.195 269.203 181.475 269.443 181.635C269.683 181.795 270.073 181.875 270.613 181.875C271.553 181.875 272.153 181.67 272.413 181.26C272.593 180.98 272.683 180.46 272.683 179.7ZM32.33 197.19C32.66 197.32 32.895 197.515 33.035 197.775C33.175 198.025 33.245 198.395 33.245 198.885C33.245 199.735 32.905 200.34 32.225 200.7C31.685 200.98 30.895 201.12 29.855 201.12C28.845 201.12 28.085 200.95 27.575 200.61C27.005 200.24 26.72 199.65 26.72 198.84H28.13C28.13 199.27 28.35 199.55 28.79 199.68C29.03 199.76 29.405 199.8 29.915 199.8C30.655 199.8 31.16 199.725 31.43 199.575C31.69 199.435 31.82 199.185 31.82 198.825C31.82 198.545 31.775 198.34 31.685 198.21C31.585 198.08 31.415 197.99 31.175 197.94C30.935 197.89 30.535 197.865 29.975 197.865H29.165V196.605H29.975C30.665 196.605 31.125 196.545 31.355 196.425C31.605 196.295 31.73 196.07 31.73 195.75C31.73 195.41 31.59 195.185 31.31 195.075C31.05 194.975 30.58 194.925 29.9 194.925C29.32 194.925 28.905 194.975 28.655 195.075C28.305 195.225 28.13 195.485 28.13 195.855H26.72C26.72 194.955 27.08 194.325 27.8 193.965C28.3 193.715 28.985 193.59 29.855 193.59C31.075 193.59 31.935 193.76 32.435 194.1C32.915 194.42 33.155 194.925 33.155 195.615C33.155 195.995 33.095 196.305 32.975 196.545C32.845 196.815 32.63 197.03 32.33 197.19ZM41.1977 201H39.8627V200.34C39.6227 200.59 39.2977 200.785 38.8877 200.925C38.4777 201.055 38.0177 201.12 37.5077 201.12C36.5077 201.12 35.7827 200.925 35.3327 200.535C34.8927 200.165 34.6727 199.59 34.6727 198.81C34.6727 197.81 35.0277 197.14 35.7377 196.8C36.1777 196.58 36.8427 196.47 37.7327 196.47H39.7427C39.7427 196.07 39.7277 195.785 39.6977 195.615C39.6677 195.445 39.5977 195.31 39.4877 195.21C39.2677 194.98 38.7927 194.865 38.0627 194.865C37.5027 194.865 37.0977 194.92 36.8477 195.03C36.4977 195.17 36.3227 195.43 36.3227 195.81H34.8827C34.8827 194.92 35.2527 194.3 35.9927 193.95C36.5027 193.71 37.2227 193.59 38.1527 193.59C39.3827 193.59 40.2327 193.895 40.7027 194.505C41.0327 194.935 41.1977 195.56 41.1977 196.38V201ZM39.7727 197.7H37.6727C37.0727 197.7 36.6727 197.78 36.4727 197.94C36.2727 198.1 36.1727 198.385 36.1727 198.795C36.1727 199.195 36.2927 199.475 36.5327 199.635C36.7727 199.795 37.1627 199.875 37.7027 199.875C38.6427 199.875 39.2427 199.67 39.5027 199.26C39.6827 198.98 39.7727 198.46 39.7727 197.7ZM50.0933 202.755H48.6983V200.955H43.6133V202.755H42.2033V199.68C42.5933 199.68 42.8983 199.57 43.1183 199.35C43.2983 199.16 43.4333 198.88 43.5233 198.51L44.6633 193.71H49.2233V199.68H50.0933V202.755ZM47.7383 199.68V195H45.8483L45.0233 198.465C44.8733 199.135 44.6583 199.54 44.3783 199.68H47.7383ZM57.7522 201H56.2672V197.895H52.9672V201H51.4822V193.71H52.9672V196.59H56.2672V193.71H57.7522V201ZM66.1039 197.895H61.0339C61.0339 198.385 61.0789 198.76 61.1689 199.02C61.2689 199.31 61.4539 199.525 61.7239 199.665C61.9939 199.795 62.3939 199.86 62.9239 199.86C63.4339 199.86 63.8239 199.795 64.0939 199.665C64.4339 199.505 64.6089 199.23 64.6189 198.84H66.0139C66.0139 199.75 65.6239 200.39 64.8439 200.76C64.3439 201 63.6889 201.12 62.8789 201.12C61.4589 201.12 60.5089 200.735 60.0289 199.965C59.6989 199.435 59.5339 198.59 59.5339 197.43C59.5339 196.59 59.6039 195.925 59.7439 195.435C59.9239 194.835 60.2389 194.385 60.6889 194.085C61.1989 193.755 61.9139 193.59 62.8339 193.59C63.8139 193.59 64.5539 193.775 65.0539 194.145C65.4939 194.475 65.7889 194.98 65.9389 195.66C66.0489 196.14 66.1039 196.885 66.1039 197.895ZM64.6339 196.65C64.6339 196.26 64.6039 195.96 64.5439 195.75C64.4939 195.53 64.4039 195.355 64.2739 195.225C64.0239 194.965 63.5439 194.835 62.8339 194.835C62.1639 194.835 61.6989 194.97 61.4389 195.24C61.1789 195.5 61.0489 195.97 61.0489 196.65H64.6339ZM74.1441 201H72.7641V195.795L69.4191 201H67.8741V193.71H69.2691V198.9L72.6141 193.71H74.1441V201ZM73.1841 190.965C73.1841 191.745 73.0041 192.27 72.6441 192.54C72.3241 192.78 71.7791 192.9 71.0091 192.9C70.1391 192.9 69.5491 192.74 69.2391 192.42C68.9691 192.14 68.8341 191.655 68.8341 190.965H69.8391C69.8391 191.355 69.9191 191.62 70.0791 191.76C70.2391 191.9 70.5491 191.97 71.0091 191.97C71.4591 191.97 71.7641 191.905 71.9241 191.775C72.1041 191.625 72.1941 191.355 72.1941 190.965H73.1841ZM86.6851 202.755H85.2901V200.955H80.2051V202.755H78.7951V199.68C79.1851 199.68 79.4901 199.57 79.7101 199.35C79.8901 199.16 80.0251 198.88 80.1151 198.51L81.2551 193.71H85.8151V199.68H86.6851V202.755ZM84.3301 199.68V195H82.4401L81.6151 198.465C81.4651 199.135 81.2501 199.54 80.9701 199.68H84.3301ZM93.579 197.205C93.839 197.345 94.024 197.545 94.134 197.805C94.254 198.055 94.314 198.395 94.314 198.825C94.314 199.585 94.129 200.13 93.759 200.46C93.499 200.7 93.189 200.85 92.829 200.91C92.509 200.97 91.964 201 91.194 201H88.059V193.68H91.119C91.799 193.68 92.269 193.695 92.529 193.725C92.799 193.745 93.039 193.79 93.249 193.86C93.909 194.11 94.239 194.685 94.239 195.585C94.239 196.405 94.019 196.945 93.579 197.205ZM92.649 196.455C92.789 196.315 92.859 196.09 92.859 195.78C92.859 195.41 92.759 195.165 92.559 195.045C92.379 194.945 92.054 194.895 91.584 194.895H89.454V196.635H91.284H91.434C91.824 196.635 92.099 196.625 92.259 196.605C92.419 196.585 92.549 196.535 92.649 196.455ZM89.454 199.785H91.269C91.899 199.785 92.309 199.745 92.499 199.665C92.759 199.565 92.889 199.28 92.889 198.81C92.889 198.45 92.819 198.205 92.679 198.075C92.569 197.975 92.414 197.91 92.214 197.88C92.024 197.85 91.659 197.835 91.119 197.835H89.454V199.785ZM102.505 197.895H97.4353C97.4353 198.385 97.4803 198.76 97.5703 199.02C97.6703 199.31 97.8553 199.525 98.1253 199.665C98.3953 199.795 98.7953 199.86 99.3253 199.86C99.8353 199.86 100.225 199.795 100.495 199.665C100.835 199.505 101.01 199.23 101.02 198.84H102.415C102.415 199.75 102.025 200.39 101.245 200.76C100.745 201 100.09 201.12 99.2803 201.12C97.8603 201.12 96.9103 200.735 96.4303 199.965C96.1003 199.435 95.9353 198.59 95.9353 197.43C95.9353 196.59 96.0053 195.925 96.1453 195.435C96.3253 194.835 96.6403 194.385 97.0903 194.085C97.6003 193.755 98.3153 193.59 99.2353 193.59C100.215 193.59 100.955 193.775 101.455 194.145C101.895 194.475 102.19 194.98 102.34 195.66C102.45 196.14 102.505 196.885 102.505 197.895ZM101.035 196.65C101.035 196.26 101.005 195.96 100.945 195.75C100.895 195.53 100.805 195.355 100.675 195.225C100.425 194.965 99.9453 194.835 99.2353 194.835C98.5653 194.835 98.1003 194.97 97.8403 195.24C97.5803 195.5 97.4503 195.97 97.4503 196.65H101.035ZM105.626 194.355C106.166 193.835 106.936 193.58 107.936 193.59C108.776 193.6 109.421 193.76 109.871 194.07C110.281 194.35 110.561 194.785 110.711 195.375C110.831 195.835 110.891 196.5 110.891 197.37C110.891 198.11 110.831 198.705 110.711 199.155C110.551 199.765 110.266 200.23 109.856 200.55C109.366 200.93 108.676 201.12 107.786 201.12C107.306 201.12 106.901 201.065 106.571 200.955C106.251 200.835 105.976 200.645 105.746 200.385V203.865H104.261V193.71H105.626V194.355ZM107.756 194.94C107.216 194.94 106.811 195.005 106.541 195.135C106.251 195.275 106.046 195.515 105.926 195.855C105.806 196.195 105.746 196.695 105.746 197.355C105.746 198.015 105.806 198.515 105.926 198.855C106.046 199.195 106.241 199.435 106.511 199.575C106.791 199.715 107.206 199.785 107.756 199.785C108.216 199.785 108.566 199.705 108.806 199.545C109.026 199.395 109.181 199.16 109.271 198.84C109.361 198.51 109.406 198.015 109.406 197.355C109.406 196.385 109.286 195.74 109.046 195.42C108.816 195.1 108.386 194.94 107.756 194.94ZM118.939 201H117.559V195.795L114.214 201H112.669V193.71H114.064V198.9L117.409 193.71H118.939V201ZM122.43 199.23V200.715C122.43 201.195 122.375 201.575 122.265 201.855C122.165 202.145 121.985 202.42 121.725 202.68L121.11 203.265L120.165 202.38C120.475 202.08 120.66 201.895 120.72 201.825C120.78 201.765 120.835 201.69 120.885 201.6C120.995 201.4 121.05 201.105 121.05 200.715V199.23H122.43ZM133.497 198.84C133.497 200.36 132.477 201.12 130.437 201.12C128.987 201.12 128.032 200.705 127.572 199.875C127.372 199.525 127.242 199.08 127.182 198.54C127.142 198.21 127.122 197.805 127.122 197.325C127.122 196.505 127.187 195.87 127.317 195.42C127.487 194.83 127.797 194.385 128.247 194.085C128.757 193.755 129.487 193.59 130.437 193.59C132.477 193.59 133.497 194.345 133.497 195.855H132.087C132.087 195.435 131.882 195.155 131.472 195.015C131.252 194.945 130.917 194.91 130.467 194.91C129.917 194.91 129.507 194.99 129.237 195.15C129.007 195.3 128.847 195.53 128.757 195.84C128.667 196.15 128.622 196.65 128.622 197.34C128.622 197.98 128.657 198.45 128.727 198.75C128.817 199.12 128.987 199.38 129.237 199.53C129.507 199.7 129.917 199.785 130.467 199.785C130.987 199.785 131.362 199.73 131.592 199.62C131.922 199.48 132.087 199.22 132.087 198.84H133.497ZM140.718 197.205C140.978 197.345 141.163 197.545 141.273 197.805C141.393 198.055 141.453 198.395 141.453 198.825C141.453 199.585 141.268 200.13 140.898 200.46C140.638 200.7 140.328 200.85 139.968 200.91C139.648 200.97 139.103 201 138.333 201H135.198V193.68H138.258C138.938 193.68 139.408 193.695 139.668 193.725C139.938 193.745 140.178 193.79 140.388 193.86C141.048 194.11 141.378 194.685 141.378 195.585C141.378 196.405 141.158 196.945 140.718 197.205ZM139.788 196.455C139.928 196.315 139.998 196.09 139.998 195.78C139.998 195.41 139.898 195.165 139.698 195.045C139.518 194.945 139.193 194.895 138.723 194.895H136.593V196.635H138.423H138.573C138.963 196.635 139.238 196.625 139.398 196.605C139.558 196.585 139.688 196.535 139.788 196.455ZM136.593 199.785H138.408C139.038 199.785 139.448 199.745 139.638 199.665C139.898 199.565 140.028 199.28 140.028 198.81C140.028 198.45 139.958 198.205 139.818 198.075C139.708 197.975 139.553 197.91 139.353 197.88C139.163 197.85 138.798 197.835 138.258 197.835H136.593V199.785ZM146.494 193.59C147.704 193.59 148.584 193.86 149.134 194.4C149.444 194.71 149.659 195.13 149.779 195.66C149.859 196.07 149.899 196.635 149.899 197.355C149.899 198.175 149.844 198.805 149.734 199.245C149.614 199.685 149.414 200.035 149.134 200.295C148.584 200.845 147.704 201.12 146.494 201.12C145.834 201.12 145.289 201.05 144.859 200.91C144.449 200.78 144.109 200.575 143.839 200.295C143.529 199.995 143.314 199.58 143.194 199.05C143.114 198.64 143.074 198.075 143.074 197.355C143.074 196.535 143.129 195.905 143.239 195.465C143.359 195.025 143.559 194.67 143.839 194.4C144.119 194.12 144.469 193.915 144.889 193.785C145.319 193.655 145.854 193.59 146.494 193.59ZM146.494 194.91C145.914 194.91 145.484 194.995 145.204 195.165C144.944 195.325 144.769 195.59 144.679 195.96C144.609 196.24 144.574 196.705 144.574 197.355C144.574 197.995 144.609 198.455 144.679 198.735C144.769 199.105 144.944 199.37 145.204 199.53C145.484 199.7 145.914 199.785 146.494 199.785C147.074 199.785 147.504 199.7 147.784 199.53C148.044 199.37 148.214 199.105 148.294 198.735C148.364 198.455 148.399 197.995 148.399 197.355C148.399 196.705 148.364 196.235 148.294 195.945C148.204 195.575 148.029 195.315 147.769 195.165C147.489 194.995 147.064 194.91 146.494 194.91ZM158.638 202.755H157.243V200.955H152.158V202.755H150.748V199.68C151.138 199.68 151.443 199.57 151.663 199.35C151.843 199.16 151.978 198.88 152.068 198.51L153.208 193.71H157.768V199.68H158.638V202.755ZM156.283 199.68V195H154.393L153.568 198.465C153.418 199.135 153.203 199.54 152.923 199.68H156.283ZM166.312 201H164.932V195.795L161.587 201H160.042V193.71H161.437V198.9L164.782 193.71H166.312V201ZM173.973 195H171.453V201H169.968V195H167.448V193.71H173.973V195ZM185.38 201H183.4L180.175 197.625V201H178.675V193.71H180.175V196.665L183.415 193.71H185.35L181.57 197.115L185.38 201ZM198.069 201H196.644V195.99L194.694 201H193.314L191.379 195.99V201H189.969V193.71H191.859L194.034 199.185L196.239 193.71H198.069V201ZM206.346 201H204.966V195.795L201.621 201H200.076V193.71H201.471V198.9L204.816 193.71H206.346V201ZM214.608 201H213.123V197.895H209.823V201H208.338V193.71H209.823V196.59H213.123V193.71H214.608V201ZM222.884 201H221.504V195.795L218.159 201H216.614V193.71H218.009V198.9L221.354 193.71H222.884V201ZM232.976 201H231.551V195.99L229.601 201H228.221L226.286 195.99V201H224.876V193.71H226.766L228.941 199.185L231.146 193.71H232.976V201ZM241.194 193.71L237.309 203.85H235.764L236.949 200.865L234.204 193.71H235.779L237.729 199.185L239.619 193.71H241.194ZM250.51 201H249.085V195.99L247.135 201H245.755L243.82 195.99V201H242.41V193.71H244.3L246.475 199.185L248.68 193.71H250.51V201ZM258.728 193.71L254.843 203.85H253.298L254.483 200.865L251.738 193.71H253.313L255.263 199.185L257.153 193.71H258.728ZM32.33 215.19C32.66 215.32 32.895 215.515 33.035 215.775C33.175 216.025 33.245 216.395 33.245 216.885C33.245 217.735 32.905 218.34 32.225 218.7C31.685 218.98 30.895 219.12 29.855 219.12C28.845 219.12 28.085 218.95 27.575 218.61C27.005 218.24 26.72 217.65 26.72 216.84H28.13C28.13 217.27 28.35 217.55 28.79 217.68C29.03 217.76 29.405 217.8 29.915 217.8C30.655 217.8 31.16 217.725 31.43 217.575C31.69 217.435 31.82 217.185 31.82 216.825C31.82 216.545 31.775 216.34 31.685 216.21C31.585 216.08 31.415 215.99 31.175 215.94C30.935 215.89 30.535 215.865 29.975 215.865H29.165V214.605H29.975C30.665 214.605 31.125 214.545 31.355 214.425C31.605 214.295 31.73 214.07 31.73 213.75C31.73 213.41 31.59 213.185 31.31 213.075C31.05 212.975 30.58 212.925 29.9 212.925C29.32 212.925 28.905 212.975 28.655 213.075C28.305 213.225 28.13 213.485 28.13 213.855H26.72C26.72 212.955 27.08 212.325 27.8 211.965C28.3 211.715 28.985 211.59 29.855 211.59C31.075 211.59 31.935 211.76 32.435 212.1C32.915 212.42 33.155 212.925 33.155 213.615C33.155 213.995 33.095 214.305 32.975 214.545C32.845 214.815 32.63 215.03 32.33 215.19ZM41.1977 219H39.8627V218.34C39.6227 218.59 39.2977 218.785 38.8877 218.925C38.4777 219.055 38.0177 219.12 37.5077 219.12C36.5077 219.12 35.7827 218.925 35.3327 218.535C34.8927 218.165 34.6727 217.59 34.6727 216.81C34.6727 215.81 35.0277 215.14 35.7377 214.8C36.1777 214.58 36.8427 214.47 37.7327 214.47H39.7427C39.7427 214.07 39.7277 213.785 39.6977 213.615C39.6677 213.445 39.5977 213.31 39.4877 213.21C39.2677 212.98 38.7927 212.865 38.0627 212.865C37.5027 212.865 37.0977 212.92 36.8477 213.03C36.4977 213.17 36.3227 213.43 36.3227 213.81H34.8827C34.8827 212.92 35.2527 212.3 35.9927 211.95C36.5027 211.71 37.2227 211.59 38.1527 211.59C39.3827 211.59 40.2327 211.895 40.7027 212.505C41.0327 212.935 41.1977 213.56 41.1977 214.38V219ZM39.7727 215.7H37.6727C37.0727 215.7 36.6727 215.78 36.4727 215.94C36.2727 216.1 36.1727 216.385 36.1727 216.795C36.1727 217.195 36.2927 217.475 36.5327 217.635C36.7727 217.795 37.1627 217.875 37.7027 217.875C38.6427 217.875 39.2427 217.67 39.5027 217.26C39.6827 216.98 39.7727 216.46 39.7727 215.7ZM50.0933 220.755H48.6983V218.955H43.6133V220.755H42.2033V217.68C42.5933 217.68 42.8983 217.57 43.1183 217.35C43.2983 217.16 43.4333 216.88 43.5233 216.51L44.6633 211.71H49.2233V217.68H50.0933V220.755ZM47.7383 217.68V213H45.8483L45.0233 216.465C44.8733 217.135 44.6583 217.54 44.3783 217.68H47.7383ZM57.7522 219H56.2672V215.895H52.9672V219H51.4822V211.71H52.9672V214.59H56.2672V211.71H57.7522V219ZM66.0289 219H64.6489V213.795L61.3039 219H59.7589V211.71H61.1539V216.9L64.4989 211.71H66.0289V219ZM74.3053 219H72.9253V213.795L69.5803 219H68.0353V211.71H69.4303V216.9L72.7753 211.71H74.3053V219ZM73.3453 208.965C73.3453 209.745 73.1653 210.27 72.8053 210.54C72.4853 210.78 71.9403 210.9 71.1703 210.9C70.3003 210.9 69.7103 210.74 69.4003 210.42C69.1303 210.14 68.9953 209.655 68.9953 208.965H70.0003C70.0003 209.355 70.0803 209.62 70.2403 209.76C70.4003 209.9 70.7103 209.97 71.1703 209.97C71.6203 209.97 71.9253 209.905 72.0853 209.775C72.2653 209.625 72.3553 209.355 72.3553 208.965H73.3453ZM86.0212 216.84C86.0212 218.36 85.0012 219.12 82.9612 219.12C81.5112 219.12 80.5562 218.705 80.0962 217.875C79.8962 217.525 79.7662 217.08 79.7062 216.54C79.6662 216.21 79.6462 215.805 79.6462 215.325C79.6462 214.505 79.7112 213.87 79.8412 213.42C80.0112 212.83 80.3212 212.385 80.7712 212.085C81.2812 211.755 82.0112 211.59 82.9612 211.59C85.0012 211.59 86.0212 212.345 86.0212 213.855H84.6112C84.6112 213.435 84.4062 213.155 83.9962 213.015C83.7762 212.945 83.4412 212.91 82.9912 212.91C82.4412 212.91 82.0312 212.99 81.7612 213.15C81.5312 213.3 81.3712 213.53 81.2812 213.84C81.1912 214.15 81.1462 214.65 81.1462 215.34C81.1462 215.98 81.1812 216.45 81.2512 216.75C81.3412 217.12 81.5112 217.38 81.7612 217.53C82.0312 217.7 82.4412 217.785 82.9912 217.785C83.5112 217.785 83.8862 217.73 84.1162 217.62C84.4462 217.48 84.6112 217.22 84.6112 216.84H86.0212ZM93.2421 215.205C93.5021 215.345 93.6871 215.545 93.7971 215.805C93.9171 216.055 93.9771 216.395 93.9771 216.825C93.9771 217.585 93.7921 218.13 93.4221 218.46C93.1621 218.7 92.8521 218.85 92.4921 218.91C92.1721 218.97 91.6271 219 90.8571 219H87.7221V211.68H90.7821C91.4621 211.68 91.9321 211.695 92.1921 211.725C92.4621 211.745 92.7021 211.79 92.9121 211.86C93.5721 212.11 93.9021 212.685 93.9021 213.585C93.9021 214.405 93.6821 214.945 93.2421 215.205ZM92.3121 214.455C92.4521 214.315 92.5221 214.09 92.5221 213.78C92.5221 213.41 92.4221 213.165 92.2221 213.045C92.0421 212.945 91.7171 212.895 91.2471 212.895H89.1171V214.635H90.9471H91.0971C91.4871 214.635 91.7621 214.625 91.9221 214.605C92.0821 214.585 92.2121 214.535 92.3121 214.455ZM89.1171 217.785H90.9321C91.5621 217.785 91.9721 217.745 92.1621 217.665C92.4221 217.565 92.5521 217.28 92.5521 216.81C92.5521 216.45 92.4821 216.205 92.3421 216.075C92.2321 215.975 92.0771 215.91 91.8771 215.88C91.6871 215.85 91.3221 215.835 90.7821 215.835H89.1171V217.785ZM102.168 215.895H97.0984C97.0984 216.385 97.1434 216.76 97.2334 217.02C97.3334 217.31 97.5184 217.525 97.7884 217.665C98.0584 217.795 98.4584 217.86 98.9884 217.86C99.4984 217.86 99.8884 217.795 100.158 217.665C100.498 217.505 100.673 217.23 100.683 216.84H102.078C102.078 217.75 101.688 218.39 100.908 218.76C100.408 219 99.7534 219.12 98.9434 219.12C97.5234 219.12 96.5734 218.735 96.0934 217.965C95.7634 217.435 95.5984 216.59 95.5984 215.43C95.5984 214.59 95.6684 213.925 95.8084 213.435C95.9884 212.835 96.3034 212.385 96.7534 212.085C97.2634 211.755 97.9784 211.59 98.8984 211.59C99.8784 211.59 100.618 211.775 101.118 212.145C101.558 212.475 101.853 212.98 102.003 213.66C102.113 214.14 102.168 214.885 102.168 215.895ZM100.698 214.65C100.698 214.26 100.668 213.96 100.608 213.75C100.558 213.53 100.468 213.355 100.338 213.225C100.088 212.965 99.6084 212.835 98.8984 212.835C98.2284 212.835 97.7634 212.97 97.5034 213.24C97.2434 213.5 97.1134 213.97 97.1134 214.65H100.698ZM110.089 216.84C110.089 218.36 109.069 219.12 107.029 219.12C105.579 219.12 104.624 218.705 104.164 217.875C103.964 217.525 103.834 217.08 103.774 216.54C103.734 216.21 103.714 215.805 103.714 215.325C103.714 214.505 103.779 213.87 103.909 213.42C104.079 212.83 104.389 212.385 104.839 212.085C105.349 211.755 106.079 211.59 107.029 211.59C109.069 211.59 110.089 212.345 110.089 213.855H108.679C108.679 213.435 108.474 213.155 108.064 213.015C107.844 212.945 107.509 212.91 107.059 212.91C106.509 212.91 106.099 212.99 105.829 213.15C105.599 213.3 105.439 213.53 105.349 213.84C105.259 214.15 105.214 214.65 105.214 215.34C105.214 215.98 105.249 216.45 105.319 216.75C105.409 217.12 105.579 217.38 105.829 217.53C106.099 217.7 106.509 217.785 107.059 217.785C107.579 217.785 107.954 217.73 108.184 217.62C108.514 217.48 108.679 217.22 108.679 216.84H110.089ZM122.354 220.755H120.959V218.955H115.874V220.755H114.464V217.68C114.854 217.68 115.159 217.57 115.379 217.35C115.559 217.16 115.694 216.88 115.784 216.51L116.924 211.71H121.484V217.68H122.354V220.755ZM119.999 217.68V213H118.109L117.284 216.465C117.134 217.135 116.919 217.54 116.639 217.68H119.999ZM129.863 219H128.378V213H126.473L125.543 216.975C125.433 217.425 125.318 217.77 125.198 218.01C125.078 218.25 124.928 218.45 124.748 218.61C124.348 218.95 123.713 219.12 122.843 219.12V217.755C123.223 217.755 123.503 217.675 123.683 217.515C123.873 217.345 124.023 217.04 124.133 216.6L125.288 211.71H129.863V219ZM137.993 219H136.508V216.075H136.058C135.738 216.075 135.513 216.09 135.383 216.12C135.263 216.14 135.153 216.185 135.053 216.255C134.903 216.355 134.668 216.645 134.348 217.125L133.088 219H131.363L133.463 215.97C132.873 215.92 132.443 215.72 132.173 215.37C131.903 215.04 131.768 214.545 131.768 213.885C131.768 212.915 132.063 212.285 132.653 211.995C133.023 211.805 133.668 211.71 134.588 211.71H137.993V219ZM136.508 214.83V212.985H134.948C134.478 212.985 134.148 212.995 133.958 213.015C133.778 213.035 133.633 213.075 133.523 213.135C133.323 213.255 133.223 213.52 133.223 213.93C133.223 214.24 133.288 214.46 133.418 214.59C133.558 214.71 133.803 214.775 134.153 214.785L134.813 214.83H136.508ZM144.898 212.235C145.378 211.775 146.108 211.55 147.088 211.56C147.848 211.57 148.433 211.69 148.843 211.92C149.273 212.16 149.583 212.555 149.773 213.105C149.953 213.635 150.043 214.375 150.043 215.325C150.043 216.145 149.988 216.775 149.878 217.215C149.768 217.655 149.578 218.015 149.308 218.295C148.788 218.845 147.943 219.12 146.773 219.12C145.603 219.12 144.758 218.855 144.238 218.325C143.948 218.035 143.748 217.68 143.638 217.26C143.538 216.84 143.488 216.21 143.488 215.37V212.505C143.488 211.895 143.543 211.405 143.653 211.035C143.763 210.655 143.943 210.335 144.193 210.075C144.433 209.835 144.723 209.65 145.063 209.52C145.413 209.39 145.853 209.3 146.383 209.25L146.668 209.22C147.228 209.17 147.598 209.1 147.778 209.01C147.958 208.91 148.053 208.74 148.063 208.5H149.443C149.443 208.88 149.408 209.175 149.338 209.385C149.268 209.595 149.143 209.78 148.963 209.94C148.793 210.1 148.573 210.22 148.303 210.3C148.033 210.38 147.628 210.445 147.088 210.495C146.538 210.545 146.153 210.605 145.933 210.675C145.713 210.735 145.493 210.86 145.273 211.05C145.163 211.18 145.088 211.3 145.048 211.41C145.008 211.51 144.968 211.685 144.928 211.935C144.918 212.045 144.908 212.145 144.898 212.235ZM148.633 215.34C148.633 214.67 148.588 214.17 148.498 213.84C148.398 213.49 148.233 213.245 148.003 213.105C147.773 212.965 147.418 212.89 146.938 212.88C146.388 212.87 145.978 212.93 145.708 213.06C145.418 213.2 145.208 213.445 145.078 213.795C144.958 214.145 144.893 214.67 144.883 215.37C144.883 215.47 144.883 215.54 144.883 215.58C144.883 216.2 144.933 216.665 145.033 216.975C145.143 217.295 145.323 217.52 145.573 217.65C145.833 217.77 146.228 217.83 146.758 217.83C147.298 217.83 147.688 217.77 147.928 217.65C148.198 217.51 148.383 217.275 148.483 216.945C148.583 216.615 148.633 216.08 148.633 215.34ZM155.063 211.59C156.273 211.59 157.153 211.86 157.703 212.4C158.013 212.71 158.228 213.13 158.348 213.66C158.428 214.07 158.468 214.635 158.468 215.355C158.468 216.175 158.413 216.805 158.303 217.245C158.183 217.685 157.983 218.035 157.703 218.295C157.153 218.845 156.273 219.12 155.063 219.12C154.403 219.12 153.858 219.05 153.428 218.91C153.018 218.78 152.678 218.575 152.408 218.295C152.098 217.995 151.883 217.58 151.763 217.05C151.683 216.64 151.643 216.075 151.643 215.355C151.643 214.535 151.698 213.905 151.808 213.465C151.928 213.025 152.128 212.67 152.408 212.4C152.688 212.12 153.038 211.915 153.458 211.785C153.888 211.655 154.423 211.59 155.063 211.59ZM155.063 212.91C154.483 212.91 154.053 212.995 153.773 213.165C153.513 213.325 153.338 213.59 153.248 213.96C153.178 214.24 153.143 214.705 153.143 215.355C153.143 215.995 153.178 216.455 153.248 216.735C153.338 217.105 153.513 217.37 153.773 217.53C154.053 217.7 154.483 217.785 155.063 217.785C155.643 217.785 156.073 217.7 156.353 217.53C156.613 217.37 156.783 217.105 156.863 216.735C156.933 216.455 156.968 215.995 156.968 215.355C156.968 214.705 156.933 214.235 156.863 213.945C156.773 213.575 156.598 213.315 156.338 213.165C156.058 212.995 155.633 212.91 155.063 212.91ZM166.338 219H164.853V213H162.948L162.018 216.975C161.908 217.425 161.793 217.77 161.673 218.01C161.553 218.25 161.403 218.45 161.223 218.61C160.823 218.95 160.188 219.12 159.318 219.12V217.755C159.698 217.755 159.978 217.675 160.158 217.515C160.348 217.345 160.498 217.04 160.608 216.6L161.763 211.71H166.338V219ZM169.773 214.65H171.978C172.538 214.65 172.968 214.69 173.268 214.77C173.568 214.85 173.813 214.99 174.003 215.19C174.333 215.52 174.498 216.06 174.498 216.81C174.498 217.58 174.328 218.13 173.988 218.46C173.828 218.62 173.648 218.74 173.448 218.82C173.248 218.89 172.973 218.94 172.623 218.97C172.403 218.99 172.228 219 172.098 219H168.393V211.74H169.773V214.65ZM169.773 217.785H171.588C172.238 217.785 172.648 217.715 172.818 217.575C172.968 217.455 173.043 217.205 173.043 216.825C173.043 216.575 173.018 216.39 172.968 216.27C172.928 216.15 172.848 216.06 172.728 216C172.538 215.91 172.113 215.865 171.453 215.865H169.773V217.785ZM185.722 219H176.287V211.71H177.772V217.695H180.262V211.71H181.747V217.695H184.237V211.71H185.722V219ZM194.073 215.895H189.003C189.003 216.385 189.048 216.76 189.138 217.02C189.238 217.31 189.423 217.525 189.693 217.665C189.963 217.795 190.363 217.86 190.893 217.86C191.403 217.86 191.793 217.795 192.063 217.665C192.403 217.505 192.578 217.23 192.588 216.84H193.983C193.983 217.75 193.593 218.39 192.813 218.76C192.313 219 191.658 219.12 190.848 219.12C189.428 219.12 188.478 218.735 187.998 217.965C187.668 217.435 187.503 216.59 187.503 215.43C187.503 214.59 187.573 213.925 187.713 213.435C187.893 212.835 188.208 212.385 188.658 212.085C189.168 211.755 189.883 211.59 190.803 211.59C191.783 211.59 192.523 211.775 193.023 212.145C193.463 212.475 193.758 212.98 193.908 213.66C194.018 214.14 194.073 214.885 194.073 215.895ZM192.603 214.65C192.603 214.26 192.573 213.96 192.513 213.75C192.463 213.53 192.373 213.355 192.243 213.225C191.993 212.965 191.513 212.835 190.803 212.835C190.133 212.835 189.668 212.97 189.408 213.24C189.148 213.5 189.018 213.97 189.018 214.65H192.603ZM202.113 219H200.733V213.795L197.388 219H195.843V211.71H197.238V216.9L200.583 211.71H202.113V219ZM201.153 208.965C201.153 209.745 200.973 210.27 200.613 210.54C200.293 210.78 199.748 210.9 198.978 210.9C198.108 210.9 197.518 210.74 197.208 210.42C196.938 210.14 196.803 209.655 196.803 208.965H197.808C197.808 209.355 197.888 209.62 198.048 209.76C198.208 209.9 198.518 209.97 198.978 209.97C199.428 209.97 199.733 209.905 199.893 209.775C200.073 209.625 200.163 209.355 200.163 208.965H201.153ZM33.26 237H31.775V231H28.475V237H26.99V229.71H33.26V237ZM36.6167 230.355C37.1567 229.835 37.9267 229.58 38.9267 229.59C39.7667 229.6 40.4117 229.76 40.8617 230.07C41.2717 230.35 41.5517 230.785 41.7017 231.375C41.8217 231.835 41.8817 232.5 41.8817 233.37C41.8817 234.11 41.8217 234.705 41.7017 235.155C41.5417 235.765 41.2567 236.23 40.8467 236.55C40.3567 236.93 39.6667 237.12 38.7767 237.12C38.2967 237.12 37.8917 237.065 37.5617 236.955C37.2417 236.835 36.9667 236.645 36.7367 236.385V239.865H35.2517V229.71H36.6167V230.355ZM38.7467 230.94C38.2067 230.94 37.8017 231.005 37.5317 231.135C37.2417 231.275 37.0367 231.515 36.9167 231.855C36.7967 232.195 36.7367 232.695 36.7367 233.355C36.7367 234.015 36.7967 234.515 36.9167 234.855C37.0367 235.195 37.2317 235.435 37.5017 235.575C37.7817 235.715 38.1967 235.785 38.7467 235.785C39.2067 235.785 39.5567 235.705 39.7967 235.545C40.0167 235.395 40.1717 235.16 40.2617 234.84C40.3517 234.51 40.3967 234.015 40.3967 233.355C40.3967 232.385 40.2767 231.74 40.0367 231.42C39.8067 231.1 39.3767 230.94 38.7467 230.94ZM46.8553 229.59C48.0653 229.59 48.9453 229.86 49.4953 230.4C49.8053 230.71 50.0203 231.13 50.1403 231.66C50.2203 232.07 50.2603 232.635 50.2603 233.355C50.2603 234.175 50.2053 234.805 50.0953 235.245C49.9753 235.685 49.7753 236.035 49.4953 236.295C48.9453 236.845 48.0653 237.12 46.8553 237.12C46.1953 237.12 45.6503 237.05 45.2203 236.91C44.8103 236.78 44.4703 236.575 44.2003 236.295C43.8903 235.995 43.6753 235.58 43.5553 235.05C43.4753 234.64 43.4353 234.075 43.4353 233.355C43.4353 232.535 43.4903 231.905 43.6003 231.465C43.7203 231.025 43.9203 230.67 44.2003 230.4C44.4803 230.12 44.8303 229.915 45.2503 229.785C45.6803 229.655 46.2153 229.59 46.8553 229.59ZM46.8553 230.91C46.2753 230.91 45.8453 230.995 45.5653 231.165C45.3053 231.325 45.1303 231.59 45.0403 231.96C44.9703 232.24 44.9353 232.705 44.9353 233.355C44.9353 233.995 44.9703 234.455 45.0403 234.735C45.1303 235.105 45.3053 235.37 45.5653 235.53C45.8453 235.7 46.2753 235.785 46.8553 235.785C47.4353 235.785 47.8653 235.7 48.1453 235.53C48.4053 235.37 48.5753 235.105 48.6553 234.735C48.7253 234.455 48.7603 233.995 48.7603 233.355C48.7603 232.705 48.7253 232.235 48.6553 231.945C48.5653 231.575 48.3903 231.315 48.1303 231.165C47.8503 230.995 47.4253 230.91 46.8553 230.91ZM58.4466 237H56.6766L54.7866 234.27L52.8516 237H51.1566L53.9166 233.28L51.2616 229.71H53.0316L54.8166 232.29L56.6616 229.71H58.3716L55.6866 233.265L58.4466 237ZM62.7635 229.59C63.9735 229.59 64.8535 229.86 65.4035 230.4C65.7135 230.71 65.9285 231.13 66.0485 231.66C66.1285 232.07 66.1685 232.635 66.1685 233.355C66.1685 234.175 66.1135 234.805 66.0035 235.245C65.8835 235.685 65.6835 236.035 65.4035 236.295C64.8535 236.845 63.9735 237.12 62.7635 237.12C62.1035 237.12 61.5585 237.05 61.1285 236.91C60.7185 236.78 60.3785 236.575 60.1085 236.295C59.7985 235.995 59.5835 235.58 59.4635 235.05C59.3835 234.64 59.3435 234.075 59.3435 233.355C59.3435 232.535 59.3985 231.905 59.5085 231.465C59.6285 231.025 59.8285 230.67 60.1085 230.4C60.3885 230.12 60.7385 229.915 61.1585 229.785C61.5885 229.655 62.1235 229.59 62.7635 229.59ZM62.7635 230.91C62.1835 230.91 61.7535 230.995 61.4735 231.165C61.2135 231.325 61.0385 231.59 60.9485 231.96C60.8785 232.24 60.8435 232.705 60.8435 233.355C60.8435 233.995 60.8785 234.455 60.9485 234.735C61.0385 235.105 61.2135 235.37 61.4735 235.53C61.7535 235.7 62.1835 235.785 62.7635 235.785C63.3435 235.785 63.7735 235.7 64.0535 235.53C64.3135 235.37 64.4835 235.105 64.5635 234.735C64.6335 234.455 64.6685 233.995 64.6685 233.355C64.6685 232.705 64.6335 232.235 64.5635 231.945C64.4735 231.575 64.2985 231.315 64.0385 231.165C63.7585 230.995 63.3335 230.91 62.7635 230.91ZM74.9077 238.755H73.5127V236.955H68.4277V238.755H67.0177V235.68C67.4077 235.68 67.7127 235.57 67.9327 235.35C68.1127 235.16 68.2477 234.88 68.3377 234.51L69.4777 229.71H74.0377V235.68H74.9077V238.755ZM72.5527 235.68V231H70.6627L69.8377 234.465C69.6877 235.135 69.4727 235.54 69.1927 235.68H72.5527ZM82.5816 237H81.2016V231.795L77.8566 237H76.3116V229.71H77.7066V234.9L81.0516 229.71H82.5816V237ZM92.673 237H91.248V231.99L89.298 237H87.918L85.983 231.99V237H84.573V229.71H86.463L88.638 235.185L90.843 229.71H92.673V237ZM97.8758 229.59C99.0858 229.59 99.9658 229.86 100.516 230.4C100.826 230.71 101.041 231.13 101.161 231.66C101.241 232.07 101.281 232.635 101.281 233.355C101.281 234.175 101.226 234.805 101.116 235.245C100.996 235.685 100.796 236.035 100.516 236.295C99.9658 236.845 99.0858 237.12 97.8758 237.12C97.2158 237.12 96.6708 237.05 96.2408 236.91C95.8308 236.78 95.4908 236.575 95.2208 236.295C94.9108 235.995 94.6958 235.58 94.5758 235.05C94.4958 234.64 94.4558 234.075 94.4558 233.355C94.4558 232.535 94.5108 231.905 94.6208 231.465C94.7408 231.025 94.9408 230.67 95.2208 230.4C95.5008 230.12 95.8508 229.915 96.2708 229.785C96.7008 229.655 97.2358 229.59 97.8758 229.59ZM97.8758 230.91C97.2958 230.91 96.8658 230.995 96.5858 231.165C96.3258 231.325 96.1508 231.59 96.0608 231.96C95.9908 232.24 95.9558 232.705 95.9558 233.355C95.9558 233.995 95.9908 234.455 96.0608 234.735C96.1508 235.105 96.3258 235.37 96.5858 235.53C96.8658 235.7 97.2958 235.785 97.8758 235.785C98.4558 235.785 98.8858 235.7 99.1658 235.53C99.4258 235.37 99.5958 235.105 99.6758 234.735C99.7458 234.455 99.7808 233.995 99.7808 233.355C99.7808 232.705 99.7458 232.235 99.6758 231.945C99.5858 231.575 99.4108 231.315 99.1508 231.165C98.8708 230.995 98.4458 230.91 97.8758 230.91ZM109.195 234.84C109.195 236.36 108.175 237.12 106.135 237.12C104.685 237.12 103.73 236.705 103.27 235.875C103.07 235.525 102.94 235.08 102.88 234.54C102.84 234.21 102.82 233.805 102.82 233.325C102.82 232.505 102.885 231.87 103.015 231.42C103.185 230.83 103.495 230.385 103.945 230.085C104.455 229.755 105.185 229.59 106.135 229.59C108.175 229.59 109.195 230.345 109.195 231.855H107.785C107.785 231.435 107.58 231.155 107.17 231.015C106.95 230.945 106.615 230.91 106.165 230.91C105.615 230.91 105.205 230.99 104.935 231.15C104.705 231.3 104.545 231.53 104.455 231.84C104.365 232.15 104.32 232.65 104.32 233.34C104.32 233.98 104.355 234.45 104.425 234.75C104.515 235.12 104.685 235.38 104.935 235.53C105.205 235.7 105.615 235.785 106.165 235.785C106.685 235.785 107.06 235.73 107.29 235.62C107.62 235.48 107.785 235.22 107.785 234.84H109.195ZM116.581 231H114.061V237H112.576V231H110.056V229.71H116.581V231ZM124.007 237H122.627V231.795L119.282 237H117.737V229.71H119.132V234.9L122.477 229.71H124.007V237ZM126.749 235.245C127.369 235.245 127.679 235.55 127.679 236.16C127.679 236.49 127.589 236.735 127.409 236.895C127.259 237.045 127.039 237.12 126.749 237.12C126.429 237.12 126.189 237.025 126.029 236.835C125.889 236.675 125.819 236.45 125.819 236.16C125.819 235.55 126.129 235.245 126.749 235.245Z" fill="#0C121C"/>
<circle cx="271.5" cy="41.5" r="40.5" stroke="white" stroke-width="2"/>
<path d="M271.5 82V101C271.5 106.523 267.023 111 261.5 111H11C5.47716 111 1 115.477 1 121V194C1 199.523 5.47715 204 11 204H25" stroke="url(#paint0_linear_13_2893)" stroke-width="2" stroke-linecap="round"/>
<defs>
<linearGradient id="paint0_linear_13_2893" x1="232" y1="64" x2="221.731" y2="117.22" gradientUnits="userSpaceOnUse">
<stop offset="0.65553" stop-color="white"/>
<stop offset="0.764503" stop-color="#0C121C"/>
</linearGradient>
</defs>
</svg>
